<svg enable-background="new 0 0 366.09 140" viewBox="0 0 366.09 140" xmlns="http://www.w3.org/2000/svg"><path d="m116.52 130.79s65.7 3.56 115.87-.97c19.1-1.73 39.54-5.2 53.12-18.74 10.66-10.63 15.28-25.74 19.14-40.28s7.6-29.72 17.09-41.4 19.44-19.37 32.76-12.36c-114.49 0-228.99 0-343.48 0l-1.53.7c13.32-7.01 30.51-.01 40 11.67s13.23 26.85 17.09 41.4 8.49 29.66 19.14 40.28c13.58 13.54 34.02 17.01 53.12 18.74 50.16 4.54 115.87.97 115.87.97" fill="#ad642d"/><g fill="#b77848"><path d="m254.76 131.79c.49-.16.2-.43-1.19-.3l-.96.54z"/><path d="m245.39 131.29c-1.62.31-3.49.8-2.41 1.21 1.6-.53 2-.36 3.71-.99 1.39-.11 2.43.06 2.2.25.49-.15 2.16.01 2.89-.33-1.82-.3-4.11-.22-6.48.19-.52-.09-.03-.24.09-.33z"/><path d="m110.53 124.25.82.29c-.22-.1-.51-.2-.82-.29z"/><path d="m64.81 60.53c.18.61.3.86.36.88-.2-.56-.36-1.02-.36-.88z"/><path d="m60.84 46.62c.1.3.19.55.28.81-.08-.32-.17-.64-.28-.81z"/><path d="m110.53 124.25-2.07-.83c-.2.1 1.04.47 2.07.83z"/><path d="m226.73 133.07c.47-.04.86-.09 1.22-.16-.39.03-.76.05-1.14.08-.03.02-.05.05-.08.08z"/><path d="m146.95 129.36.68.05c.2-.04.4-.09.58-.16z"/><path d="m175.29 130.63c-.64-.04-.88.38-1.13.55.37-.16.84-.23 1.41-.25.01-.08-.07-.17-.28-.3z"/><path d="m220.32 131.49.8-.07c-.21.02-.56.05-.8.07z"/><path d="m126.81 127.23c-.04-.07-.13-.14-.23-.19-.01.05.08.12.23.19z"/><path d="m149.41 133.88c.02-.03-.01-.05 0-.08-.17.04-.22.07 0 .08z"/><path d="m116.53 130.68h.46c.05-.08.11-.15.11-.23z"/><path d="m46.89 23.67c.04.04.05.05.09.09.54.47.25.18-.09-.09z"/><path d="m211.23 18.78c-2.73-.38 4.44-.48.33-.9.38.17-3.74.66-.33.9z"/><path d="m225.99 133.03c-.38.01-.77.02-1.17.03.53 0 .89-.01 1.17-.03z"/><path d="m211.56 17.88-.42-.04c.17.02.27.03.42.04z"/><path d="m30.72 18.84c-.12-.07-.37-.13-.62-.18.02.04.16.09.62.18z"/><path d="m32.88 16-1.06-.45c.41.19.75.33 1.06.45z"/><path d="m54.11 18.25c.61.03.81.09 1.64.03-.08-.02-.15-.04-.25-.05-.3.06-.7.08-1.39.02z"/><path d="m78.47 18.24c-.13-.03-.3-.06-.45-.08-.24.01-.52.02-.77.02z"/><path d="m223.55 132.3c-.54-.07-.88-.18-1.15-.3.39.27-3.18.61 1.15.3z"/><path d="m226.71 132.83c-.14.11-.35.17-.72.2.28-.01.55-.03.81-.04.07-.07.08-.13-.09-.16z"/><path d="m55.1 14.92 3.87.06c-1.08-.04-2.49-.06-3.87-.06z"/><path d="m335.64 18.7c-.23.15-.45.33-.68.49.28-.16.52-.34.68-.49z"/><path d="m70.45 14.92c.69.15 1.42.24 2.18.29.16-.03.34-.06.45-.11z"/><path d="m222.39 132c.01 0 .01 0 0 0z"/><path d="m196.9 134.17c3.7-.1 1.72-.59 2.49-.93 4.4-.29 2.05.35 3.56.59 2.75-.26 4.84-.86 6.89-.93.16.08.56.1.1.23 2.89-.53 8.64-.5 11.99-1.24.26.03.39.07.45.11-.57-.24-.67-.52-.57-.73 1.65-.1 3.04-.58 3.68-.26-1.01.07-1.09.22-1.55.37l1.72-.29c1.6.4-2.35.37-2.32.75 3.37-.44 7.26-1.17 9.86-1.25.59.49-6.03.66-2.54.84l-4.02.12c3.12.56-2.44.14.44.77 5.29-.27 5.88-.69 11.16-1.12 1.15-.41-.44-.37.71-.79 3.7-.69 5.2-.6 6.47-.49 1.27.12 2.29.23 4.98-.59.68-.29 1.12-.65 1.88-.96.76-.32 1.85-.6 3.81-.91l-1.18.88c2.53-.58 3.2-.95 3.9-1.33.35-.18.71-.36 1.31-.56.61-.19 1.45-.41 2.77-.75-.84.55-3.85 1.35-3.08 1.2 1.76-.24 2.34-.53 2.79-.82s.79-.61 2.08-1.03l.7.29c5.21-1.95 10.64-4.96 15.56-8.68-.18.32-.97 1.06.31.35 3.07-2.45 6.15-5.32 8.84-8.48 2.7-3.16 5.02-6.58 6.89-9.86l.88-2.76c.29-.6.69-1.04.48-.34 1.35-2.59-.19-.25.22-1.6.66-1.51 1.08-1.91.82-.88.84-2.44 1.95-5.91 2.98-9.41 1.05-3.5 2.06-7.03 2.99-9.54l-.15 1.04c1.27-3.96.34-4.75 1.73-8.34l-.11.73c1.24-4.3 2.42-8.85 3.78-13.05 1.35-4.2 2.9-8.05 4.59-10.96-.01-.35.22-1.02.58-1.83.39-.79.87-1.74 1.39-2.64 1.02-1.82 2.09-3.48 1.86-3.96 1.56-1.98 2.19-2.61 3-3.43.79-.81 1.73-1.88 4.18-4.42.63-.7 1.02-1.28 1.42-1.94s.86-1.35 1.67-2.18l.36.3c.62-.86 1.34-1.61 2.01-2.43l1.64-.55c.53-.48 1.11-.86 1.67-1.28-.72.42-1.61.8-1.57.63.65-.52 1.43-1.02 2.22-1.47.82-.38 1.62-.82 2.39-1.02 1.5-.53 2.68-.54 2.74-.47 2.34-.74 4.85-.91 7.34-.5-.1.07-.46.06-.92.01-.46-.01-1.02.01-1.51.01 1.99-.1 2.15.21 2.26.33.05.08.1.15.35.23.25.09.73.11 1.62.34-.44-.26.34-.18.45-.24.37.22.88.37 1.43.69.55.3 1.19.62 1.87.95l.87-3.53c-1.93-.03-4.16-.01-6.02.06l.65-.32c-6.12-.08-12.9.15-19.76.15 2.46.15 1.9.7-.12.75l-.8-.49c-1.3.3 2.1.18-.57.55-2.56-.06-1.72-.56-.25-.71l-3.12.17c-.18-.15.55-.22.74-.41-1.28.3-5.38-.49-7.23.04l-.18-.15c-6.86 0-9.98.16-15.57.19-.11.42-2.3.33-3.96.67-4.11-.13-8.67-.47-13.62-.43-3.48.21-1.02.36-2.58.61-.26-.38-5.2-.35-2.64-.62-5.94.06-7.59.08-15.1.39.82.16 1.73.23 1.26.36-1.36.06-3.1-.16-2.91-.35l.36-.04c-8.43.58-19.47-1.12-26.18-.32l.38-.04-6.97.42c-3.2-.07 1.92-.29-.45-.53-7.51.64-11.87-.09-18.06.33-4.79-1.13-17 .08-23.46-.64l.37.27c-1.67.26-2.02-.15-3.25-.21.17.21 1.81.24.77.38-14.15.32-29.21-.39-43.72-.63-5.31-.07-3.01 1.38-9.7.74l1.9-.5c-10.71.59-21.9-.02-32.39.48.63-.11.64-.26 1.67-.26-2.21-.36-8.19-.02-8.23.28-1.63-.03-.38-.27-1.38-.42-2.22-.21-5.58.46-6.76.1-.2-.06.62-.12 1.03-.14-1.45.17-6.74-.04-5.36.37-3.94-.2-7.53.18-10.67-.06-2.05.46-6.74-.22-7.39.43.28-.68-6.9-.55-9.39-.23.83-.21-2.16-.21-1.19-.5-2.84.01-5.44.14-4.95.48-5.23-.81-10.51.65-13.46-.39-8.43.36-16.24.61-23.83.77.27-.68 8.39-.07 8.06-.78-1.84.07-3.49.16-5.03.26-.77.05-1.52.09-2.26.14-.37.02-.73.04-1.1.07l-.55.03-.87.03c-.59.3-1.19.6-1.8.91l1.25 2.55c1.84-.96 3.87-1.94 6.49-2.29 1.72-.26-.92.49-1.45.71 3.21-.97 6.56-1.03 9.72-.57 3.17.45 6.17 1.38 9.06 2.46-.04.06-.67-.18-1.27-.36 1.12.45 2.52 1.25 2.53.91l-1.11-.42c-.79-.6.4-.33 1.85.13.71.28 1.48.58 2.08.82.62.23 1.04.46 1.12.43-1.12-.2.16.7 1.28 1.52 1.08.89 1.98 1.72.34 1.18.67.43 1.57.91 1.55.64.9.79 1.08 1.15.03.54 1.69 1.35 2.32 1.7 2.84 2.11.27.19.52.38.89.7.18.16.39.35.64.58.23.26.5.56.83.93-.12.09-.69-.48-1.08-.66 1.52 1.29 3.13 2.63 4.91 5.53-.19-.12-.06.27-.63-.56 1.69 2.36 3.08 4.42 4.4 6.63 1.33 2.2 2.5 4.6 3.55 7.66-1.29-1.54.61 2.12.17 2.64.44 1.07.88 2.13 1.28 3.22l-.18-1.41c.96 2.88 2.13 5.35 2.68 7.93l-.86-2.11c.58 1.82 1.13 3.64 1.67 5.48l-.67-3.18c1.11 2.91.6-.52 1.53 3.46-.27-.79.8 2.96.88 4.59v-.01c.56 1.42 1.14 2.88 1.6 5.11-.02.62-.72-.3-.74.11.83 1.33 2.08 6.92 3.15 8.58-.3-.57-.59-.52-.59-.3l.75 1.09c.33 1.4.34 1.61.04 1.47 1.34 4.1.21-1.51 1.61 3.4-.17-.36-.16-.16-.49-.93 1.57 4.9 3.88 9.14 6.02 13.35.18 1.51-2.1-3.58-1.76-1.95 1.63 3.03 3.66 6 5.92 8.71.54.7 1.16 1.33 1.74 1.99.57.67 1.2 1.28 1.8 1.89l.91.92.95.86c.62.58 1.24 1.15 1.85 1.71-.31-.27-.59-.58-.88-.87.31 0 .65.25 1.08.6.44.34.94.82 1.49 1.35 1.07 1.11 2.54 2.26 4.02 3.06-.72-.4-1.13-.23-.9-.18 1.88 1.3 3.94 2.42 6.33 3.49 1.19.55 2.5 1 3.87 1.55 1.41.46 2.89 1.01 4.54 1.47l-.87-.07c2.46 1.04 6.67 2.2 9.46 2.9.87.02 2.48.36 1.56-.13 4.2 1.51 8.43 2 12.49 2.33 4.08.32 8.02.52 11.87 1.28-.93-.07-2.23 0-1.49.06l6.65.34c-.5-.39-.85-.28-2.23-.66.86-.15 2.73-.13 4.38-.04-3 .04-.01.56 1.27.83-.21-.12.24-.21.14-.32 3.43.82.62-.66 5.33.04l-.26.17c1.78.02 3.42-.14 5.33-.01.77.43-1.89.11-2.03.43 2.69.09 5.33-.53 7.74-.03-1.14.06-2.78-.01-3.93.05 2.63.58 2.94.48 4.9.64l-.19-.02 4.54.35-1.15-.16c3.39-.95 6.85.03 11.39-.59-4.41.57-.73.36-1.08.81 1.15.15 2.91.32 2.41.44 2.15-.33 3.57.37 6.6-.16.13.15 2.29.03 1.8.39 2.79-.1-.66-.26-.42-.44 4.29-.46 10.09.65 16.26-.08 5.32-.34 6.3-.82 11.22-1.17 1.67.2-1.35.56-1.35.56 2.69.16 4.71.1 7.24-.13-.51.14.02.24.8.38 2.03-.09 1.35-.57 4.03-.41-.46.17-1.04.45-2.02.64 2.39-.19 4.75-.53 7.22-.74.67.23-1.48.43-2.35.62 2.78-.19 7.21-.45 8.06-.89l-1.79-.08c1.01-.06.53.33-.21.43-2.38.4-3.45-.03-3.59-.17l1.76-.15c-1.84-.8-7.08.35-10.64.38l1.47-.66-3.63.61c-.78-.15-1.32-.48.44-.61-2.55-.25-2.25.26-4.44-.04-.24-.05-.13-.08.09-.11l-2.48.23c.49-.14-.42-.43 1.11-.37-4.47-.27-7.19.56-8.88.11l.37-.04c-6.19.27-.59.48-5.24 1.04l-3.13-1.12-.61.46c-.64-.01-1.9-.05-1.67-.23-2.38.32.41.2-.98.5-3.08-.41-8.49.14-9.17-.59-1.11.34 2.94.29-.35.51-.93-.78-3.8.08-6.6-.33.87-.39 3.53-.13.72-.54-1.71.65-5.47-.23-7.84-.18-.13.53-5.16.1-9.14.12.26-.19-7.47-.57-11.14-1.03l.11-.08c-.74.5-4.55.18-7.33.12.13-.32.64-.41 2.15-.47-.87-.05-1.74-.09-2.6-.17-.63.13-1.44.16-3.14.08l.69-.36c-3.46-.25-7.02-.04-11.42-.81-.3.35 3.43 1.45-1.31 1.19-.15-.23-.28-.6.96-.55-.4-.02-1.46.02-2.26-.17.64-.03 1.28-.09 1.92-.13-2-.38-1.09.18-2.7-.06.07-.29-1.17-.36-.91-.57.41.02 1.39.3 2.02.27-1.81-.28-3.98-.74-4.67-1.08.13.19-.06.39-1.39.23-3.42-.53-1.11-.54-3.07-1.03-.86.08-2.98-.58-3.12-.16-.99-.21-1.13-.45-1.49-.64-.89-.11-2.92-.55-4.48-.93-1.56-.39-2.68-.61-1.77-.12l.43.15c-.08-.02-.18-.04-.29-.06h.01-.01c-1.45-.26-2.87-.73-4.31-1.19-1.42-.51-2.84-1.07-4.22-1.7-1.37-.66-2.75-1.28-4.05-2.02-.65-.36-1.33-.68-1.96-1.05s-1.27-.74-1.9-1.08l.08-.12c-3.03-1.66-6.38-4.25-8.32-5.8-.78-.68-1.54-1.88-1.1-1.69-.93-.92-1.51-1.38-2.08-2.06-.58-.66-1.25-1.44-2.27-3.05 1.8 1.95-.4-.84 1.81 2.02-2.01-2.76-2.26-3.49-4.53-6.4.48.44.25-.18-.21-1.06-.44-.9-1.09-2.09-1.51-2.78.28.75.6 1.48.9 2.23-.94-1.57-1.62-3.02-2.3-4.5l.83.57c-2.43-6.49-5.69-11.36-6.27-16.82-.87-1.69.87 3.74 0 2.26-.9-3.13-1.1-6.59-1.37-7.57-.89-4.37-1.77-3.84-2.81-8.42-.01.63-.33 1.29-1.4-2.04-.82-3.17-.37-4.08.33-2.13.23.75.27 1.14.21 1.12.35 1 .78 2.33.63 1.02l-.28-.36c-.25-1.62-1.54-5.96-.96-5.02-.89-2.34-.57-.94-.15.86-.96-4.12-1.92-6.32-3.29-10.48.16.69.19 1.35-.06.71-1.03-3.04-1.44-3.64-1.71-4.01-.28-.37-.49-.48-1.44-2.43-.81-2.35 1 .51-1.17-3.32-1.14-2.44.17-.74.77.16-2.14-3.42-3.63-6.64-4.97-8.57.49.53.91 1.12 1.36 1.67-.79-1.02-1.43-1.86-2.08-2.72l.46 1.19c-.72-1.04-1.37-1.88-1.24-1.96-1.04-.84.19 1.12-1.74-.61-.24-.34-.57-.75-.96-1.16-.41-.39-.84-.81-1.25-1.2-.79-.81-1.56-1.44-1.62-1.82.99.87 1.42 1.32 1.64 1.48.21.16.19.04.15-.1-.07-.28-.2-.66 1.43.9-.67-.56-1.38-1.36-2.31-2.23-.11-.16.2.05.49.25-1.8-1.84-2.35-2.12-2.96-2.32-.3-.11-.61-.21-1.11-.48-.25-.13-.54-.32-.91-.55-.38-.22-.84-.49-1.39-.85.7.16-.74-1.13-1.55-1.46 1.85 1.07.66.86-1.13.12-1.4-.93-2.3-1.19-2.96-1.46-.67-.25-1.18-.36-2-.67.62.26 1.23.51 1.82.84-.36-.03-.91-.21-1.67-.44-.76-.22-1.67-.62-2.81-.86-.07-.13.45-.02.89.09.43.12.78.25.4.06-.64-.11-1.32-.24-2.01-.46-.35-.11-.7-.23-1.06-.36-.37-.1-.74-.21-1.13-.32-1.52-.48-3.25-.84-5.08-.76-1.69-.2-.15-.5-1.66-.64-1.04.06-1.84.24-2.53.26-.34.03-.66.04-.96.05-.3.03-.59.07-.88.1-.58.07-1.17.13-1.89.26-.71.16-1.52.46-2.56.86.67-.03 1.04-.08.9.04-.13.15-.84.32-2.15 1.15 1.05-.58 2.2-.92 3.32-1.34.56-.23 1.15-.31 1.73-.47.58-.13 1.16-.3 1.75-.39-1.49.45-2.96.86-4.33 1.54.51-.15 1.02-.36 1.54-.51.53-.13 1.05-.26 1.54-.38.99-.29 1.9-.39 2.54-.41-1.06.25-1.53.33-1.61.42-.08.07.23.05.75.16-.74-.1-1.44.07-2.16.19-.36.07-.71.15-1.07.24-.35.11-.69.26-1.04.39-.69.3-1.41.51-2.1.86-.7.34-1.43.65-2.23.92l.63 1.29h.01l.03.1.9 2.76-1.54-4.22-.28-.73-.09.03 1.42 2.9c.27-.1.54-.2.8-.3l.2-.08.09-.04.03-.01.12-.04c.11.01.06.01.39.01h.75l1.49-.04c1-.05 2-.11 3.05-.16 2.1-.12 4.38-.23 7.15-.13l-2.03-.15c.85-.35 3.9-.05 5.95-.19-.19.3 1.09.4 1.96.59-.11-.22 4.63.02 5.2-.57l2.82.39c5.1.16 5.82-.84 10.73-.74-1.48.32.75.53-2.53.76 1.64 0 3.11.06 3.14-.15.96.19 4.54-.4 6.05-.12.69-.13.92-.44 2.76-.42.2.06-.01.15-.01.15.01-.15 2.88-.2 1.27-.53 5.05.92 14.1-.07 18.5.73 3.57-.1 7.88-.19 11.13-.22-.21.09-.01.15-.62.12 4.48.28 2.75-.85 7.85-.54 2.6.48-2.71.26-1.08.44.71.97 6.15-.13 9.58.44l-.83.06c2.62.33 6.39-.37 10.67-.3 0 0-.21.09-.02.15 2.93-.5 8.47-.66 12.59-.8-1.28.38-1.87.2-1.09.59 1.85-.05-.54-.62 3.14-.73 1.2.21 3.86.39 4.21.8l-3.48.02c1.78.54 4.5-.02 6.33.07l-.23.23c5.33-.08 5.4-.67 11.13-.62l-.59-.18c3.13-.58 2.62.33 5.74-.11l.94.59c2.06-.14 7.23-.57 10.93-.68-2.1.44-6.43.66-9.11.92 2.05 0 6.95-.04 8.02-.34-.82.06-1.86.2-2.68.11 2.51-.47 5.81-.69 9.89-.68-.72 1.15 10.63.29 13.59 1.18 7.21-.42 14.31.18 22.72.11-2.98-.89 2.45-.03 1.94-.94 1.96-.06 2.7-.04 2.88.02l5.93.55c1.41.27-1.86.2-1.68.41 4.29.07 1.8.39 4.63.63-.58-.33 1.49-.47 3.93-.34l-3.44-.42c5.99-.49 5.18.77 11.21.29l-1.91.29c3.1-.17 11.43.01 14.47-.73.55.11 1.27.36-.09.42 7.4.11 16.48-.78 22.24-.33l-.56.22c1.38-.06 2.4-.42 4.13-.2-.09.09-.56.22.08.24.73-.08 3.67-.39 5.5-.26l-1.56.25c7.22.29 11.08-.61 17.14-.77-.02.66 5.67.87 8.5.98l-.1.09c8.41.08 14.29-.55 22.07-.81 4.83.72 16.38.3 24.14.7-1.19-.12.19-.51 1.57-.58 1.82.13 5.04-.46 4.75.15l-.65-.01c.56.24 1.5.36 2.63.41l9 .44-8.06-4.25c-.78-.41-1.67-.84-2.59-1.25-.96-.33-1.93-.68-2.84-.95l-.71.65c-.48-.18-.99-.35-1.52-.52-.53-.16-1.1-.21-1.68-.31-.29-.04-.59-.08-.89-.12-.3-.02-.6-.01-.91-.02-.61.02-1.25-.02-1.87.07-2.54.23-5.02 1.19-7.17 2.33-4.32 2.36-7.28 5.47-9.17 6.6-.61.74-1.29 1.55-1.99 2.35-.66.82-1.33 1.63-1.86 2.4l-.26-.35c-1.71 1.94-3.01 3.49-4.23 5.24-.31.44-.62.89-.94 1.36-.3.48-.61.98-.94 1.51-.67 1.06-1.31 2.29-2.08 3.72.11-.44.25-.87.38-1.31-1.78 3.25-1.05 4.66-2.34 7.72l-.97.68c-2.39 5.86-4.74 11.83-5.81 17.95-.06-.12-.2-.35.05-1.33-.81 2.84-3.34 10.86-2.24 10.05-.56-.07-1.72 6.15-2.5 9.4l-.25-.62c-.34 2.84-.21 2.98-1.39 6.73-.38.85-.6.65-.07-.47-1.3 2.81-.45 2.42-2.12 5.79.11-.46.21-.92.3-1.39-.62 1.46-.92 2.12-1.08 2.66s-.21.92-.47 1.77c-.67 1.91-2.96 5.27-3.54 5.45-.01.49-.7 2.12-1.87 3.58-.27.11.08-.47.23-.78-1.65 2.06-2.79 3.64-3.9 5-.57.66-1.07 1.33-1.68 1.9s-1.24 1.12-1.98 1.66c-.15-.06-.36.06-.62.22 3.16-2.71 5.32-5.29 5.13-5.04-.27-.21-2.57 2.16-1.18-.12-1.48 2.19-4.48 5.76-7.28 7.51-.15.06-.3.12-.43.13l.25-.23c-.64.39-1.18.8-1.67 1.21-.9.53-1.52.79-2.37 1.3-.47-.04-3.44 1.7-4.98 2.35.31.33-1.75 1.15.29.64-.26.07.29-.15 1.28-.67.22-.13.48-.27.62-.37-.02.02-.05.05-.09.09.98-.51 2.27-1.16 3.66-2.02-.52.42-1.05.87-1.69 1.27-.65.38-1.39.74-2.27 1.06-.64.66-1.43 1.26-1.87 1.61-2.35.49-6.68 1.62-7.39 1.44-2.4.93-5.35 1.72-8.07 2.47-1.37.35-2.67.69-3.83 1.03-1.17.31-2.18.64-2.96.98-1.45.34-1.73.03-2.29 0 .83-.21 1.85-.33 2.28-.54-2.89.7-8.69 1.31-9.34 1.9-3.76.16 2.04-.72-3.08-.1l.68-.24c-10.16.04-16.36 2.79-27.7 2.14.78.04 1.17.05 1.34.14-12.86.08-26.49 1.27-39.18.45-3.61-.17-4 .19-6.2.44l-.78-.46-3.77.48c-5.35.32-9.23-1.23-16-.68l.86.33c-2.43-.11-7.69-.03-7.28-.37-.25.05-.81.29-1.75.11l-.07-.24-5.97.2c-4.61-.35.76-.91-5.98-1.22-2.51-.01-7.16.36-6.23.56 1.01.07 2.57.27 2.64.52l-2.3.01c-.45.67-2.26 1.31 3.36 2.06l3.95-.26 1.25.39-3.31-.11c1.86.4 3.06.16 4.4.02.31.19.86.34 1.63.44l3.88-.53c.46.29-1.75.48.84.72 1.82-.25-1.71-.67 1.28-.78 1.87.37 1.31.62 3.53.41.3.19-.17.29-1.04.34 1.97-.15 5.2.06 6.22-.29 1.95.45 6.63.05 6.43.7.62-.15 3.47-.46 5.27-.45-3.31.75 6.75.13 5.87.96 2.45-.67 8.82-.26 13.14-.65-.24.06-.72.17-1.1.13 2.43.06 3.14.26 4.71.39.31-.59 4.1-.75 6.14-1.13 2.99.52-1.8.72-.86 1.24-.15-.46 5.18-.56 4.16-.94 2.29.31 1.97.14 3.15.6.39-.75 2.12-.15 4-.65 3.31.27.87.66 4.49.33 1.77.19-1.45.55-1.45.55zm83.97-17.63c-.61.45-1.14.82-1.48 1.06.31-.22.73-.53 1.48-1.06zm5.59-4.84c-.66.61-1.49 1.37-2.36 2.18-.29.07-.18-.24.37-.73-.23.33 1.12-.76 1.99-1.45zm-13.95 6.6c.97-.54 1.31-.69 1.49-.69-.44.28-.98.58-1.69.97-.02.03-.07.07-.09.11.05-.13.13-.25.29-.39z"/><path d="m270.97 119.7c-.14.08-.21.14-.4.24.22-.07.43-.15.64-.22.1-.1.21-.21.3-.3-.18.09-.37.19-.54.28z"/><path d="m111.49 124.59-.14-.05c.12.05.22.1.29.14-.1-.05-.09-.06-.15-.09z"/><path d="m329.72 23.52-.08-.07-.38.49z"/><path d="m150.65 131.53c.07.04.22.09.52.14-.02-.03-.25-.08-.52-.14z"/><path d="m167.87 132.5 2.43.23c-1.05-.13-1.82-.18-2.43-.23z"/><path d="m181.11 133.06c.17-.07.22-.13.26-.18-.01 0-.02 0-.03 0z"/><path d="m32.7 18.94c-.16-.06-.32-.11-.47-.15-1.1-.32-.36-.08.47.15z"/><path d="m65.23 68.22c-.24-.62-.49-1.24-.71-1.89.26 1.08.47 1.92.71 1.89z"/><path d="m54.68 14.91c-.01.01 0 .01 0 0 .14.01.27.01.42.01z"/><path d="m63.77 63.52c.21 1.1.47 1.99.75 2.81-.2-.9-.44-1.94-.75-2.81z"/><path d="m238.54 132.77h.64c-.01-.03.03-.05.07-.07z"/><path d="m239.25 132.7.71-.07c-.33.01-.61.02-.71.07z"/><path d="m241.44 132.47-1.49.16c.52-.02 1.16-.03 1.49-.16z"/><path d="m221 133.03-.2.16c.11-.04.18-.09.2-.16z"/><path d="m215.67 133.17c1.27.01 3.19.27 4.97.14l.16-.12c-.83.24-3.93-.3-5.13-.02z"/><path d="m193.43 131.37 4.46.15c-.78-.16-1.8-.39.22-.42-5.61-.52 1.16.37-4.68.27z"/><path d="m179.61 130.95c2.4-.03-.02-.24.11-.33-1.52.12-1.89.16-.11.33z"/><path d="m85.27 109.21.44-.09c-1.27-1.27-.12.08-.44.09z"/><path d="m73.33 94.3c.18.59.34 1.18.55 1.76l.7.62c-.44-.78-.86-1.58-1.25-2.38z"/><path d="m71.85 82.81.3.74c-.35-.95-.73-1.9-1.07-2.86.24.71.51 1.41.77 2.12z"/><path d="m74.13 18.62-.56-.47c-1.24.08-1.51.61.56.47z"/><path d="m146.63 18.14c.79.24 2.83.39 4.09.16-1.64-.04-3.26-.23-4.09-.16z"/><path d="m345.5 12.54 1.62-.01c-1.02-.05-2.03-.14-3.05-.01.48 0 .96-.06 1.43.02z"/><path d="m290.43 37.95c.12-.13.05-.42-.27-.36l-.23.5z"/><path d="m288.29 37.04c-.38.24-.81.66-.56 1.12.37-.48.46-.28.86-.85.32-.06.56.16.5.34.11-.13.5.11.67-.2-.42-.38-.94-.4-1.49-.08-.12-.11-.01-.24.02-.33z"/><path d="m257.09 36.26.2.06c-.05-.03-.12-.05-.2-.06z"/><path d="m237.76 35.99c.15-.01.21-.06.22-.11-.14.03-.25.07-.22.11z"/><path d="m234.46 35.44c.07.02.13.02.19.03-.07-.04-.15-.07-.19-.03z"/><path d="m257.09 36.26-.52-.16c-.03.17.27.13.52.16z"/><path d="m283.99 38.23c.11-.02.2-.07.28-.13-.09.02-.17.04-.26.05-.01.03-.02.05-.02.08z"/><path d="m265.61 35.86h.16c.05-.06.09-.12.13-.2z"/><path d="m272.15 35.78c-.15-.02-.2.4-.26.59.08-.17.19-.26.32-.29.01-.08-.01-.18-.06-.3z"/><path d="m282.52 36.52.18-.06c-.04.02-.12.04-.18.06z"/><path d="m260.93 35.77c-.01-.06-.03-.12-.06-.15 0 .05.02.1.06.15z"/><path d="m78.02 38.94c.01-.03 0-.05 0-.07-.04.03-.05.06 0 .07z"/><path d="m70.43 36.85.11-.02c.01-.08.02-.16.02-.24z"/><path d="m228.42 34.9c.01 0 .02 0 .03.01.15-.05.06-.04-.03-.01z"/><path d="m172.97 35.21c.63.38-1.02.48-.08.9-.09-.16.86-.65.08-.9z"/><path d="m283.82 38.18c-.09 0-.18.01-.27 0 .12.02.2.01.27 0z"/><path d="m172.89 36.11c0 .01 0 .01 0 0l.1.04c-.04-.01-.06-.02-.1-.04z"/><path d="m214.5 35.15c.03.07.08.13.14.18 0-.03-.03-.09-.14-.18z"/><path d="m224.87 35.75-.26-.06c.1.05.19.06.26.06z"/><path d="m209.12 35.75c-.14-.03-.19-.09-.38-.03.02.02.04.04.06.05.07-.06.16-.09.32-.02z"/><path d="m203.51 35.75c.03.03.07.06.1.08.06-.01.12-.01.18-.02z"/><path d="m95.04 38.73c-.12-.12-.2-.25-.26-.38.09.3-.73.41.26.38z"/><path d="m283.98 38c-.03.11-.08.16-.17.18.06 0 .13-.01.19-.02.02-.07.02-.13-.02-.16z"/><path d="m208.89 39.08-.89-.07c.25.04.57.07.89.07z"/><path d="m135.24 38.67-.2.05c.07.01.15 0 .2-.05z"/><path d="m205.36 39.08c-.16-.15-.33-.24-.5-.29-.04.03-.08.06-.1.11z"/><path d="m88.92 39.35c.85.01.4-.54.58-.86 1.01-.16.47.41.81.69.63-.15 1.12-.66 1.59-.63.04.09.13.12.02.24.67-.44 1.98-.02 2.76-.57.06.05.09.1.1.14-.13-.28-.15-.56-.12-.76.38-.01.71-.35.85.01-.23-.01-.25.14-.36.25l.4-.16c.36.52-.54.18-.54.57.78-.17 1.68-.6 2.28-.45.12.51-1.39.17-.6.62l-.92-.19c.7.8-.56-.06.09.8 1.21.15 1.36-.26 2.57-.11.27-.28-.09-.42.18-.7 1.72-.51 1.35 1.28 2.62.6.33-.34.45-.98 1.35-.64l-.31.58c1.17.06.67-.83 1.9-.44-.22.23-.92.19-.74.26.8.45.56-.33 1.18-.33l.13.51c1.25-.08 2.63-.45 4.01-.54-.08.15-.31.31.01.47 1.75-.25 3.73.06 5.41.36l.64-.44c.15 0 .28.2.12.28.66.17.03-.28.35-.45.37-.03.49.25.26.39 1.16-.37 3.3-.8 4.52-.33l-.24.13c.95.18 1.07-.9 1.95-.49l-.17.08c2.06.19 4.34-.21 5.91.45.3-.63 2.04.28 2.17-.6 1.18.44.84.6 2.5.89.44.04.66-.55 1.21-.64l.01.46.74-.48.4.55.51-.12c-.2-.03-.43-.21-.4-.34.8-.21 1.96.32 1.98.56l1.9-.39c-.04.19-.36.25-.61.37 1.01-.47.18.49 1.11.05-.12-.11.07-.28.09-.37.46.28 1.52.28 2.3.16l-.15.32c1.41.08 2.97-.15 4.55-.15-.57-.15-.44-.7.03-.75l.19.49c.3-.3-.48-.18.13-.55.59.06.4.56.06.71l.72-.17c.04.15-.13.22-.17.41.29-.3 1.24.49 1.66-.04l.04.15c1.58 0 2.3-.16 3.58-.19.03-.42.53-.33.91-.67.95.13 1.99.47 3.13.43.8-.21.23-.36.59-.61.06.38 1.2.35.61.62 1.37-.06 1.75-.08 3.48-.39-.19-.16-.4-.23-.29-.36.31-.06.71.16.67.35l-.08.04c1.94-.58 4.48 1.12 6.02.32l-.09.04 1.6-.42c.74.07-.44.29.1.53 1.73-.64 2.73.09 4.15-.33 1.1 1.13 3.91-.08 5.4.64l-.09-.27c.38-.26.46.15.75.21-.04-.21-.42-.24-.18-.38 3.26-.32 6.72.39 10.06.63 1.22.07.69-1.38 2.23-.74l-.44.5c2.46-.59 5.04.02 7.45-.48-.14.11-.15.26-.38.26.51.36 1.88.02 1.89-.28.38.03.09.27.32.42.51.21 1.28-.46 1.55-.1.05.06-.14.12-.24.14.33-.17 1.55.04 1.23-.37.91.2 1.73-.18 2.45.06.47-.46 1.55.22 1.7-.43-.06.68 1.59.55 2.16.23-.19.21.5.21.27.5.65-.01 1.25-.14 1.14-.48 1.2.81 2.42-.65 3.1.39 1.94-.36 3.74-.61 5.48-.77-.06.68-1.93.07-1.85.78 1.66-.28 2.61-.86 4.25-.7.43.09-.24.29-.39.41 1.65-.28 3.2.06 4.67-.31 0 .06-.16.13-.31.18.29-.02.67.1.64-.21l-.28.08c-.46-.45 1.15-.93 1.2-1.17-.49.88 1.45.22.67 1.34.19-.06.43-.2.39-.41.28.06.37.18.09.41 1.04-.17.67-.49 1.61-.49 0 .15-.19.21-.29.38.48-.29.96-.58 1.75-.45-.05.09.04.21-.19.2 1.37-.04 2.33-.77 3.83-.49-.44.65.51.21.59.77l.81-.17-.32-.27c.71.01 1.33-.4 1.94-.21l-.52.23 1.32-.11-.75-.21c.71-.29-.08-.71.86-.55-.19.06.71.01 1.07.34.35-.18.71-.37 1.23-.23.14.18-.11.62-.02.74.34-.47 1.65-.13 2.09-.63-.15.12-.15.41-.11.47l.29-.38c.33.12.37.18.32.41.98.07-.31-.71.86-.4-.09.03-.05.09-.24.15 1.17.16 2.27-.24 3.34-.05.32.56-.94.14-.58.61 1.55-.1 3.22-.68 4.72-.54l-.28-.06c.21-.8 1.12.39 1.88.02-.19.06-.24.44-.19.35 1.03.13 2.11-.2 3.67-.45l-.19.2c.61.18 1.6.11 2.25.2.19-.2.57-.17.34-.47 2.02 1.16 3.86-.62 5.65.35-.21 0-.51.18-.34.18l1.53-.19c-.12-.35-.2-.21-.52-.48.19-.21.62-.36 1-.36-.69.23.01.56.3.75-.05-.11.05-.22.03-.33.8.62.13-.7 1.22-.28l-.06.18c.41-.09.78-.33 1.22-.28.18.4-.43.19-.46.52.62-.02 1.22-.76 1.78-.36-.26.11-.64.11-.9.22.61.47.68.35 1.13.43l-.04-.01 1.05.21-.27-.13c.77-1.05 1.57-.19 2.62-.88-1.01.65-.17.38-.24.83.27.13.67.27.55.4.49-.37.82.29 1.52-.25.03.15.53.01.42.38.64-.12-.15-.25-.1-.44.99-.5 2.32.61 3.74-.08 1.22-.28 1.45-.78 2.58-1.02.38.23-.31.53-.31.53.62.22 1.08.18 1.67.01-.12.13 0 .24.18.4.47-.04.31-.53.93-.32-.11.16-.24.42-.47.59.55-.13 1.09-.41 1.67-.54.15.25-.34.39-.55.55.64-.11 1.66-.23 1.86-.63l-.41-.14c.23-.02.12.35-.05.42-.55.32-.79-.14-.82-.29l.41-.09c-.42-.86-1.63.14-2.45.09l.34-.62-.84.52c-.18-.16-.3-.51.1-.6-.59-.31-.52.22-1.02-.12-.06-.05-.03-.08.02-.11l-.57.19c.11-.13-.1-.44.26-.35-1.03-.36-1.66.47-2.04 0l.09-.04c-1.43.21-.14.46-1.21 1l-.72-1.13-.14.46c-.15-.02-.44-.05-.38-.23-.55.31.09.2-.22.5-.71-.42-1.95.2-2.11-.53-.25.35.68.27-.08.51-.22-.78-.87.13-1.52-.23.2-.4.81-.19.16-.55-.39.68-1.26-.15-1.81-.02-.03.54-1.19.23-2.1.41.06-.18-1.72-.3-2.57-.5l.03-.09c-.16.55-1.04.45-1.68.56.03-.33.14-.46.49-.61h-.6c-.14.18-.33.27-.72.33l.15-.41c-.8.02-1.61.48-2.64.21-.06.38.82 1.07-.27 1.33-.04-.21-.08-.56.2-.65-.09.03-.33.17-.52.08l.44-.35c-.47-.15-.25.29-.62.26.01-.3-.28-.21-.22-.45.1-.03.33.12.47.01-.42-.05-.93-.23-1.1-.45.04.17 0 .4-.31.44-.8.02-.27-.36-.74-.51-.19.21-.7-.01-.72.44-.23 0-.28-.21-.37-.33-.41.2-1.93.06-1.47.53l.11.03c-.02.01-.04.01-.07.02-1.36.44-2.82-.25-4.17-.06v-.15c-.8.17-1.79.1-2.36.42-.24 0-.56-.27-.46-.45-.61.11-.68.28-1.57.03.62-.26-.21-.23.63-.19-.8-.13-.98-.37-1.84.04.29-.38-.6-.48-.98-.36l.56.27c-.43.06-.8.02-1.18-.01l.21-.5c-1.63-.61-2.95 1.03-4.19.02-.43.35.89.25.5.65-.75-.07-1.54-.78-1.77-.79-1.03-.28-.96.73-2.04.54.14.18.27.65-.54.82-.75-.07-.92-.75-.45-.89.18-.01.27.04.26.1.24-.06.56-.14.26-.33l-.1.18c-.37-.18-1.41-.16-1.17-.45-.57.17-.24.29.18.38-.97-.26-1.51-.01-2.5-.18.16.1.3.31.15.31-1.46-.22-.64.34-1.63.42-.56-.27.2-.65-.79-.42-.61-.18-.13-.47.11-.62-.91.34-1.69-.23-2.21-.29l.48-.14c-.29.09-.52.08-.76.08l.27.36c-.28-.06-.52-.06-.51-.21-.29.23.22.59-.35.91-.37-.18-1.14.19-1.27-.28 1.17.16-.13-.47.86-.55-.19.06-.43.05-.71-.01-.04-.05.04-.1.12-.12-1.12-.42-.52.53-1.68.52.15-.27-.27-.51-.46-.45.47.01.22.44-.21.65-.75-.21-.81.15-1.2.13l.45.1c-.15.27-.52.23-1.05.32-.04-.21.47-.14.29-.23-.58.47-1.31-.48-2.11-.17-.37-.18-.04-.5-.36-.62-.9.35-.98-.36-1.93-.08.27.36.32.27-.35.62l1.56-.25-1 .52c.47.01.99-.23 1.28-.16-.48.29-.43.2-.2.5-.64-.54-1.28.31-2.02-.05l.02-.89c-1.12-.39-1.99.45-3.44.23l.47.15c-.2.35-.9.05-1.37.19.04-.3-.25-.4-.45-.59.02.22-1.06-.02-1.2.57l-.65-.39c-1.17-.16-1.34.84-2.47.74.34-.32-.17-.53.58-.76-.38 0-.72-.06-.72.15-.22-.19-1.04.4-1.39.12-.16.13-.21.44-.63.42-.05-.06 0-.15 0-.15 0 .15-.66.2-.29.53-1.16-.92-3.24.07-4.26-.73-.82.1-1.81.19-2.56.22.05-.09 0-.15.14-.12-1.03-.28-.63.85-1.81.54-.6-.48.62-.26.25-.44-.16-.97-1.41.13-2.2-.44l.19-.06c-.6-.33-1.47.37-2.46.3 0 0 .05-.09.01-.15-.67.5-1.95.66-2.9.8.29-.38.43-.2.25-.59-.42.05.12.62-.72.73-.28-.21-.89-.39-.97-.8l.8-.02c-.41-.54-1.04.02-1.46-.07l.05-.23c-1.23.08-1.24.67-2.56.62l.14.18c-.72.58-.6-.33-1.32.11l-.22-.59c-.47.14-1.66.57-2.52.68.48-.44 1.48-.66 2.1-.92-.47 0-1.6.04-1.85.34.19-.06.43-.2.62-.11-.58.47-1.34.69-2.28.68.17-1.15-2.45-.29-3.13-1.18-1.66.42-3.29-.18-5.23-.11.69.89-.56.03-.45.94-.45.06-.62.04-.66-.02l-1.36-.55c-.32-.27.43-.2.39-.41-.99-.07-.41-.39-1.07-.63.13.33-.34.47-.91.34l.79.42c-1.38.49-1.19-.77-2.58-.29l.44-.29c-.71.17-2.63-.01-3.33.73-.13-.11-.29-.36.02-.42-1.7-.11-3.79.78-5.12.33l.13-.22c-.32.06-.55.42-.95.2.02-.09.13-.22-.02-.24-.17.08-.84.39-1.27.26l.36-.25c-1.66-.29-2.55.61-3.94.77 0-.66-1.3-.87-1.96-.98l.02-.09c-1.93-.08-3.29.55-5.08.81-1.11-.72-3.77-.3-5.56-.7.27.12-.04.51-.36.58-.42-.13-1.16.46-1.09-.15l.15.01c-.32-.59-1.18-.44-1.85-.45l-.11.79c-1.76-1.15-4.61.42-5.57-.61-.42.2-.95.2-1.37.39l.02-.42c-1.18-.11-1.77-.16-3.22-.06l.3-.3c-.82-.03-1.04 1.22-1.79 1.25l-.23-.63c-1.43.01-2.88-.55-4.3.03.02-.09.07-.28.3-.3-.67-.02-2.61-.43-2.36.44-.02-.57-1.48-.06-2.25.19l.12-.42c-.65.53-.67.68-1.59.83-.22-.05-.19-.33.1-.23-.72-.22-.56.4-1.43.17l.33-.27c-.74-.03-.68.11-1.09.42-.47.17-1.4-.11-1.51-.48-.1.23-.51.54-.94.43-.06-.14.1-.23.18-.27-1.24-.28-1.84.49-2.69.08-.02-.14-.07-.21-.14-.25.98.01 1.78.03 1.7.06 0-.39-.79-.45-.16-.99-.64.29-1.73.92-2.5.74-.04-.04-.07-.07-.1-.13l.08-.04c-.18-.04-.34 0-.49.06-.25-.06-.4-.11-.64-.12-.09-.32-.91-.17-1.31-.19.03.42-.49.35 0 .7-.06-.03.07-.05.34-.07.06-.01.13-.02.17-.04-.01.01-.02.02-.03.04.26-.01.6-.02.98-.03-.31.21-.64.39-1.08.16-.2.27-.43.55-.55.68-.54-.59-1.59-.91-1.73-1.27-1.21.24-2.85.16-3.61.95-.34.1-.4-.23-.52-.35.2-.08.43-.07.54-.18-.69.2-2.04.08-2.2.63-.87-.25.49-.51-.7-.42l.16-.17c-2.34-.88-3.81 1.41-6.41.28.18.07.27.1.31.19-2.96-.5-6.1.47-9.03-.32-.83-.16-.92.19-1.43.46l-.18-.45-.87.52c-1.23.38-2.13-1.11-3.69-.39l.2.31c-.56-.06-1.77.18-1.68-.17-.06.06-.18.32-.4.16l-.02-.24-1.37.41c-1.06-.17.17-.94-1.39-.99-.58.09-1.64.69-1.43.85.23.01.6.15.61.39l-.53.12c-.1.7-.5 1.41.79 1.9l.9-.43.29.34-.76.02c.43.32.7.04 1.01-.16.07.18.2.31.38.37l.89-.67c.11.27-.4.54.2.69.42-.31-.4-.61.29-.82.43.32.31.58.81.31.07.18-.04.29-.24.37.45-.22 1.19-.09 1.43-.46.45.39 1.52-.1 1.48.56.14-.16.8-.52 1.21-.55-.76.79 1.55.05 1.35.9.56-.71 2.03-.32 3.02-.71-.06.06-.16.17-.25.13.56.06.72.27 1.08.41.07-.59.94-.72 1.41-1.08.69.57-.42.69-.2 1.23-.03-.48 1.19-.48.96-.87.52.35.45.17.72.66.09-.74.49-.12.92-.58.76.36.2.69 1.03.46.36.15-.38.41-.38.41zm19.81-1.27s0 .01 0 0c-.17.02-.32.03-.41.03.09 0 .21-.01.41-.03zm1.67-.01c-.2-.02-.46-.02-.72-.02-.06-.15 0-.3.17-.29-.09.11.3.19.55.31zm-3.53-2.92c.26-.06.35.02.39.11-.12.01-.27.02-.46.05-.01.02-.02.03-.03.05.03-.08.05-.15.1-.21z"/><path d="m106.4 35.7c-.04.01-.06.03-.11.03.05.04.11.07.16.09.03-.04.06-.09.09-.13-.05.01-.09.01-.14.01z"/><path d="m257.33 36.33-.04-.01c.03.02.06.03.07.06-.02-.02-.02-.03-.03-.05z"/><path d="m133.39 38.88-.01-.11-.14.1z"/><path d="m266.49 37.78c.02.04.05.08.12.11 0-.03-.05-.07-.12-.11z"/><path d="m270.46 37.87.56.15c-.25-.08-.42-.12-.56-.15z"/><path d="m273.5 38.08c.04-.07.05-.13.06-.18 0 0 0 0-.01 0z"/><path d="m225.08 38.58c-.04 0-.08.01-.12.02-.27.08-.09.04.12-.02z"/><path d="m239.49 37.59c-.15.08-.3.15-.46.2.25.03.45.04.46-.2z"/><path d="m208.99 39.08c-.03-.01-.06-.01-.1-.01z"/><path d="m238.36 37.78c.26.08.47.07.67.01-.21-.03-.46-.07-.67-.01z"/><path d="m286.7 38.27.15.02c0-.03.01-.05.02-.07z"/><path d="m286.87 38.22.16-.05c-.08 0-.14 0-.16.05z"/><path d="m287.37 38.07-.34.11c.12-.01.26.01.34-.11z"/><path d="m282.67 38.08-.05.15c.03-.03.04-.08.05-.15z"/><path d="m281.44 38.12c.29.03.73.33 1.14.23l.04-.12c-.19.23-.9-.37-1.18-.11z"/><path d="m276.33 36.23 1.03.12c-.18-.16-.42-.38.05-.42-1.3-.48.27.37-1.08.3z"/><path d="m273.15 35.99c.55-.08-.01-.24.02-.33-.35.15-.43.19-.02.33z"/><path d="m250.14 35.99.06-.38c-.43.05-.01.15-.06.38z"/><path d="m245.75 37.98.41.23.2-.35z"/><path d="m243.15 35.24.18-.05-.71.14z"/><path d="m204.51 35.38.13.47c.29-.08.35-.61-.13-.47z"/><path d="m187.83 35.86c-.18-.24-.65-.39-.94-.16.38.04.75.22.94.16z"/><path d="m137.81 35.09.34-.16-.64.13z"/></g></svg>