<?xml version="1.0" encoding="utf-8"?>
<!-- Generator: Adobe Illustrator 21.0.2, SVG Export Plug-In . SVG Version: 6.00 Build 0)  -->
<svg version="1.1" id="Calque_1" xmlns="http://www.w3.org/2000/svg" xmlns:xlink="http://www.w3.org/1999/xlink" x="0px" y="0px"
	 viewBox="0 0 366.09 140" style="enable-background:new 0 0 366.09 140;" xml:space="preserve">
<style type="text/css">
	.st0{fill:#AD642D;}
	.st1{fill:#B77848;}
</style>
<g>
	<path class="st0" d="M116.52,130.79c0,0,65.7,3.56,115.87-0.97c19.1-1.73,39.54-5.2,53.12-18.74
		c10.66-10.63,15.28-25.74,19.14-40.28s7.6-29.72,17.09-41.4s19.44-19.37,32.76-12.36c-114.49,0-228.99,0-343.48,0l-1.53,0.7
		c13.32-7.01,30.51-0.01,40,11.67s13.23,26.85,17.09,41.4s8.49,29.66,19.14,40.28c13.58,13.54,34.02,17.01,53.12,18.74
		c50.16,4.54,115.87,0.97,115.87,0.97"/>
	<g>
		<path class="st1" d="M254.76,131.79c0.49-0.16,0.2-0.43-1.19-0.3l-0.96,0.54L254.76,131.79z"/>
		<path class="st1" d="M245.39,131.29c-1.62,0.31-3.49,0.8-2.41,1.21c1.6-0.53,2-0.36,3.71-0.99c1.39-0.11,2.43,0.06,2.2,0.25
			c0.49-0.15,2.16,0.01,2.89-0.33c-1.82-0.3-4.11-0.22-6.48,0.19C244.78,131.53,245.27,131.38,245.39,131.29z"/>
		<path class="st1" d="M110.53,124.25l0.82,0.29C111.13,124.44,110.84,124.34,110.53,124.25z"/>
		<path class="st1" d="M64.81,60.53c0.18,0.61,0.3,0.86,0.36,0.88C64.97,60.85,64.81,60.39,64.81,60.53z"/>
		<path class="st1" d="M60.84,46.62c0.1,0.3,0.19,0.55,0.28,0.81C61.04,47.11,60.95,46.79,60.84,46.62z"/>
		<path class="st1" d="M110.53,124.25l-2.07-0.83C108.26,123.52,109.5,123.89,110.53,124.25z"/>
		<path class="st1" d="M226.73,133.07c0.47-0.04,0.86-0.09,1.22-0.16c-0.39,0.03-0.76,0.05-1.14,0.08
			C226.78,133.01,226.76,133.04,226.73,133.07z"/>
		<path class="st1" d="M146.95,129.36l0.68,0.05c0.2-0.04,0.4-0.09,0.58-0.16L146.95,129.36z"/>
		<path class="st1" d="M175.29,130.63c-0.64-0.04-0.88,0.38-1.13,0.55c0.37-0.16,0.84-0.23,1.41-0.25
			C175.58,130.85,175.5,130.76,175.29,130.63z"/>
		<path class="st1" d="M220.32,131.49l0.8-0.07C220.91,131.44,220.56,131.47,220.32,131.49z"/>
		<path class="st1" d="M126.81,127.23c-0.04-0.07-0.13-0.14-0.23-0.19C126.57,127.09,126.66,127.16,126.81,127.23z"/>
		<path class="st1" d="M149.41,133.88c0.02-0.03-0.01-0.05,0-0.08C149.24,133.84,149.19,133.87,149.41,133.88z"/>
		<path class="st1" d="M116.53,130.68l0.46,0c0.05-0.08,0.11-0.15,0.11-0.23L116.53,130.68z"/>
		<path class="st1" d="M46.89,23.67c0.04,0.04,0.05,0.05,0.09,0.09C47.52,24.23,47.23,23.94,46.89,23.67z"/>
		<path class="st1" d="M211.23,18.78c-2.73-0.38,4.44-0.48,0.33-0.9C211.94,18.05,207.82,18.54,211.23,18.78z"/>
		<path class="st1" d="M225.99,133.03c-0.38,0.01-0.77,0.02-1.17,0.03C225.35,133.06,225.71,133.05,225.99,133.03z"/>
		<path class="st1" d="M211.56,17.88L211.56,17.88l-0.42-0.04C211.31,17.86,211.41,17.87,211.56,17.88z"/>
		<path class="st1" d="M30.72,18.84c-0.12-0.07-0.37-0.13-0.62-0.18C30.12,18.7,30.26,18.75,30.72,18.84z"/>
		<path class="st1" d="M32.88,16l-1.06-0.45C32.23,15.74,32.57,15.88,32.88,16z"/>
		<path class="st1" d="M54.11,18.25c0.61,0.03,0.81,0.09,1.64,0.03c-0.08-0.02-0.15-0.04-0.25-0.05
			C55.2,18.29,54.8,18.31,54.11,18.25z"/>
		<path class="st1" d="M78.47,18.24c-0.13-0.03-0.3-0.06-0.45-0.08c-0.24,0.01-0.52,0.02-0.77,0.02L78.47,18.24z"/>
		<path class="st1" d="M223.55,132.3c-0.54-0.07-0.88-0.18-1.15-0.3C222.79,132.27,219.22,132.61,223.55,132.3z"/>
		<path class="st1" d="M226.71,132.83c-0.14,0.11-0.35,0.17-0.72,0.2c0.28-0.01,0.55-0.03,0.81-0.04
			C226.87,132.92,226.88,132.86,226.71,132.83z"/>
		<path class="st1" d="M55.1,14.92l3.87,0.06C57.89,14.94,56.48,14.92,55.1,14.92z"/>
		<path class="st1" d="M335.64,18.7c-0.23,0.15-0.45,0.33-0.68,0.49C335.24,19.03,335.48,18.85,335.64,18.7z"/>
		<path class="st1" d="M70.45,14.92c0.69,0.15,1.42,0.24,2.18,0.29c0.16-0.03,0.34-0.06,0.45-0.11L70.45,14.92z"/>
		<path class="st1" d="M222.39,132C222.4,132,222.4,132,222.39,132C222.4,132,222.4,132,222.39,132z"/>
		<path class="st1" d="M196.9,134.17c3.7-0.1,1.72-0.59,2.49-0.93c4.4-0.29,2.05,0.35,3.56,0.59c2.75-0.26,4.84-0.86,6.89-0.93
			c0.16,0.08,0.56,0.1,0.1,0.23c2.89-0.53,8.64-0.5,11.99-1.24c0.26,0.03,0.39,0.07,0.45,0.11c-0.57-0.24-0.67-0.52-0.57-0.73
			c1.65-0.1,3.04-0.58,3.68-0.26c-1.01,0.07-1.09,0.22-1.55,0.37l1.72-0.29c1.6,0.4-2.35,0.37-2.32,0.75
			c3.37-0.44,7.26-1.17,9.86-1.25c0.59,0.49-6.03,0.66-2.54,0.84l-4.02,0.12c3.12,0.56-2.44,0.14,0.44,0.77
			c5.29-0.27,5.88-0.69,11.16-1.12c1.15-0.41-0.44-0.37,0.71-0.79c3.7-0.69,5.2-0.6,6.47-0.49c1.27,0.12,2.29,0.23,4.98-0.59
			c0.68-0.29,1.12-0.65,1.88-0.96c0.76-0.32,1.85-0.6,3.81-0.91l-1.18,0.88c2.53-0.58,3.2-0.95,3.9-1.33
			c0.35-0.18,0.71-0.36,1.31-0.56c0.61-0.19,1.45-0.41,2.77-0.75c-0.84,0.55-3.85,1.35-3.08,1.2c1.76-0.24,2.34-0.53,2.79-0.82
			c0.45-0.29,0.79-0.61,2.08-1.03l0.7,0.29c5.21-1.95,10.64-4.96,15.56-8.68c-0.18,0.32-0.97,1.06,0.31,0.35
			c3.07-2.45,6.15-5.32,8.84-8.48c2.7-3.16,5.02-6.58,6.89-9.86l0.88-2.76c0.29-0.6,0.69-1.04,0.48-0.34
			c1.35-2.59-0.19-0.25,0.22-1.6c0.66-1.51,1.08-1.91,0.82-0.88c0.84-2.44,1.95-5.91,2.98-9.41c1.05-3.5,2.06-7.03,2.99-9.54
			l-0.15,1.04c1.27-3.96,0.34-4.75,1.73-8.34l-0.11,0.73c1.24-4.3,2.42-8.85,3.78-13.05c1.35-4.2,2.9-8.05,4.59-10.96
			c-0.01-0.35,0.22-1.02,0.58-1.83c0.39-0.79,0.87-1.74,1.39-2.64c1.02-1.82,2.09-3.48,1.86-3.96c1.56-1.98,2.19-2.61,3-3.43
			c0.79-0.81,1.73-1.88,4.18-4.42c0.63-0.7,1.02-1.28,1.42-1.94c0.4-0.66,0.86-1.35,1.67-2.18l0.36,0.3
			c0.62-0.86,1.34-1.61,2.01-2.43l1.64-0.55c0.53-0.48,1.11-0.86,1.67-1.28c-0.72,0.42-1.61,0.8-1.57,0.63
			c0.65-0.52,1.43-1.02,2.22-1.47c0.82-0.38,1.62-0.82,2.39-1.02c1.5-0.53,2.68-0.54,2.74-0.47c2.34-0.74,4.85-0.91,7.34-0.5
			c-0.1,0.07-0.46,0.06-0.92,0.01c-0.46-0.01-1.02,0.01-1.51,0.01c1.99-0.1,2.15,0.21,2.26,0.33c0.05,0.08,0.1,0.15,0.35,0.23
			c0.25,0.09,0.73,0.11,1.62,0.34c-0.44-0.26,0.34-0.18,0.45-0.24c0.37,0.22,0.88,0.37,1.43,0.69c0.55,0.3,1.19,0.62,1.87,0.95
			l0.87-3.53c-1.93-0.03-4.16-0.01-6.02,0.06l0.65-0.32c-6.12-0.08-12.9,0.15-19.76,0.15c2.46,0.15,1.9,0.7-0.12,0.75l-0.8-0.49
			c-1.3,0.3,2.1,0.18-0.57,0.55c-2.56-0.06-1.72-0.56-0.25-0.71l-3.12,0.17c-0.18-0.15,0.55-0.22,0.74-0.41
			c-1.28,0.3-5.38-0.49-7.23,0.04l-0.18-0.15c-6.86,0-9.98,0.16-15.57,0.19c-0.11,0.42-2.3,0.33-3.96,0.67
			c-4.11-0.13-8.67-0.47-13.62-0.43c-3.48,0.21-1.02,0.36-2.58,0.61c-0.26-0.38-5.2-0.35-2.64-0.62c-5.94,0.06-7.59,0.08-15.1,0.39
			c0.82,0.16,1.73,0.23,1.26,0.36c-1.36,0.06-3.1-0.16-2.91-0.35l0.36-0.04c-8.43,0.58-19.47-1.12-26.18-0.32l0.38-0.04l-6.97,0.42
			c-3.2-0.07,1.92-0.29-0.45-0.53c-7.51,0.64-11.87-0.09-18.06,0.33c-4.79-1.13-17,0.08-23.46-0.64l0.37,0.27
			c-1.67,0.26-2.02-0.15-3.25-0.21c0.17,0.21,1.81,0.24,0.77,0.38c-14.15,0.32-29.21-0.39-43.72-0.63c-5.31-0.07-3.01,1.38-9.7,0.74
			l1.9-0.5c-10.71,0.59-21.9-0.02-32.39,0.48c0.63-0.11,0.64-0.26,1.67-0.26c-2.21-0.36-8.19-0.02-8.23,0.28
			c-1.63-0.03-0.38-0.27-1.38-0.42c-2.22-0.21-5.58,0.46-6.76,0.1c-0.2-0.06,0.62-0.12,1.03-0.14c-1.45,0.17-6.74-0.04-5.36,0.37
			c-3.94-0.2-7.53,0.18-10.67-0.06c-2.05,0.46-6.74-0.22-7.39,0.43c0.28-0.68-6.9-0.55-9.39-0.23c0.83-0.21-2.16-0.21-1.19-0.5
			c-2.84,0.01-5.44,0.14-4.95,0.48c-5.23-0.81-10.51,0.65-13.46-0.39c-8.43,0.36-16.24,0.61-23.83,0.77
			c0.27-0.68,8.39-0.07,8.06-0.78c-1.84,0.07-3.49,0.16-5.03,0.26c-0.77,0.05-1.52,0.09-2.26,0.14c-0.37,0.02-0.73,0.04-1.1,0.07
			l-0.55,0.03l-0.87,0.03c-0.59,0.3-1.19,0.6-1.8,0.91l1.25,2.55c1.84-0.96,3.87-1.94,6.49-2.29c1.72-0.26-0.92,0.49-1.45,0.71
			c3.21-0.97,6.56-1.03,9.72-0.57c3.17,0.45,6.17,1.38,9.06,2.46c-0.04,0.06-0.67-0.18-1.27-0.36c1.12,0.45,2.52,1.25,2.53,0.91
			l-1.11-0.42c-0.79-0.6,0.4-0.33,1.85,0.13c0.71,0.28,1.48,0.58,2.08,0.82c0.62,0.23,1.04,0.46,1.12,0.43
			c-1.12-0.2,0.16,0.7,1.28,1.52c1.08,0.89,1.98,1.72,0.34,1.18c0.67,0.43,1.57,0.91,1.55,0.64c0.9,0.79,1.08,1.15,0.03,0.54
			c1.69,1.35,2.32,1.7,2.84,2.11c0.27,0.19,0.52,0.38,0.89,0.7c0.18,0.16,0.39,0.35,0.64,0.58c0.23,0.26,0.5,0.56,0.83,0.93
			c-0.12,0.09-0.69-0.48-1.08-0.66c1.52,1.29,3.13,2.63,4.91,5.53c-0.19-0.12-0.06,0.27-0.63-0.56c1.69,2.36,3.08,4.42,4.4,6.63
			c1.33,2.2,2.5,4.6,3.55,7.66c-1.29-1.54,0.61,2.12,0.17,2.64c0.44,1.07,0.88,2.13,1.28,3.22l-0.18-1.41
			c0.96,2.88,2.13,5.35,2.68,7.93l-0.86-2.11c0.58,1.82,1.13,3.64,1.67,5.48l-0.67-3.18c1.11,2.91,0.6-0.52,1.53,3.46
			c-0.27-0.79,0.8,2.96,0.88,4.59l0-0.01c0.56,1.42,1.14,2.88,1.6,5.11c-0.02,0.62-0.72-0.3-0.74,0.11
			c0.83,1.33,2.08,6.92,3.15,8.58c-0.3-0.57-0.59-0.52-0.59-0.3l0.75,1.09c0.33,1.4,0.34,1.61,0.04,1.47
			c1.34,4.1,0.21-1.51,1.61,3.4c-0.17-0.36-0.16-0.16-0.49-0.93c1.57,4.9,3.88,9.14,6.02,13.35c0.18,1.51-2.1-3.58-1.76-1.95
			c1.63,3.03,3.66,6,5.92,8.71c0.54,0.7,1.16,1.33,1.74,1.99c0.57,0.67,1.2,1.28,1.8,1.89l0.91,0.92l0.95,0.86
			c0.62,0.58,1.24,1.15,1.85,1.71c-0.31-0.27-0.59-0.58-0.88-0.87c0.31,0,0.65,0.25,1.08,0.6c0.44,0.34,0.94,0.82,1.49,1.35
			c1.07,1.11,2.54,2.26,4.02,3.06c-0.72-0.4-1.13-0.23-0.9-0.18c1.88,1.3,3.94,2.42,6.33,3.49c1.19,0.55,2.5,1,3.87,1.55
			c1.41,0.46,2.89,1.01,4.54,1.47l-0.87-0.07c2.46,1.04,6.67,2.2,9.46,2.9c0.87,0.02,2.48,0.36,1.56-0.13
			c4.2,1.51,8.43,2,12.49,2.33c4.08,0.32,8.02,0.52,11.87,1.28c-0.93-0.07-2.23,0-1.49,0.06l6.65,0.34
			c-0.5-0.39-0.85-0.28-2.23-0.66c0.86-0.15,2.73-0.13,4.38-0.04c-3,0.04-0.01,0.56,1.27,0.83c-0.21-0.12,0.24-0.21,0.14-0.32
			c3.43,0.82,0.62-0.66,5.33,0.04l-0.26,0.17c1.78,0.02,3.42-0.14,5.33-0.01c0.77,0.43-1.89,0.11-2.03,0.43
			c2.69,0.09,5.33-0.53,7.74-0.03c-1.14,0.06-2.78-0.01-3.93,0.05c2.63,0.58,2.94,0.48,4.9,0.64l-0.19-0.02l4.54,0.35l-1.15-0.16
			c3.39-0.95,6.85,0.03,11.39-0.59c-4.41,0.57-0.73,0.36-1.08,0.81c1.15,0.15,2.91,0.32,2.41,0.44c2.15-0.33,3.57,0.37,6.6-0.16
			c0.13,0.15,2.29,0.03,1.8,0.39c2.79-0.1-0.66-0.26-0.42-0.44c4.29-0.46,10.09,0.65,16.26-0.08c5.32-0.34,6.3-0.82,11.22-1.17
			c1.67,0.2-1.35,0.56-1.35,0.56c2.69,0.16,4.71,0.1,7.24-0.13c-0.51,0.14,0.02,0.24,0.8,0.38c2.03-0.09,1.35-0.57,4.03-0.41
			c-0.46,0.17-1.04,0.45-2.02,0.64c2.39-0.19,4.75-0.53,7.22-0.74c0.67,0.23-1.48,0.43-2.35,0.62c2.78-0.19,7.21-0.45,8.06-0.89
			l-1.79-0.08c1.01-0.06,0.53,0.33-0.21,0.43c-2.38,0.4-3.45-0.03-3.59-0.17l1.76-0.15c-1.84-0.8-7.08,0.35-10.64,0.38l1.47-0.66
			l-3.63,0.61c-0.78-0.15-1.32-0.48,0.44-0.61c-2.55-0.25-2.25,0.26-4.44-0.04c-0.24-0.05-0.13-0.08,0.09-0.11l-2.48,0.23
			c0.49-0.14-0.42-0.43,1.11-0.37c-4.47-0.27-7.19,0.56-8.88,0.11l0.37-0.04c-6.19,0.27-0.59,0.48-5.24,1.04l-3.13-1.12l-0.61,0.46
			c-0.64-0.01-1.9-0.05-1.67-0.23c-2.38,0.32,0.41,0.2-0.98,0.5c-3.08-0.41-8.49,0.14-9.17-0.59c-1.11,0.34,2.94,0.29-0.35,0.51
			c-0.93-0.78-3.8,0.08-6.6-0.33c0.87-0.39,3.53-0.13,0.72-0.54c-1.71,0.65-5.47-0.23-7.84-0.18c-0.13,0.53-5.16,0.1-9.14,0.12
			c0.26-0.19-7.47-0.57-11.14-1.03l0.11-0.08c-0.74,0.5-4.55,0.18-7.33,0.12c0.13-0.32,0.64-0.41,2.15-0.47
			c-0.87-0.05-1.74-0.09-2.6-0.17c-0.63,0.13-1.44,0.16-3.14,0.08l0.69-0.36c-3.46-0.25-7.02-0.04-11.42-0.81
			c-0.3,0.35,3.43,1.45-1.31,1.19c-0.15-0.23-0.28-0.6,0.96-0.55c-0.4-0.02-1.46,0.02-2.26-0.17c0.64-0.03,1.28-0.09,1.92-0.13
			c-2-0.38-1.09,0.18-2.7-0.06c0.07-0.29-1.17-0.36-0.91-0.57c0.41,0.02,1.39,0.3,2.02,0.27c-1.81-0.28-3.98-0.74-4.67-1.08
			c0.13,0.19-0.06,0.39-1.39,0.23c-3.42-0.53-1.11-0.54-3.07-1.03c-0.86,0.08-2.98-0.58-3.12-0.16c-0.99-0.21-1.13-0.45-1.49-0.64
			c-0.89-0.11-2.92-0.55-4.48-0.93c-1.56-0.39-2.68-0.61-1.77-0.12l0.43,0.15c-0.08-0.02-0.18-0.04-0.29-0.06c0.01,0,0,0,0.01,0
			l-0.01,0c-1.45-0.26-2.87-0.73-4.31-1.19c-1.42-0.51-2.84-1.07-4.22-1.7c-1.37-0.66-2.75-1.28-4.05-2.02
			c-0.65-0.36-1.33-0.68-1.96-1.05c-0.63-0.37-1.27-0.74-1.9-1.08l0.08-0.12c-3.03-1.66-6.38-4.25-8.32-5.8
			c-0.78-0.68-1.54-1.88-1.1-1.69c-0.93-0.92-1.51-1.38-2.08-2.06c-0.58-0.66-1.25-1.44-2.27-3.05c1.8,1.95-0.4-0.84,1.81,2.02
			c-2.01-2.76-2.26-3.49-4.53-6.4c0.48,0.44,0.25-0.18-0.21-1.06c-0.44-0.9-1.09-2.09-1.51-2.78c0.28,0.75,0.6,1.48,0.9,2.23
			c-0.94-1.57-1.62-3.02-2.3-4.5l0.83,0.57c-2.43-6.49-5.69-11.36-6.27-16.82c-0.87-1.69,0.87,3.74,0,2.26
			c-0.9-3.13-1.1-6.59-1.37-7.57c-0.89-4.37-1.77-3.84-2.81-8.42c-0.01,0.63-0.33,1.29-1.4-2.04c-0.82-3.17-0.37-4.08,0.33-2.13
			c0.23,0.75,0.27,1.14,0.21,1.12c0.35,1,0.78,2.33,0.63,1.02l-0.28-0.36c-0.25-1.62-1.54-5.96-0.96-5.02
			c-0.89-2.34-0.57-0.94-0.15,0.86c-0.96-4.12-1.92-6.32-3.29-10.48c0.16,0.69,0.19,1.35-0.06,0.71c-1.03-3.04-1.44-3.64-1.71-4.01
			c-0.28-0.37-0.49-0.48-1.44-2.43c-0.81-2.35,1,0.51-1.17-3.32c-1.14-2.44,0.17-0.74,0.77,0.16c-2.14-3.42-3.63-6.64-4.97-8.57
			c0.49,0.53,0.91,1.12,1.36,1.67c-0.79-1.02-1.43-1.86-2.08-2.72l0.46,1.19c-0.72-1.04-1.37-1.88-1.24-1.96
			c-1.04-0.84,0.19,1.12-1.74-0.61c-0.24-0.34-0.57-0.75-0.96-1.16c-0.41-0.39-0.84-0.81-1.25-1.2c-0.79-0.81-1.56-1.44-1.62-1.82
			c0.99,0.87,1.42,1.32,1.64,1.48c0.21,0.16,0.19,0.04,0.15-0.1c-0.07-0.28-0.2-0.66,1.43,0.9c-0.67-0.56-1.38-1.36-2.31-2.23
			c-0.11-0.16,0.2,0.05,0.49,0.25c-1.8-1.84-2.35-2.12-2.96-2.32c-0.3-0.11-0.61-0.21-1.11-0.48c-0.25-0.13-0.54-0.32-0.91-0.55
			c-0.38-0.22-0.84-0.49-1.39-0.85c0.7,0.16-0.74-1.13-1.55-1.46c1.85,1.07,0.66,0.86-1.13,0.12c-1.4-0.93-2.3-1.19-2.96-1.46
			c-0.67-0.25-1.18-0.36-2-0.67c0.62,0.26,1.23,0.51,1.82,0.84c-0.36-0.03-0.91-0.21-1.67-0.44c-0.76-0.22-1.67-0.62-2.81-0.86
			c-0.07-0.13,0.45-0.02,0.89,0.09c0.43,0.12,0.78,0.25,0.4,0.06c-0.64-0.11-1.32-0.24-2.01-0.46c-0.35-0.11-0.7-0.23-1.06-0.36
			c-0.37-0.1-0.74-0.21-1.13-0.32c-1.52-0.48-3.25-0.84-5.08-0.76c-1.69-0.2-0.15-0.5-1.66-0.64c-1.04,0.06-1.84,0.24-2.53,0.26
			c-0.34,0.03-0.66,0.04-0.96,0.05c-0.3,0.03-0.59,0.07-0.88,0.1c-0.58,0.07-1.17,0.13-1.89,0.26c-0.71,0.16-1.52,0.46-2.56,0.86
			c0.67-0.03,1.04-0.08,0.9,0.04c-0.13,0.15-0.84,0.32-2.15,1.15c1.05-0.58,2.2-0.92,3.32-1.34c0.56-0.23,1.15-0.31,1.73-0.47
			c0.58-0.13,1.16-0.3,1.75-0.39c-1.49,0.45-2.96,0.86-4.33,1.54c0.51-0.15,1.02-0.36,1.54-0.51c0.53-0.13,1.05-0.26,1.54-0.38
			c0.99-0.29,1.9-0.39,2.54-0.41c-1.06,0.25-1.53,0.33-1.61,0.42c-0.08,0.07,0.23,0.05,0.75,0.16c-0.74-0.1-1.44,0.07-2.16,0.19
			c-0.36,0.07-0.71,0.15-1.07,0.24c-0.35,0.11-0.69,0.26-1.04,0.39c-0.69,0.3-1.41,0.51-2.1,0.86c-0.7,0.34-1.43,0.65-2.23,0.92
			l0.63,1.29l0.01,0l0.03,0.1l0.9,2.76L9.1,17l-0.28-0.73l-0.09,0.03l1.42,2.9c0.27-0.1,0.54-0.2,0.8-0.3l0.2-0.08l0.09-0.04
			l0.03-0.01l0.12-0.04c0.11,0.01,0.06,0.01,0.39,0.01l0.75,0l1.49-0.04c1-0.05,2-0.11,3.05-0.16c2.1-0.12,4.38-0.23,7.15-0.13
			l-2.03-0.15c0.85-0.35,3.9-0.05,5.95-0.19c-0.19,0.3,1.09,0.4,1.96,0.59c-0.11-0.22,4.63,0.02,5.2-0.57l2.82,0.39
			c5.1,0.16,5.82-0.84,10.73-0.74c-1.48,0.32,0.75,0.53-2.53,0.76c1.64,0,3.11,0.06,3.14-0.15c0.96,0.19,4.54-0.4,6.05-0.12
			c0.69-0.13,0.92-0.44,2.76-0.42c0.2,0.06-0.01,0.15-0.01,0.15c0.01-0.15,2.88-0.2,1.27-0.53c5.05,0.92,14.1-0.07,18.5,0.73
			c3.57-0.1,7.88-0.19,11.13-0.22c-0.21,0.09-0.01,0.15-0.62,0.12c4.48,0.28,2.75-0.85,7.85-0.54c2.6,0.48-2.71,0.26-1.08,0.44
			c0.71,0.97,6.15-0.13,9.58,0.44l-0.83,0.06c2.62,0.33,6.39-0.37,10.67-0.3c0,0-0.21,0.09-0.02,0.15c2.93-0.5,8.47-0.66,12.59-0.8
			c-1.28,0.38-1.87,0.2-1.09,0.59c1.85-0.05-0.54-0.62,3.14-0.73c1.2,0.21,3.86,0.39,4.21,0.8l-3.48,0.02
			c1.78,0.54,4.5-0.02,6.33,0.07l-0.23,0.23c5.33-0.08,5.4-0.67,11.13-0.62l-0.59-0.18c3.13-0.58,2.62,0.33,5.74-0.11l0.94,0.59
			c2.06-0.14,7.23-0.57,10.93-0.68c-2.1,0.44-6.43,0.66-9.11,0.92c2.05,0,6.95-0.04,8.02-0.34c-0.82,0.06-1.86,0.2-2.68,0.11
			c2.51-0.47,5.81-0.69,9.89-0.68c-0.72,1.15,10.63,0.29,13.59,1.18c7.21-0.42,14.31,0.18,22.72,0.11
			c-2.98-0.89,2.45-0.03,1.94-0.94c1.96-0.06,2.7-0.04,2.88,0.02l5.93,0.55c1.41,0.27-1.86,0.2-1.68,0.41
			c4.29,0.07,1.8,0.39,4.63,0.63c-0.58-0.33,1.49-0.47,3.93-0.34l-3.44-0.42c5.99-0.49,5.18,0.77,11.21,0.29l-1.91,0.29
			c3.1-0.17,11.43,0.01,14.47-0.73c0.55,0.11,1.27,0.36-0.09,0.42c7.4,0.11,16.48-0.78,22.24-0.33l-0.56,0.22
			c1.38-0.06,2.4-0.42,4.13-0.2c-0.09,0.09-0.56,0.22,0.08,0.24c0.73-0.08,3.67-0.39,5.5-0.26l-1.56,0.25
			c7.22,0.29,11.08-0.61,17.14-0.77c-0.02,0.66,5.67,0.87,8.5,0.98l-0.1,0.09c8.41,0.08,14.29-0.55,22.07-0.81
			c4.83,0.72,16.38,0.3,24.14,0.7c-1.19-0.12,0.19-0.51,1.57-0.58c1.82,0.13,5.04-0.46,4.75,0.15l-0.65-0.01
			c0.56,0.24,1.5,0.36,2.63,0.41l9,0.44l-8.06-4.25c-0.78-0.41-1.67-0.84-2.59-1.25c-0.96-0.33-1.93-0.68-2.84-0.95l-0.71,0.65
			c-0.48-0.18-0.99-0.35-1.52-0.52c-0.53-0.16-1.1-0.21-1.68-0.31c-0.29-0.04-0.59-0.08-0.89-0.12c-0.3-0.02-0.6-0.01-0.91-0.02
			c-0.61,0.02-1.25-0.02-1.87,0.07c-2.54,0.23-5.02,1.19-7.17,2.33c-4.32,2.36-7.28,5.47-9.17,6.6c-0.61,0.74-1.29,1.55-1.99,2.35
			c-0.66,0.82-1.33,1.63-1.86,2.4l-0.26-0.35c-1.71,1.94-3.01,3.49-4.23,5.24c-0.31,0.44-0.62,0.89-0.94,1.36
			c-0.3,0.48-0.61,0.98-0.94,1.51c-0.67,1.06-1.31,2.29-2.08,3.72c0.11-0.44,0.25-0.87,0.38-1.31c-1.78,3.25-1.05,4.66-2.34,7.72
			l-0.97,0.68c-2.39,5.86-4.74,11.83-5.81,17.95c-0.06-0.12-0.2-0.35,0.05-1.33c-0.81,2.84-3.34,10.86-2.24,10.05
			c-0.56-0.07-1.72,6.15-2.5,9.4l-0.25-0.62c-0.34,2.84-0.21,2.98-1.39,6.73c-0.38,0.85-0.6,0.65-0.07-0.47
			c-1.3,2.81-0.45,2.42-2.12,5.79c0.11-0.46,0.21-0.92,0.3-1.39c-0.62,1.46-0.92,2.12-1.08,2.66c-0.16,0.54-0.21,0.92-0.47,1.77
			c-0.67,1.91-2.96,5.27-3.54,5.45c-0.01,0.49-0.7,2.12-1.87,3.58c-0.27,0.11,0.08-0.47,0.23-0.78c-1.65,2.06-2.79,3.64-3.9,5
			c-0.57,0.66-1.07,1.33-1.68,1.9c-0.61,0.57-1.24,1.12-1.98,1.66c-0.15-0.06-0.36,0.06-0.62,0.22c3.16-2.71,5.32-5.29,5.13-5.04
			c-0.27-0.21-2.57,2.16-1.18-0.12c-1.48,2.19-4.48,5.76-7.28,7.51c-0.15,0.06-0.3,0.12-0.43,0.13l0.25-0.23
			c-0.64,0.39-1.18,0.8-1.67,1.21c-0.9,0.53-1.52,0.79-2.37,1.3c-0.47-0.04-3.44,1.7-4.98,2.35c0.31,0.33-1.75,1.15,0.29,0.64
			c-0.26,0.07,0.29-0.15,1.28-0.67c0.22-0.13,0.48-0.27,0.62-0.37c-0.02,0.02-0.05,0.05-0.09,0.09c0.98-0.51,2.27-1.16,3.66-2.02
			c-0.52,0.42-1.05,0.87-1.69,1.27c-0.65,0.38-1.39,0.74-2.27,1.06c-0.64,0.66-1.43,1.26-1.87,1.61c-2.35,0.49-6.68,1.62-7.39,1.44
			c-2.4,0.93-5.35,1.72-8.07,2.47c-1.37,0.35-2.67,0.69-3.83,1.03c-1.17,0.31-2.18,0.64-2.96,0.98c-1.45,0.34-1.73,0.03-2.29,0
			c0.83-0.21,1.85-0.33,2.28-0.54c-2.89,0.7-8.69,1.31-9.34,1.9c-3.76,0.16,2.04-0.72-3.08-0.1l0.68-0.24
			c-10.16,0.04-16.36,2.79-27.7,2.14c0.78,0.04,1.17,0.05,1.34,0.14c-12.86,0.08-26.49,1.27-39.18,0.45c-3.61-0.17-4,0.19-6.2,0.44
			l-0.78-0.46l-3.77,0.48c-5.35,0.32-9.23-1.23-16-0.68l0.86,0.33c-2.43-0.11-7.69-0.03-7.28-0.37c-0.25,0.05-0.81,0.29-1.75,0.11
			l-0.07-0.24l-5.97,0.2c-4.61-0.35,0.76-0.91-5.98-1.22c-2.51-0.01-7.16,0.36-6.23,0.56c1.01,0.07,2.57,0.27,2.64,0.52l-2.3,0.01
			c-0.45,0.67-2.26,1.31,3.36,2.06l3.95-0.26l1.25,0.39l-3.31-0.11c1.86,0.4,3.06,0.16,4.4,0.02c0.31,0.19,0.86,0.34,1.63,0.44
			l3.88-0.53c0.46,0.29-1.75,0.48,0.84,0.72c1.82-0.25-1.71-0.67,1.28-0.78c1.87,0.37,1.31,0.62,3.53,0.41
			c0.3,0.19-0.17,0.29-1.04,0.34c1.97-0.15,5.2,0.06,6.22-0.29c1.95,0.45,6.63,0.05,6.43,0.7c0.62-0.15,3.47-0.46,5.27-0.45
			c-3.31,0.75,6.75,0.13,5.87,0.96c2.45-0.67,8.82-0.26,13.14-0.65c-0.24,0.06-0.72,0.17-1.1,0.13c2.43,0.06,3.14,0.26,4.71,0.39
			c0.31-0.59,4.1-0.75,6.14-1.13c2.99,0.52-1.8,0.72-0.86,1.24c-0.15-0.46,5.18-0.56,4.16-0.94c2.29,0.31,1.97,0.14,3.15,0.6
			c0.39-0.75,2.12-0.15,4-0.65c3.31,0.27,0.87,0.66,4.49,0.33C200.12,133.81,196.9,134.17,196.9,134.17z M280.87,116.54
			L280.87,116.54c-0.61,0.45-1.14,0.82-1.48,1.06C279.7,117.38,280.12,117.07,280.87,116.54z M286.46,111.7
			c-0.66,0.61-1.49,1.37-2.36,2.18c-0.29,0.07-0.18-0.24,0.37-0.73C284.24,113.48,285.59,112.39,286.46,111.7z M272.51,118.3
			c0.97-0.54,1.31-0.69,1.49-0.69c-0.44,0.28-0.98,0.58-1.69,0.97c-0.02,0.03-0.07,0.07-0.09,0.11
			C272.27,118.56,272.35,118.44,272.51,118.3z"/>
		<path class="st1" d="M270.97,119.7c-0.14,0.08-0.21,0.14-0.4,0.24c0.22-0.07,0.43-0.15,0.64-0.22c0.1-0.1,0.21-0.21,0.3-0.3
			C271.33,119.51,271.14,119.61,270.97,119.7z"/>
		<path class="st1" d="M111.49,124.59l-0.14-0.05c0.12,0.05,0.22,0.1,0.29,0.14C111.54,124.63,111.55,124.62,111.49,124.59z"/>
		<polygon class="st1" points="329.72,23.52 329.64,23.45 329.26,23.94 		"/>
		<path class="st1" d="M150.65,131.53c0.07,0.04,0.22,0.09,0.52,0.14C151.15,131.64,150.92,131.59,150.65,131.53z"/>
		<path class="st1" d="M167.87,132.5l2.43,0.23C169.25,132.6,168.48,132.55,167.87,132.5z"/>
		<path class="st1" d="M181.11,133.06c0.17-0.07,0.22-0.13,0.26-0.18c-0.01,0-0.02,0-0.03,0L181.11,133.06z"/>
		<path class="st1" d="M32.7,18.94c-0.16-0.06-0.32-0.11-0.47-0.15C31.13,18.47,31.87,18.71,32.7,18.94z"/>
		<path class="st1" d="M65.23,68.22c-0.24-0.62-0.49-1.24-0.71-1.89C64.78,67.41,64.99,68.25,65.23,68.22z"/>
		<path class="st1" d="M54.68,14.91C54.67,14.92,54.68,14.92,54.68,14.91c0.14,0.01,0.27,0.01,0.42,0.01L54.68,14.91z"/>
		<path class="st1" d="M63.77,63.52c0.21,1.1,0.47,1.99,0.75,2.81C64.32,65.43,64.08,64.39,63.77,63.52z"/>
		<path class="st1" d="M238.54,132.77l0.64,0c-0.01-0.03,0.03-0.05,0.07-0.07L238.54,132.77z"/>
		<path class="st1" d="M239.25,132.7l0.71-0.07C239.63,132.64,239.35,132.65,239.25,132.7z"/>
		<path class="st1" d="M241.44,132.47l-1.49,0.16C240.47,132.61,241.11,132.6,241.44,132.47z"/>
		<path class="st1" d="M221,133.03l-0.2,0.16C220.91,133.15,220.98,133.1,221,133.03z"/>
		<path class="st1" d="M215.67,133.17c1.27,0.01,3.19,0.27,4.97,0.14l0.16-0.12C219.97,133.43,216.87,132.89,215.67,133.17z"/>
		<path class="st1" d="M193.43,131.37l4.46,0.15c-0.78-0.16-1.8-0.39,0.22-0.42C192.5,130.58,199.27,131.47,193.43,131.37z"/>
		<path class="st1" d="M179.61,130.95c2.4-0.03-0.02-0.24,0.11-0.33C178.2,130.74,177.83,130.78,179.61,130.95z"/>
		<path class="st1" d="M85.27,109.21l0.44-0.09C84.44,107.85,85.59,109.2,85.27,109.21z"/>
		<path class="st1" d="M73.33,94.3c0.18,0.59,0.34,1.18,0.55,1.76l0.7,0.62C74.14,95.9,73.72,95.1,73.33,94.3z"/>
		<path class="st1" d="M71.85,82.81l0.3,0.74c-0.35-0.95-0.73-1.9-1.07-2.86C71.32,81.4,71.59,82.1,71.85,82.81z"/>
		<path class="st1" d="M74.13,18.62l-0.56-0.47C72.33,18.23,72.06,18.76,74.13,18.62z"/>
		<path class="st1" d="M146.63,18.14c0.79,0.24,2.83,0.39,4.09,0.16C149.08,18.26,147.46,18.07,146.63,18.14z"/>
		<path class="st1" d="M345.5,12.54l1.62-0.01c-1.02-0.05-2.03-0.14-3.05-0.01C344.55,12.52,345.03,12.46,345.5,12.54z"/>
	</g>
</g>
<g>
	<path class="st1" d="M290.43,37.95c0.12-0.13,0.05-0.42-0.27-0.36l-0.23,0.5L290.43,37.95z"/>
	<path class="st1" d="M288.29,37.04c-0.38,0.24-0.81,0.66-0.56,1.12c0.37-0.48,0.46-0.28,0.86-0.85c0.32-0.06,0.56,0.16,0.5,0.34
		c0.11-0.13,0.5,0.11,0.67-0.2c-0.42-0.38-0.94-0.4-1.49-0.08C288.15,37.26,288.26,37.13,288.29,37.04z"/>
	<path class="st1" d="M257.09,36.26l0.2,0.06C257.24,36.29,257.17,36.27,257.09,36.26z"/>
	<path class="st1" d="M237.76,35.99c0.15-0.01,0.21-0.06,0.22-0.11C237.84,35.91,237.73,35.95,237.76,35.99z"/>
	<path class="st1" d="M234.46,35.44c0.07,0.02,0.13,0.02,0.19,0.03C234.58,35.43,234.5,35.4,234.46,35.44z"/>
	<path class="st1" d="M257.09,36.26l-0.52-0.16C256.54,36.27,256.84,36.23,257.09,36.26z"/>
	<path class="st1" d="M283.99,38.23c0.11-0.02,0.2-0.07,0.28-0.13c-0.09,0.02-0.17,0.04-0.26,0.05
		C284,38.18,283.99,38.2,283.99,38.23z"/>
	<path class="st1" d="M265.61,35.86l0.16,0c0.05-0.06,0.09-0.12,0.13-0.2L265.61,35.86z"/>
	<path class="st1" d="M272.15,35.78c-0.15-0.02-0.2,0.4-0.26,0.59c0.08-0.17,0.19-0.26,0.32-0.29C272.22,36,272.2,35.9,272.15,35.78
		z"/>
	<path class="st1" d="M282.52,36.52l0.18-0.06C282.66,36.48,282.58,36.5,282.52,36.52z"/>
	<path class="st1" d="M260.93,35.77c-0.01-0.06-0.03-0.12-0.06-0.15C260.87,35.67,260.89,35.72,260.93,35.77z"/>
	<path class="st1" d="M78.02,38.94c0.01-0.03,0-0.05,0-0.07C77.98,38.9,77.97,38.93,78.02,38.94z"/>
	<path class="st1" d="M70.43,36.85l0.11-0.02c0.01-0.08,0.02-0.16,0.02-0.24L70.43,36.85z"/>
	<path class="st1" d="M228.42,34.9c0.01,0,0.02,0,0.03,0.01C228.6,34.86,228.51,34.87,228.42,34.9z"/>
	<path class="st1" d="M172.97,35.21c0.63,0.38-1.02,0.48-0.08,0.9C172.8,35.95,173.75,35.46,172.97,35.21z"/>
	<path class="st1" d="M283.82,38.18c-0.09,0-0.18,0.01-0.27,0C283.67,38.2,283.75,38.19,283.82,38.18z"/>
	<path class="st1" d="M172.89,36.11C172.89,36.12,172.89,36.12,172.89,36.11l0.1,0.04C172.95,36.14,172.93,36.13,172.89,36.11z"/>
	<path class="st1" d="M214.5,35.15c0.03,0.07,0.08,0.13,0.14,0.18C214.64,35.3,214.61,35.24,214.5,35.15z"/>
	<path class="st1" d="M224.87,35.75l-0.26-0.06C224.71,35.74,224.8,35.75,224.87,35.75z"/>
	<path class="st1" d="M209.12,35.75c-0.14-0.03-0.19-0.09-0.38-0.03c0.02,0.02,0.04,0.04,0.06,0.05
		C208.87,35.71,208.96,35.68,209.12,35.75z"/>
	<path class="st1" d="M203.51,35.75c0.03,0.03,0.07,0.06,0.1,0.08c0.06-0.01,0.12-0.01,0.18-0.02L203.51,35.75z"/>
	<path class="st1" d="M95.04,38.73c-0.12-0.12-0.2-0.25-0.26-0.38C94.87,38.65,94.05,38.76,95.04,38.73z"/>
	<path class="st1" d="M283.98,38c-0.03,0.11-0.08,0.16-0.17,0.18c0.06,0,0.13-0.01,0.19-0.02C284.02,38.09,284.02,38.03,283.98,38z"
		/>
	<path class="st1" d="M208.89,39.08L208,39.01C208.25,39.05,208.57,39.08,208.89,39.08z"/>
	<path class="st1" d="M135.24,38.67l-0.2,0.05C135.11,38.73,135.19,38.72,135.24,38.67z"/>
	<path class="st1" d="M205.36,39.08c-0.16-0.15-0.33-0.24-0.5-0.29c-0.04,0.03-0.08,0.06-0.1,0.11L205.36,39.08z"/>
	<path class="st1" d="M94.78,38.35C94.78,38.35,94.78,38.35,94.78,38.35C94.78,38.35,94.78,38.35,94.78,38.35z"/>
	<path class="st1" d="M88.92,39.35c0.85,0.01,0.4-0.54,0.58-0.86c1.01-0.16,0.47,0.41,0.81,0.69c0.63-0.15,1.12-0.66,1.59-0.63
		c0.04,0.09,0.13,0.12,0.02,0.24c0.67-0.44,1.98-0.02,2.76-0.57c0.06,0.05,0.09,0.1,0.1,0.14c-0.13-0.28-0.15-0.56-0.12-0.76
		c0.38-0.01,0.71-0.35,0.85,0.01c-0.23-0.01-0.25,0.14-0.36,0.25l0.4-0.16c0.36,0.52-0.54,0.18-0.54,0.57
		c0.78-0.17,1.68-0.6,2.28-0.45c0.12,0.51-1.39,0.17-0.6,0.62l-0.92-0.19c0.7,0.8-0.56-0.06,0.09,0.8c1.21,0.15,1.36-0.26,2.57-0.11
		c0.27-0.28-0.09-0.42,0.18-0.7c1.72-0.51,1.35,1.28,2.62,0.6c0.33-0.34,0.45-0.98,1.35-0.64l-0.31,0.58
		c1.17,0.06,0.67-0.83,1.9-0.44c-0.22,0.23-0.92,0.19-0.74,0.26c0.8,0.45,0.56-0.33,1.18-0.33l0.13,0.51
		c1.25-0.08,2.63-0.45,4.01-0.54c-0.08,0.15-0.31,0.31,0.01,0.47c1.75-0.25,3.73,0.06,5.41,0.36l0.64-0.44
		c0.15,0,0.28,0.2,0.12,0.28c0.66,0.17,0.03-0.28,0.35-0.45c0.37-0.03,0.49,0.25,0.26,0.39c1.16-0.37,3.3-0.8,4.52-0.33l-0.24,0.13
		c0.95,0.18,1.07-0.9,1.95-0.49l-0.17,0.08c2.06,0.19,4.34-0.21,5.91,0.45c0.3-0.63,2.04,0.28,2.17-0.6c1.18,0.44,0.84,0.6,2.5,0.89
		c0.44,0.04,0.66-0.55,1.21-0.64l0.01,0.46l0.74-0.48l0.4,0.55l0.51-0.12c-0.2-0.03-0.43-0.21-0.4-0.34
		c0.8-0.21,1.96,0.32,1.98,0.56l1.9-0.39c-0.04,0.19-0.36,0.25-0.61,0.37c1.01-0.47,0.18,0.49,1.11,0.05
		c-0.12-0.11,0.07-0.28,0.09-0.37c0.46,0.28,1.52,0.28,2.3,0.16l-0.15,0.32c1.41,0.08,2.97-0.15,4.55-0.15
		c-0.57-0.15-0.44-0.7,0.03-0.75l0.19,0.49c0.3-0.3-0.48-0.18,0.13-0.55c0.59,0.06,0.4,0.56,0.06,0.71l0.72-0.17
		c0.04,0.15-0.13,0.22-0.17,0.41c0.29-0.3,1.24,0.49,1.66-0.04l0.04,0.15c1.58,0,2.3-0.16,3.58-0.19c0.03-0.42,0.53-0.33,0.91-0.67
		c0.95,0.13,1.99,0.47,3.13,0.43c0.8-0.21,0.23-0.36,0.59-0.61c0.06,0.38,1.2,0.35,0.61,0.62c1.37-0.06,1.75-0.08,3.48-0.39
		c-0.19-0.16-0.4-0.23-0.29-0.36c0.31-0.06,0.71,0.16,0.67,0.35l-0.08,0.04c1.94-0.58,4.48,1.12,6.02,0.32l-0.09,0.04l1.6-0.42
		c0.74,0.07-0.44,0.29,0.1,0.53c1.73-0.64,2.73,0.09,4.15-0.33c1.1,1.13,3.91-0.08,5.4,0.64l-0.09-0.27
		c0.38-0.26,0.46,0.15,0.75,0.21c-0.04-0.21-0.42-0.24-0.18-0.38c3.26-0.32,6.72,0.39,10.06,0.63c1.22,0.07,0.69-1.38,2.23-0.74
		l-0.44,0.5c2.46-0.59,5.04,0.02,7.45-0.48c-0.14,0.11-0.15,0.26-0.38,0.26c0.51,0.36,1.88,0.02,1.89-0.28
		c0.38,0.03,0.09,0.27,0.32,0.42c0.51,0.21,1.28-0.46,1.55-0.1c0.05,0.06-0.14,0.12-0.24,0.14c0.33-0.17,1.55,0.04,1.23-0.37
		c0.91,0.2,1.73-0.18,2.45,0.06c0.47-0.46,1.55,0.22,1.7-0.43c-0.06,0.68,1.59,0.55,2.16,0.23c-0.19,0.21,0.5,0.21,0.27,0.5
		c0.65-0.01,1.25-0.14,1.14-0.48c1.2,0.81,2.42-0.65,3.1,0.39c1.94-0.36,3.74-0.61,5.48-0.77c-0.06,0.68-1.93,0.07-1.85,0.78
		c1.66-0.28,2.61-0.86,4.25-0.7c0.43,0.09-0.24,0.29-0.39,0.41c1.65-0.28,3.2,0.06,4.67-0.31c0,0.06-0.16,0.13-0.31,0.18
		c0.29-0.02,0.67,0.1,0.64-0.21l-0.28,0.08c-0.46-0.45,1.15-0.93,1.2-1.17c-0.49,0.88,1.45,0.22,0.67,1.34
		c0.19-0.06,0.43-0.2,0.39-0.41c0.28,0.06,0.37,0.18,0.09,0.41c1.04-0.17,0.67-0.49,1.61-0.49c0,0.15-0.19,0.21-0.29,0.38
		c0.48-0.29,0.96-0.58,1.75-0.45c-0.05,0.09,0.04,0.21-0.19,0.2c1.37-0.04,2.33-0.77,3.83-0.49c-0.44,0.65,0.51,0.21,0.59,0.77
		l0.81-0.17l-0.32-0.27c0.71,0.01,1.33-0.4,1.94-0.21l-0.52,0.23l1.32-0.11l-0.75-0.21c0.71-0.29-0.08-0.71,0.86-0.55
		c-0.19,0.06,0.71,0.01,1.07,0.34c0,0,0,0,0,0c0.35-0.18,0.71-0.37,1.23-0.23c0.14,0.18-0.11,0.62-0.02,0.74
		c0.34-0.47,1.65-0.13,2.09-0.63c-0.15,0.12-0.15,0.41-0.11,0.47l0.29-0.38c0.33,0.12,0.37,0.18,0.32,0.41
		c0.98,0.07-0.31-0.71,0.86-0.4c-0.09,0.03-0.05,0.09-0.24,0.15c1.17,0.16,2.27-0.24,3.34-0.05c0.32,0.56-0.94,0.14-0.58,0.61
		c1.55-0.1,3.22-0.68,4.72-0.54l-0.28-0.06c0.21-0.8,1.12,0.39,1.88,0.02c-0.19,0.06-0.24,0.44-0.19,0.35
		c1.03,0.13,2.11-0.2,3.67-0.45l-0.19,0.2c0.61,0.18,1.6,0.11,2.25,0.2c0.19-0.2,0.57-0.17,0.34-0.47c2.02,1.16,3.86-0.62,5.65,0.35
		c-0.21,0-0.51,0.18-0.34,0.18l1.53-0.19c-0.12-0.35-0.2-0.21-0.52-0.48c0.19-0.21,0.62-0.36,1-0.36c-0.69,0.23,0.01,0.56,0.3,0.75
		c-0.05-0.11,0.05-0.22,0.03-0.33c0.8,0.62,0.13-0.7,1.22-0.28l-0.06,0.18c0.41-0.09,0.78-0.33,1.22-0.28
		c0.18,0.4-0.43,0.19-0.46,0.52c0.62-0.02,1.22-0.76,1.78-0.36c-0.26,0.11-0.64,0.11-0.9,0.22c0.61,0.47,0.68,0.35,1.13,0.43
		l-0.04-0.01l1.05,0.21l-0.27-0.13c0.77-1.05,1.57-0.19,2.62-0.88c-1.01,0.65-0.17,0.38-0.24,0.83c0.27,0.13,0.67,0.27,0.55,0.4
		c0.49-0.37,0.82,0.29,1.52-0.25c0.03,0.15,0.53,0.01,0.42,0.38c0.64-0.12-0.15-0.25-0.1-0.44c0.99-0.5,2.32,0.61,3.74-0.08
		c1.22-0.28,1.45-0.78,2.58-1.02c0.38,0.23-0.31,0.53-0.31,0.53c0.62,0.22,1.08,0.18,1.67,0.01c-0.12,0.13,0,0.24,0.18,0.4
		c0.47-0.04,0.31-0.53,0.93-0.32c-0.11,0.16-0.24,0.42-0.47,0.59c0.55-0.13,1.09-0.41,1.67-0.54c0.15,0.25-0.34,0.39-0.55,0.55
		c0.64-0.11,1.66-0.23,1.86-0.63l-0.41-0.14c0.23-0.02,0.12,0.35-0.05,0.42c-0.55,0.32-0.79-0.14-0.82-0.29l0.41-0.09
		c-0.42-0.86-1.63,0.14-2.45,0.09l0.34-0.62l-0.84,0.52c-0.18-0.16-0.3-0.51,0.1-0.6c-0.59-0.31-0.52,0.22-1.02-0.12
		c-0.06-0.05-0.03-0.08,0.02-0.11l-0.57,0.19c0.11-0.13-0.1-0.44,0.26-0.35c-1.03-0.36-1.66,0.47-2.04,0l0.09-0.04
		c-1.43,0.21-0.14,0.46-1.21,1l-0.72-1.13l-0.14,0.46c-0.15-0.02-0.44-0.05-0.38-0.23c-0.55,0.31,0.09,0.2-0.22,0.5
		c-0.71-0.42-1.95,0.2-2.11-0.53c-0.25,0.35,0.68,0.27-0.08,0.51c-0.22-0.78-0.87,0.13-1.52-0.23c0.2-0.4,0.81-0.19,0.16-0.55
		c-0.39,0.68-1.26-0.15-1.81-0.02c-0.03,0.54-1.19,0.23-2.1,0.41c0.06-0.18-1.72-0.3-2.57-0.5l0.03-0.09
		c-0.16,0.55-1.04,0.45-1.68,0.56c0.03-0.33,0.14-0.46,0.49-0.61l-0.6,0c-0.14,0.18-0.33,0.27-0.72,0.33l0.15-0.41
		c-0.8,0.02-1.61,0.48-2.64,0.21c-0.06,0.38,0.82,1.07-0.27,1.33c-0.04-0.21-0.08-0.56,0.2-0.65c-0.09,0.03-0.33,0.17-0.52,0.08
		l0.44-0.35c-0.47-0.15-0.25,0.29-0.62,0.26c0.01-0.3-0.28-0.21-0.22-0.45c0.1-0.03,0.33,0.12,0.47,0.01
		c-0.42-0.05-0.93-0.23-1.1-0.45c0.04,0.17,0,0.4-0.31,0.44c-0.8,0.02-0.27-0.36-0.74-0.51c-0.19,0.21-0.7-0.01-0.72,0.44
		c-0.23,0-0.28-0.21-0.37-0.33c-0.41,0.2-1.93,0.06-1.47,0.53l0.11,0.03c-0.02,0.01-0.04,0.01-0.07,0.02c0,0,0,0,0,0h0
		c-1.36,0.44-2.82-0.25-4.17-0.06l0-0.15c-0.8,0.17-1.79,0.1-2.36,0.42c-0.24,0-0.56-0.27-0.46-0.45c-0.61,0.11-0.68,0.28-1.57,0.03
		c0.62-0.26-0.21-0.23,0.63-0.19c-0.8-0.13-0.98-0.37-1.84,0.04c0.29-0.38-0.6-0.48-0.98-0.36l0.56,0.27
		c-0.43,0.06-0.8,0.02-1.18-0.01l0.21-0.5c-1.63-0.61-2.95,1.03-4.19,0.02c-0.43,0.35,0.89,0.25,0.5,0.65
		c-0.75-0.07-1.54-0.78-1.77-0.79c-1.03-0.28-0.96,0.73-2.04,0.54c0.14,0.18,0.27,0.65-0.54,0.82c-0.75-0.07-0.92-0.75-0.45-0.89
		c0.18-0.01,0.27,0.04,0.26,0.1c0.24-0.06,0.56-0.14,0.26-0.33l-0.1,0.18c-0.37-0.18-1.41-0.16-1.17-0.45
		c-0.57,0.17-0.24,0.29,0.18,0.38c-0.97-0.26-1.51-0.01-2.5-0.18c0.16,0.1,0.3,0.31,0.15,0.31c-1.46-0.22-0.64,0.34-1.63,0.42
		c-0.56-0.27,0.2-0.65-0.79-0.42c-0.61-0.18-0.13-0.47,0.11-0.62c-0.91,0.34-1.69-0.23-2.21-0.29l0.48-0.14
		c-0.29,0.09-0.52,0.08-0.76,0.08l0.27,0.36c-0.28-0.06-0.52-0.06-0.51-0.21c-0.29,0.23,0.22,0.59-0.35,0.91
		c-0.37-0.18-1.14,0.19-1.27-0.28c1.17,0.16-0.13-0.47,0.86-0.55c-0.19,0.06-0.43,0.05-0.71-0.01c-0.04-0.05,0.04-0.1,0.12-0.12
		c-1.12-0.42-0.52,0.53-1.68,0.52c0.15-0.27-0.27-0.51-0.46-0.45c0.47,0.01,0.22,0.44-0.21,0.65c-0.75-0.21-0.81,0.15-1.2,0.13
		l0.45,0.1c-0.15,0.27-0.52,0.23-1.05,0.32c-0.04-0.21,0.47-0.14,0.29-0.23c-0.58,0.47-1.31-0.48-2.11-0.17
		c-0.37-0.18-0.04-0.5-0.36-0.62c-0.9,0.35-0.98-0.36-1.93-0.08c0.27,0.36,0.32,0.27-0.35,0.62l1.56-0.25l-1,0.52
		c0.47,0.01,0.99-0.23,1.28-0.16c-0.48,0.29-0.43,0.2-0.2,0.5c-0.64-0.54-1.28,0.31-2.02-0.05l0.02-0.89
		c-1.12-0.39-1.99,0.45-3.44,0.23l0.47,0.15c-0.2,0.35-0.9,0.05-1.37,0.19c0.04-0.3-0.25-0.4-0.45-0.59
		c0.02,0.22-1.06-0.02-1.2,0.57l-0.65-0.39c-1.17-0.16-1.34,0.84-2.47,0.74c0.34-0.32-0.17-0.53,0.58-0.76
		c-0.38,0-0.72-0.06-0.72,0.15c-0.22-0.19-1.04,0.4-1.39,0.12c-0.16,0.13-0.21,0.44-0.63,0.42c-0.05-0.06,0-0.15,0-0.15
		c0,0.15-0.66,0.2-0.29,0.53c-1.16-0.92-3.24,0.07-4.26-0.73c-0.82,0.1-1.81,0.19-2.56,0.22c0.05-0.09,0-0.15,0.14-0.12
		c-1.03-0.28-0.63,0.85-1.81,0.54c-0.6-0.48,0.62-0.26,0.25-0.44c-0.16-0.97-1.41,0.13-2.2-0.44l0.19-0.06
		c-0.6-0.33-1.47,0.37-2.46,0.3c0,0,0.05-0.09,0.01-0.15c-0.67,0.5-1.95,0.66-2.9,0.8c0.29-0.38,0.43-0.2,0.25-0.59
		c-0.42,0.05,0.12,0.62-0.72,0.73c-0.28-0.21-0.89-0.39-0.97-0.8l0.8-0.02c-0.41-0.54-1.04,0.02-1.46-0.07l0.05-0.23
		c-1.23,0.08-1.24,0.67-2.56,0.62l0.14,0.18c-0.72,0.58-0.6-0.33-1.32,0.11l-0.22-0.59c-0.47,0.14-1.66,0.57-2.52,0.68
		c0.48-0.44,1.48-0.66,2.1-0.92c-0.47,0-1.6,0.04-1.85,0.34c0.19-0.06,0.43-0.2,0.62-0.11c-0.58,0.47-1.34,0.69-2.28,0.68
		c0.17-1.15-2.45-0.29-3.13-1.18c-1.66,0.42-3.29-0.18-5.23-0.11c0.69,0.89-0.56,0.03-0.45,0.94c-0.45,0.06-0.62,0.04-0.66-0.02
		l-1.36-0.55c-0.32-0.27,0.43-0.2,0.39-0.41c-0.99-0.07-0.41-0.39-1.07-0.63c0.13,0.33-0.34,0.47-0.91,0.34l0.79,0.42
		c-1.38,0.49-1.19-0.77-2.58-0.29l0.44-0.29c-0.71,0.17-2.63-0.01-3.33,0.73c-0.13-0.11-0.29-0.36,0.02-0.42
		c-1.7-0.11-3.79,0.78-5.12,0.33l0.13-0.22c-0.32,0.06-0.55,0.42-0.95,0.2c0.02-0.09,0.13-0.22-0.02-0.24
		c-0.17,0.08-0.84,0.39-1.27,0.26l0.36-0.25c-1.66-0.29-2.55,0.61-3.94,0.77c0-0.66-1.3-0.87-1.96-0.98l0.02-0.09
		c-1.93-0.08-3.29,0.55-5.08,0.81c-1.11-0.72-3.77-0.3-5.56-0.7c0.27,0.12-0.04,0.51-0.36,0.58c-0.42-0.13-1.16,0.46-1.09-0.15
		l0.15,0.01c-0.32-0.59-1.18-0.44-1.85-0.45l-0.11,0.79c-1.76-1.15-4.61,0.42-5.57-0.61c-0.42,0.2-0.95,0.2-1.37,0.39l0.02-0.42
		c-1.18-0.11-1.77-0.16-3.22-0.06l0.3-0.3c-0.82-0.03-1.04,1.22-1.79,1.25l-0.23-0.63c-1.43,0.01-2.88-0.55-4.3,0.03
		c0.02-0.09,0.07-0.28,0.3-0.3c-0.67-0.02-2.61-0.43-2.36,0.44c-0.02-0.57-1.48-0.06-2.25,0.19l0.12-0.42
		c-0.65,0.53-0.67,0.68-1.59,0.83c-0.22-0.05-0.19-0.33,0.1-0.23c-0.72-0.22-0.56,0.4-1.43,0.17l0.33-0.27
		c-0.74-0.03-0.68,0.11-1.09,0.42c-0.47,0.17-1.4-0.11-1.51-0.48c-0.1,0.23-0.51,0.54-0.94,0.43c-0.06-0.14,0.1-0.23,0.18-0.27
		c-1.24-0.28-1.84,0.49-2.69,0.08c-0.02-0.14-0.07-0.21-0.14-0.25c0.98,0.01,1.78,0.03,1.7,0.06c0-0.39-0.79-0.45-0.16-0.99
		c-0.64,0.29-1.73,0.92-2.5,0.74c-0.04-0.04-0.07-0.07-0.1-0.13l0.08-0.04c-0.18-0.04-0.34,0-0.49,0.06
		c-0.25-0.06-0.4-0.11-0.64-0.12c-0.09-0.32-0.91-0.17-1.31-0.19c0.03,0.42-0.49,0.35,0,0.7c-0.06-0.03,0.07-0.05,0.34-0.07
		c0.06-0.01,0.13-0.02,0.17-0.04c-0.01,0.01-0.02,0.02-0.03,0.04c0.26-0.01,0.6-0.02,0.98-0.03c-0.31,0.21-0.64,0.39-1.08,0.16
		c-0.2,0.27-0.43,0.55-0.55,0.68c-0.54-0.59-1.59-0.91-1.73-1.27c-1.21,0.24-2.85,0.16-3.61,0.95c-0.34,0.1-0.4-0.23-0.52-0.35
		c0.2-0.08,0.43-0.07,0.54-0.18c-0.69,0.2-2.04,0.08-2.2,0.63c-0.87-0.25,0.49-0.51-0.7-0.42l0.16-0.17
		c-2.34-0.88-3.81,1.41-6.41,0.28c0.18,0.07,0.27,0.1,0.31,0.19c-2.96-0.5-6.1,0.47-9.03-0.32c-0.83-0.16-0.92,0.19-1.43,0.46
		l-0.18-0.45l-0.87,0.52c-1.23,0.38-2.13-1.11-3.69-0.39l0.2,0.31c-0.56-0.06-1.77,0.18-1.68-0.17c-0.06,0.06-0.18,0.32-0.4,0.16
		l-0.02-0.24l-1.37,0.41c-1.06-0.17,0.17-0.94-1.39-0.99c-0.58,0.09-1.64,0.69-1.43,0.85c0.23,0.01,0.6,0.15,0.61,0.39l-0.53,0.12
		c-0.1,0.7-0.5,1.41,0.79,1.9l0.9-0.43l0.29,0.34l-0.76,0.02c0.43,0.32,0.7,0.04,1.01-0.16c0.07,0.18,0.2,0.31,0.38,0.37l0.89-0.67
		c0.11,0.27-0.4,0.54,0.2,0.69c0.42-0.31-0.4-0.61,0.29-0.82c0.43,0.32,0.31,0.58,0.81,0.31c0.07,0.18-0.04,0.29-0.24,0.37
		c0.45-0.22,1.19-0.09,1.43-0.46c0.45,0.39,1.52-0.1,1.48,0.56c0.14-0.16,0.8-0.52,1.21-0.55c-0.76,0.79,1.55,0.05,1.35,0.9
		c0.56-0.71,2.03-0.32,3.02-0.71c-0.06,0.06-0.16,0.17-0.25,0.13c0.56,0.06,0.72,0.27,1.08,0.41c0.07-0.59,0.94-0.72,1.41-1.08
		c0.69,0.57-0.42,0.69-0.2,1.23c-0.03-0.48,1.19-0.48,0.96-0.87c0.52,0.35,0.45,0.17,0.72,0.66c0.09-0.74,0.49-0.12,0.92-0.58
		c0.76,0.36,0.2,0.69,1.03,0.46C89.66,39.09,88.92,39.35,88.92,39.35z M108.73,38.08C108.73,38.08,108.73,38.09,108.73,38.08
		c-0.17,0.02-0.32,0.03-0.41,0.03C108.41,38.11,108.53,38.1,108.73,38.08z M110.4,38.07c-0.2-0.02-0.46-0.02-0.72-0.02
		c-0.06-0.15,0-0.3,0.17-0.29C109.76,37.87,110.15,37.95,110.4,38.07z M106.87,35.15c0.26-0.06,0.35,0.02,0.39,0.11
		c-0.12,0.01-0.27,0.02-0.46,0.05c-0.01,0.02-0.02,0.03-0.03,0.05C106.8,35.28,106.82,35.21,106.87,35.15z"/>
	<path class="st1" d="M106.4,35.7c-0.04,0.01-0.06,0.03-0.11,0.03c0.05,0.04,0.11,0.07,0.16,0.09c0.03-0.04,0.06-0.09,0.09-0.13
		C106.49,35.7,106.45,35.7,106.4,35.7z"/>
	<path class="st1" d="M257.33,36.33l-0.04-0.01c0.03,0.02,0.06,0.03,0.07,0.06C257.34,36.36,257.34,36.35,257.33,36.33z"/>
	<polygon class="st1" points="133.39,38.88 133.38,38.77 133.24,38.87 	"/>
	<path class="st1" d="M266.49,37.78c0.02,0.04,0.05,0.08,0.12,0.11C266.61,37.86,266.56,37.82,266.49,37.78z"/>
	<path class="st1" d="M270.46,37.87l0.56,0.15C270.77,37.94,270.6,37.9,270.46,37.87z"/>
	<path class="st1" d="M273.5,38.08c0.04-0.07,0.05-0.13,0.06-0.18c0,0,0,0-0.01,0L273.5,38.08z"/>
	<path class="st1" d="M225.08,38.58c-0.04,0-0.08,0.01-0.12,0.02C224.69,38.68,224.87,38.64,225.08,38.58z"/>
	<path class="st1" d="M239.49,37.59c-0.15,0.08-0.3,0.15-0.46,0.2C239.28,37.82,239.48,37.83,239.49,37.59z"/>
	<path class="st1" d="M208.99,39.08C208.99,39.08,208.99,39.08,208.99,39.08c-0.03-0.01-0.06-0.01-0.1-0.01L208.99,39.08z"/>
	<path class="st1" d="M238.36,37.78c0.26,0.08,0.47,0.07,0.67,0.01C238.82,37.76,238.57,37.72,238.36,37.78z"/>
	<path class="st1" d="M286.7,38.27l0.15,0.02c0-0.03,0.01-0.05,0.02-0.07L286.7,38.27z"/>
	<path class="st1" d="M286.87,38.22l0.16-0.05C286.95,38.17,286.89,38.17,286.87,38.22z"/>
	<path class="st1" d="M287.37,38.07l-0.34,0.11C287.15,38.17,287.29,38.19,287.37,38.07z"/>
	<path class="st1" d="M282.67,38.08l-0.05,0.15C282.65,38.2,282.66,38.15,282.67,38.08z"/>
	<path class="st1" d="M281.44,38.12c0.29,0.03,0.73,0.33,1.14,0.23l0.04-0.12C282.43,38.46,281.72,37.86,281.44,38.12z"/>
	<path class="st1" d="M276.33,36.23l1.03,0.12c-0.18-0.16-0.42-0.38,0.05-0.42C276.11,35.45,277.68,36.3,276.33,36.23z"/>
	<path class="st1" d="M273.15,35.99c0.55-0.08-0.01-0.24,0.02-0.33C272.82,35.81,272.74,35.85,273.15,35.99z"/>
	<path class="st1" d="M250.14,35.99l0.06-0.38C249.77,35.66,250.19,35.76,250.14,35.99z"/>
	<polygon class="st1" points="245.75,37.98 246.16,38.21 246.36,37.86 	"/>
	<polygon class="st1" points="243.15,35.24 243.33,35.19 242.62,35.33 	"/>
	<path class="st1" d="M204.51,35.38l0.13,0.47C204.93,35.77,204.99,35.24,204.51,35.38z"/>
	<path class="st1" d="M187.83,35.86c-0.18-0.24-0.65-0.39-0.94-0.16C187.27,35.74,187.64,35.92,187.83,35.86z"/>
	<polygon class="st1" points="137.81,35.09 138.15,34.93 137.51,35.06 	"/>
</g>
</svg>
