<?xml version="1.0" encoding="UTF-8"?>
<svg width="34px" height="34px" viewBox="0 0 34 34" version="1.1" xmlns="http://www.w3.org/2000/svg" xmlns:xlink="http://www.w3.org/1999/xlink">
    <!-- Generator: Sketch 41.2 (35397) - http://www.bohemiancoding.com/sketch -->
    <title>Shape</title>
    <desc>Created with Sketch.</desc>
    <defs></defs>
    <g id="Page-1" stroke="none" stroke-width="1" fill="none" fill-rule="evenodd">
        <g id="Desktop-HD" transform="translate(-1072.000000, -6848.000000)" fill="#5FBF84">
            <g id="Group-21" transform="translate(1072.000000, 6789.000000)">
                <path d="M17,59 C7.62623862,59 0,66.6262386 0,76 C0,85.3730766 7.62623862,93 17,93 C26.3730766,93 34,85.3730766 34,76 C34,66.6262386 26.3744461,59 17,59 Z M21.2277451,76.5984855 L18.4619753,76.5984855 L18.4619753,86.4563764 L14.363651,86.4563764 L14.363651,76.5984855 L12.4154918,76.5984855 L12.4154918,73.1143962 L14.363651,73.1143962 L14.363651,70.8608314 C14.363651,69.246838 15.1305889,66.7248449 18.4996375,66.7248449 L21.5365746,66.7364859 L21.5365746,70.1185451 L19.3323129,70.1185451 C18.9734955,70.1185451 18.4633449,70.2979538 18.4633449,71.0676307 L18.4633449,73.115081 L21.5858777,73.115081 L21.2277451,76.5984855 Z" id="Shape"></path>
            </g>
        </g>
    </g>
</svg>