<?xml version="1.0" encoding="utf-8"?>
<!-- Generator: Adobe Illustrator 21.0.2, SVG Export Plug-In . SVG Version: 6.00 Build 0)  -->
<svg version="1.1" id="Calque_1" xmlns="http://www.w3.org/2000/svg" xmlns:xlink="http://www.w3.org/1999/xlink" x="0px" y="0px"
	 viewBox="0 0 46.96 70" style="enable-background:new 0 0 46.96 70;" xml:space="preserve">
<style type="text/css">
	.st0{fill:#60A2D8;}
	.st1{fill:#74AEDD;}
</style>
<g>
	<path class="st0" d="M23.96,7.04c-2.21,12-4.43,24.01-6.64,36.01c-1.29,7-0.74,16.85,6.29,17.99c4.41,0.72,8.48-3.26,9.51-7.61
		c1.03-4.35-0.15-8.88-1.32-13.2C29.14,30.5,26.48,20.75,23.82,11"/>
	<g>
		<g>
			<g>
				<g>
					<path class="st1" d="M24.78,10.74c-0.14-0.02-0.41,0.09-0.31,0.23l0.51-0.02L24.78,10.74z"/>
					<path class="st1" d="M24.19,12.06c0.28,0.13,0.75,0.23,1.16-0.01c-0.51-0.06-0.33-0.16-0.93-0.21
						c-0.1-0.15,0.08-0.32,0.26-0.34c-0.14-0.02,0.04-0.28-0.29-0.28c-0.31,0.31-0.26,0.58,0.13,0.77
						C24.42,12.08,24.28,12.05,24.19,12.06z"/>
					<path class="st1" d="M27.73,27.97l0.03-0.12C27.73,27.89,27.72,27.93,27.73,27.97z"/>
					<path class="st1" d="M30.12,37.77c-0.03-0.07-0.09-0.09-0.13-0.08C30.03,37.75,30.08,37.8,30.12,37.77z"/>
					<path class="st1" d="M30.04,39.57c0-0.04,0-0.07,0.01-0.11C30.01,39.52,30,39.56,30.04,39.57z"/>
					<path class="st1" d="M27.73,27.97l-0.08,0.3C27.81,28.24,27.73,28.1,27.73,27.97z"/>
					<path class="st1" d="M25.94,13.91c-0.04-0.05-0.1-0.08-0.16-0.11c0.03,0.04,0.06,0.08,0.09,0.12
						C25.89,13.92,25.91,13.92,25.94,13.91z"/>
					<path class="st1" d="M26.17,23.79l-0.02-0.08c-0.06-0.01-0.13-0.01-0.21-0.01L26.17,23.79z"/>
					<path class="st1" d="M25.2,20.51c0,0.08,0.42-0.01,0.6-0.03c-0.18,0-0.27-0.03-0.32-0.09C25.4,20.42,25.31,20.46,25.2,20.51z"
						/>
					<path class="st1" d="M24.49,15.1l-0.08-0.08C24.43,15.04,24.46,15.08,24.49,15.1z"/>
					<path class="st1" d="M26.72,26.17c-0.06,0.02-0.11,0.05-0.14,0.07C26.64,26.22,26.68,26.2,26.72,26.17z"/>
					<path class="st1" d="M21.3,10.57c0.03,0.01,0.05,0.01,0.07,0.01C21.33,10.56,21.3,10.55,21.3,10.57z"/>
					<polygon class="st1" points="24.07,7.06 24.08,7.12 24.31,7.18 					"/>
					<path class="st1" d="M30.33,42.73c0-0.01,0-0.01,0-0.02C30.27,42.65,30.29,42.69,30.33,42.73z"/>
					<path class="st1" d="M21.12,57.91c-0.07,0.46-0.65,0.03-0.66,0.62C20.55,58.39,21.17,58.31,21.12,57.91z"/>
					<path class="st1" d="M25.91,14.01c0.02,0.04,0.03,0.09,0.04,0.13C25.94,14.08,25.93,14.04,25.91,14.01z"/>
					<path class="st1" d="M20.46,58.53L20.46,58.53l0,0.06C20.46,58.57,20.46,58.55,20.46,58.53z"/>
					<path class="st1" d="M31.7,49.41c0.07-0.02,0.13-0.04,0.18-0.07C31.84,49.35,31.79,49.36,31.7,49.41z"/>
					<path class="st1" d="M31.58,44.28l-0.03,0.14C31.58,44.36,31.59,44.32,31.58,44.28z"/>
					<path class="st1" d="M32.16,51.99c-0.04,0.06-0.1,0.07-0.06,0.17c0.02-0.01,0.04-0.01,0.05-0.02
						C32.1,52.11,32.08,52.06,32.16,51.99z"/>
					<path class="st1" d="M31.5,54.53c0.03,0,0.06-0.01,0.1-0.01l0.01-0.09L31.5,54.53z"/>
					<path class="st1" d="M19.89,19.34c0.13-0.04,0.26-0.06,0.4-0.06C19.98,19.27,19.95,18.83,19.89,19.34z"/>
					<path class="st1" d="M25.71,13.98c0.11-0.01,0.16,0,0.2,0.04c-0.01-0.03-0.03-0.06-0.05-0.09
						C25.8,13.93,25.74,13.95,25.71,13.98z"/>
					<path class="st1" d="M35.43,52.6c-0.05,0.17-0.09,0.34-0.15,0.51C35.36,52.97,35.4,52.79,35.43,52.6z"/>
					<path class="st1" d="M16.14,39.98l-0.03-0.11C16.09,39.9,16.1,39.94,16.14,39.98z"/>
					<path class="st1" d="M34.96,54.7c-0.17,0.05-0.28,0.13-0.37,0.21c0.02,0.03,0.04,0.06,0.08,0.09
						C34.78,54.91,34.87,54.81,34.96,54.7z"/>
					<path class="st1" d="M20.29,19.28L20.29,19.28L20.29,19.28z"/>
					<path class="st1" d="M19.86,16.09c-0.09,0.43,0.5,0.3,0.79,0.45c0.06,0.55-0.45,0.17-0.76,0.29c0.08,0.35,0.54,0.69,0.47,0.93
						c-0.09,0-0.13,0.04-0.24-0.03c0.37,0.42-0.17,1.02,0.3,1.52c-0.05,0.02-0.1,0.03-0.14,0.03c0.28-0.01,0.56,0.03,0.76,0.08
						c-0.03,0.2,0.28,0.43-0.09,0.43c0.03-0.12-0.11-0.15-0.21-0.23l0.12,0.23c-0.55,0.09-0.13-0.31-0.5-0.38
						c0.09,0.43,0.43,0.97,0.23,1.25c-0.51-0.03-0.04-0.75-0.56-0.42l0.28-0.44c-0.86,0.22,0.11-0.28-0.8-0.1
						c-0.26,0.6,0.13,0.74-0.13,1.34c0.25,0.19,0.42,0.03,0.67,0.22c0.34,0.97-1.39,0.46-0.84,1.23c0.3,0.23,0.92,0.41,0.5,0.81
						l-0.54-0.26c-0.17,0.59,0.75,0.49,0.25,1.05c-0.2-0.15-0.1-0.51-0.18-0.43c-0.52,0.33,0.27,0.35,0.21,0.66l-0.51-0.03
						c-0.04,0.66,0.19,1.43,0.15,2.16c-0.14-0.07-0.28-0.22-0.46-0.08c0.09,0.94-0.41,1.9-0.87,2.71l0.37,0.41
						c-0.02,0.08-0.22,0.11-0.29,0.01c-0.23,0.31,0.27,0.07,0.41,0.26c-0.01,0.2-0.3,0.21-0.4,0.06c0.26,0.66,0.48,1.84-0.1,2.38
						l-0.11-0.15c-0.27,0.45,0.79,0.71,0.3,1.09l-0.06-0.1c-0.38,1.02-0.2,2.27-1,2.95c0.6,0.27-0.47,1,0.39,1.22
						c-0.54,0.52-0.67,0.32-1.11,1.12c-0.08,0.22,0.48,0.44,0.52,0.74l-0.46-0.08l0.41,0.47l-0.58,0.1l0.07,0.28
						c0.05-0.1,0.25-0.19,0.37-0.15c0.13,0.45-0.5,0.94-0.74,0.91l0.21,1.04c-0.18-0.06-0.21-0.23-0.3-0.38
						c0.37,0.61-0.5,0.01-0.16,0.56c0.12-0.04,0.26,0.08,0.35,0.11c-0.32,0.19-0.42,0.71-0.37,1.17L15.17,43
						c-0.22,0.76-0.1,1.65-0.2,2.51c0.19-0.3,0.73-0.16,0.75,0.09l-0.5,0.05c0.29,0.19,0.21-0.24,0.55,0.13
						c-0.08,0.31-0.57,0.16-0.71-0.04l0.14,0.41c-0.15,0.01-0.22-0.09-0.4-0.13c0.29,0.18-0.54,0.65-0.04,0.92l-0.15,0.01
						c-0.04,0.88,0.1,1.29,0.13,2c0.42,0.01,0.33,0.29,0.68,0.5c-0.14,0.52-0.43,1.12-0.35,1.75c0.24,0.43,0.36,0.1,0.63,0.28
						c-0.39,0.07-0.27,0.7-0.59,0.4c0.18,0.76,0.17,0.98,0.68,1.88c0.13-0.13,0.18-0.26,0.32-0.23c0.1,0.16-0.08,0.42-0.26,0.43
						l-0.05-0.04c0.37,0.48,0.28,1.14,0.22,1.82c-0.07,0.67,0.01,1.35,0.53,1.62l-0.06-0.03c0.25,0.24,0.55,0.46,0.82,0.67
						c0.15,0.42-0.38-0.09-0.43,0.31c0.51,0.32,0.76,0.66,0.96,1.02c0.1,0.18,0.19,0.36,0.32,0.52c0.14,0.15,0.32,0.28,0.56,0.37
						c-0.08,0.32,0.01,0.6,0.19,0.85c0.19,0.24,0.5,0.41,0.8,0.59c0.6,0.39,1.32,0.51,1.66,1.07l0.04-0.27
						c0.33-0.14,0.23,0.28,0.4,0.38c0.04-0.2-0.19-0.3,0.01-0.4c0.54,0.06,1.05,0.18,1.57,0.32c0.54,0.09,1.09,0.21,1.67,0.25
						c1.14,0.11,2.36,0.06,3.45-0.3c0.78-0.32-0.2-1.41,0.92-1.34l0.02,0.57c0.53-0.67,1.16-1.12,1.73-1.64
						c0.59-0.5,1.12-1.08,1.36-1.81c0.04,0.14,0.15,0.23,0.06,0.34c0.5-0.02,0.7-0.94,0.44-1.09c0.15-0.17,0.25,0.1,0.46,0.06
						c0.36-0.16,0-0.91,0.39-0.88c0.07,0,0.06,0.13,0.06,0.2c-0.04-0.25,0.47-0.84,0.01-0.84c0.43-0.42,0.24-1.03,0.62-1.36
						c-0.35-0.41,0.48-0.86-0.13-1.11c0.65,0.2,0.74-0.81,0.46-1.18c0.19,0.14,0.25-0.26,0.51-0.08c0.05-0.39-0.04-0.75-0.39-0.72
						c0.88-0.64-0.56-1.41,0.49-1.77c-0.35-1.08-0.66-2.07-0.96-3.03c0.68-0.05,0.19,1.05,0.88,0.94c-0.36-0.92-1.02-1.34-1-2.25
						c0.05-0.24,0.31,0.08,0.44,0.14c-0.43-0.85-0.26-1.74-0.8-2.43c0.06-0.01,0.15,0.06,0.22,0.12c-0.06-0.15,0.02-0.38-0.28-0.29
						l0.12,0.13c-0.38,0.34-1.05-0.38-1.28-0.35c0.92,0.04,0.03-0.8,1.21-0.67c-0.08-0.09-0.25-0.17-0.45-0.1
						c0.02-0.16,0.13-0.24,0.39-0.15c-0.3-0.49-0.57-0.22-0.69-0.71c0.14-0.04,0.23,0.05,0.41,0.05c-0.35-0.17-0.69-0.34-0.68-0.78
						c0.09,0,0.19-0.08,0.22,0.04c-0.23-0.68-1.07-0.97-1-1.8c0.68,0.05,0.14-0.31,0.66-0.5l-0.27-0.36l-0.22,0.23
						c-0.09-0.36-0.57-0.56-0.47-0.92l0.29,0.2L32,36.96l-0.1,0.43c-0.38-0.28-0.67,0.22-0.65-0.29c0.08,0.08-0.09-0.36,0.18-0.63
						l0,0c-0.22-0.13-0.45-0.26-0.39-0.56c0.15-0.12,0.61-0.11,0.72-0.18c-0.5-0.05-0.35-0.8-0.89-0.89
						c0.13,0.04,0.42-0.03,0.47-0.07l-0.41-0.05c0.07-0.2,0.12-0.24,0.36-0.27c-0.07-0.51-0.64,0.34-0.51-0.32
						c0.04,0.04,0.09,0,0.17,0.08c-0.01-0.63-0.54-1.08-0.51-1.67c0.5-0.31,0.26,0.44,0.67,0.13c-0.31-0.76-1.09-1.44-1.17-2.23
						l-0.02,0.16c-0.8,0.1,0.23-0.67-0.24-0.95c0.08,0.08,0.46,0.01,0.37,0c-0.02-0.55-0.48-1.01-0.93-1.73l0.22,0.04
						c0.09-0.35-0.12-0.83-0.12-1.19c-0.22-0.04-0.24-0.24-0.5-0.05c0.85-1.32-1.13-1.78-0.44-2.93c0.03,0.11,0.24,0.21,0.22,0.12
						l-0.39-0.72c-0.32,0.15-0.17,0.16-0.39,0.39c-0.22-0.04-0.44-0.22-0.49-0.41c0.32,0.29,0.54-0.15,0.68-0.35
						c-0.1,0.05-0.22,0.03-0.32,0.07c0.49-0.56-0.69,0.12-0.44-0.54l0.18-0.02c-0.15-0.18-0.43-0.31-0.44-0.54
						c0.36-0.2,0.24,0.17,0.56,0.1c-0.11-0.3-0.9-0.41-0.59-0.8c0.14,0.1,0.2,0.29,0.34,0.39c0.37-0.43,0.25-0.43,0.26-0.68l0,0.03
						l0.06-0.58l-0.09,0.17c-1.11-0.11-0.4-0.74-1.2-1.09c0.76,0.34,0.38-0.01,0.83-0.09c0.09-0.17,0.17-0.41,0.31-0.38
						c-0.42-0.15,0.17-0.49-0.45-0.7c0.14-0.05-0.06-0.27,0.31-0.31c-0.2-0.29-0.22,0.14-0.41,0.16c-0.62-0.36,0.27-1.33-0.59-1.86
						c-0.44-0.54-0.95-0.53-1.34-1.03c0.17-0.25,0.56,0.02,0.56,0.02c0.12-0.37,0.02-0.59-0.22-0.84c0.14,0.03,0.23-0.06,0.36-0.2
						c-0.1-0.23-0.56-0.02-0.43-0.38c0.17,0.01,0.44,0.01,0.63,0.08c-0.21-0.24-0.54-0.44-0.75-0.7c0.23-0.14,0.42,0.07,0.61,0.13
						c-0.2-0.29-0.45-0.77-0.87-0.77l-0.08,0.24c-0.05-0.11,0.32-0.15,0.41-0.08c0.38,0.19-0.03,0.44-0.16,0.49l-0.15-0.18
						c-0.77,0.44,0.36,0.78,0.42,1.21l-0.65-0.01l0.61,0.29c-0.13,0.13-0.45,0.29-0.6,0.11c-0.22,0.38,0.29,0.2,0.02,0.55
						c-0.04,0.04-0.08,0.04-0.11,0.02l0.26,0.24c-0.14-0.02-0.41,0.16-0.37-0.04c-0.21,0.61,0.68,0.71,0.28,1.03L24.6,16.3
						c0.4,0.66,0.46-0.05,1.13,0.35l-0.99,0.66l0.46-0.05c0,0.08,0.01,0.23-0.17,0.25c0.38,0.19,0.18-0.1,0.51-0.02
						c-0.31,0.47,0.46,0.93-0.23,1.2c0.37,0.04,0.17-0.41,0.5-0.09c-0.73,0.31,0.25,0.4-0.01,0.82c-0.42,0.01-0.3-0.36-0.56,0.06
						c0.71,0.02,0.03,0.67,0.23,0.91c0.53-0.13,0.38,0.54,0.68,0.95c-0.18,0.02-0.05,0.95-0.13,1.43l-0.09,0.01
						c0.55-0.06,0.57,0.41,0.77,0.7c-0.32,0.07-0.46,0.05-0.65-0.09l0.08,0.3c0.19,0.02,0.31,0.09,0.42,0.27l-0.42,0.03
						c0.13,0.4,0.69,0.68,0.57,1.27c0.38-0.07,0.92-0.69,1.32-0.21c-0.19,0.07-0.53,0.19-0.65,0.07c0.04,0.04,0.21,0.12,0.15,0.24
						l-0.4-0.13c-0.08,0.28,0.32,0.05,0.34,0.24c-0.29,0.07-0.17,0.2-0.4,0.23c-0.04-0.04,0.07-0.2-0.06-0.24
						c0.01,0.23-0.09,0.53-0.29,0.67c0.16-0.06,0.38-0.1,0.46,0.04c0.13,0.4-0.31,0.23-0.39,0.51c0.23,0.04,0.09,0.36,0.52,0.25
						c0.03,0.12-0.16,0.19-0.27,0.27c0.25,0.16,0.32,0.96,0.71,0.6l0.02-0.06c0.01,0.01,0.02,0.02,0.03,0.03l0,0l0,0
						c0.61,0.57,0.15,1.49,0.51,2.11l-0.14,0.04c0.27,0.36,0.34,0.87,0.73,1.08c0.03,0.12-0.18,0.35-0.37,0.35
						c0.19,0.28,0.36,0.27,0.25,0.78c-0.33-0.24-0.19,0.17-0.27-0.27c-0.01,0.44-0.22,0.59,0.29,0.91
						c-0.41-0.05-0.38,0.43-0.22,0.59l0.19-0.35c0.11,0.2,0.13,0.4,0.15,0.6l-0.51,0.03c-0.36,0.98,1.4,1.21,0.59,2.11
						c0.4,0.13,0.12-0.51,0.56-0.42c0.04,0.4-0.55,0.98-0.51,1.1c-0.13,0.59,0.84,0.29,0.8,0.88c0.15-0.12,0.59-0.31,0.87,0.05
						c0.04,0.4-0.59,0.66-0.8,0.46c-0.04-0.09,0-0.15,0.06-0.16c-0.1-0.11-0.21-0.25-0.36-0.05l0.19,0
						c-0.12,0.24,0.04,0.75-0.28,0.71c0.24,0.24,0.32,0.05,0.35-0.19c-0.12,0.55,0.2,0.76,0.17,1.31c0.07-0.11,0.25-0.23,0.27-0.15
						c-0.01,0.79,0.41,0.23,0.62,0.71c-0.18,0.35-0.65,0.07-0.3,0.51c-0.09,0.35-0.44,0.19-0.61,0.11c0.45,0.36,0.01,0.91,0.02,1.18
						l-0.2-0.2c0.12,0.12,0.15,0.24,0.18,0.35l0.31-0.23c-0.02,0.16,0.01,0.27-0.14,0.31c0.26,0.08,0.54-0.26,0.93-0.06
						c-0.12,0.23,0.33,0.52-0.11,0.7c0.01-0.62-0.44,0.18-0.64-0.29c0.08,0.08,0.11,0.2,0.08,0.35c-0.05,0.03-0.1,0-0.14-0.03
						c-0.27,0.66,0.59,0.12,0.72,0.7c-0.28-0.01-0.46,0.25-0.38,0.33c-0.05-0.23,0.4-0.22,0.66-0.05c-0.11,0.42,0.24,0.37,0.26,0.57
						l0.04-0.24c0.28,0.02,0.29,0.21,0.43,0.45c-0.2,0.07-0.19-0.21-0.26-0.09c0.52,0.19-0.34,0.75,0.05,1.08
						c-0.14,0.22-0.49,0.11-0.58,0.3c0.42,0.38-0.27,0.54,0.08,0.95c0.33-0.19,0.24-0.2,0.64,0.08l-0.37-0.73l0.6,0.41
						c-0.03-0.24-0.3-0.46-0.27-0.61c0.33,0.19,0.24,0.18,0.51,0.01c-0.47,0.41,0.41,0.59,0.12,1.03l-0.88,0.11
						c-0.32,0.59,0.58,0.91,0.41,1.65l0.14-0.24c0.36,0.07,0.08,0.44,0.23,0.66c-0.3-0.01-0.4,0.14-0.58,0.24
						c0.22-0.02-0.02,0.5,0.58,0.57c-0.13,0.11-0.26,0.21-0.39,0.31c-0.18,0.55,0.82,0.69,0.67,1.25c-0.31-0.2-0.54,0.03-0.73-0.35
						c-0.02,0.18-0.09,0.33,0.12,0.36c-0.19,0.08,0.33,0.55,0.03,0.67c0.12,0.09,0.42,0.17,0.36,0.37
						c-0.06,0.01-0.14-0.03-0.14-0.03c0.14,0.02,0.13,0.36,0.49,0.24c-0.51,0.2-0.57,0.59-0.65,0.96c-0.06,0.38-0.17,0.75-0.61,0.83
						c-0.06,0.39-0.16,0.87-0.33,1.18c-0.07-0.06-0.13-0.07-0.07-0.12c-0.48,0.28,0.6,0.7,0.01,1.03c-0.56-0.02-0.05-0.39-0.3-0.34
						c-0.85-0.48-0.26,0.64-0.96,0.58l0.01-0.1c-0.41,0.01-0.15,0.75-0.52,1.05c0,0-0.04-0.08-0.1-0.11
						c0.13,0.56-0.23,1.12-0.53,1.5c-0.11-0.4,0.04-0.29-0.26-0.55c-0.13,0.17,0.43,0.46,0.15,0.8c-0.24-0.1-0.59-0.09-0.83-0.42
						l0.29-0.22c-0.45-0.35-0.37,0.28-0.6,0.28l-0.09-0.21c-0.43,0.31-0.18,0.86-0.78,1.04l0.12,0.14
						c-0.13,0.69-0.37-0.22-0.57,0.29L26,59.81c-0.08,0.1-0.23,0.29-0.42,0.45c-0.19,0.17-0.42,0.35-0.62,0.4
						c0.22-0.42,0.62-0.74,0.81-1.03c-0.19,0.02-0.64,0.16-0.73,0.44c0.08-0.05,0.17-0.22,0.26-0.14c-0.19,0.5-0.56,0.74-1.02,0.71
						c0.07-0.57-0.19-0.67-0.49-0.74c-0.3-0.12-0.65-0.22-0.66-0.68c-0.4,0.15-0.67-0.11-0.95-0.3c-0.27-0.23-0.44-0.57-0.77-0.74
						c-0.37,0.87-0.18-0.13-0.76,0.57c-0.19-0.1-0.23-0.17-0.2-0.23c-0.01-0.29-0.04-0.52-0.01-0.81c0.13-0.28,0.26,0.02,0.41-0.13
						c-0.18-0.36,0.2-0.38,0.25-0.73c-0.23,0.24-0.46,0.17-0.49-0.08c-0.06,0.16-0.11,0.33-0.16,0.5c-0.76-0.2,0.36-0.81-0.33-1.06
						l0.34,0.02c-0.14-0.09-0.28-0.31-0.45-0.54c-0.17-0.23-0.4-0.44-0.81-0.46c0.08-0.09,0.29-0.24,0.4-0.14
						c-0.1-0.36-0.37-0.73-0.65-1.09c-0.26-0.37-0.43-0.76-0.28-1.11l0.23,0.02c-0.09-0.13-0.48-0.18-0.27-0.41
						c0.09,0,0.23,0.03,0.23-0.05c-0.09-0.07-0.44-0.34-0.34-0.56l0.27,0.14c0.17-0.81-0.73-1.15-0.94-1.85
						c0.65-0.03,0.86-0.67,0.96-0.99l0.09,0.01c0.07-0.93-0.53-1.6-0.72-2.52c0.75-0.49,0.47-1.84,1.02-2.65
						c-0.14,0.11-0.5-0.1-0.54-0.27c0.16-0.18-0.36-0.65,0.24-0.52l-0.03,0.07c0.61-0.05,0.54-0.53,0.62-0.87l-0.77-0.2
						c1.3-0.69,0.02-2.44,1.13-2.75c-0.15-0.25-0.1-0.52-0.26-0.78l0.42,0.09c0.22-0.58,0.33-0.88,0.36-1.64l0.27,0.21
						c0.11-0.42-1.11-0.75-1.06-1.15l0.64,0c0.13-0.74,0.81-1.38,0.38-2.21c0.09,0.03,0.27,0.08,0.27,0.21
						c0.08-0.34,0.67-1.26-0.21-1.29c0.56,0.09,0.19-0.75,0.02-1.19l0.4,0.14c-0.46-0.43-0.61-0.47-0.66-0.96
						c0.07-0.1,0.35-0.04,0.21,0.09c0.28-0.33-0.34-0.36-0.03-0.77l0.23,0.22c0.1-0.37-0.04-0.37-0.31-0.64
						c-0.12-0.27,0.24-0.7,0.62-0.69c-0.22-0.09-0.48-0.36-0.33-0.56c0.15,0,0.22,0.09,0.25,0.14c0.4-0.58-0.3-1.03,0.18-1.4
						c0.14,0.02,0.21,0,0.26-0.03c-0.1,0.5-0.2,0.91-0.22,0.86c0.38,0.07,0.52-0.33,0.98,0.1c-0.23-0.38-0.74-1.05-0.49-1.42
						c0.04-0.01,0.08-0.02,0.14-0.03l0.03,0.05c0.05-0.08,0.03-0.17-0.01-0.26c0.09-0.12,0.15-0.19,0.17-0.31
						c0.32,0.01,0.26-0.44,0.31-0.64c-0.42-0.06-0.3-0.31-0.69-0.13c0.04-0.03,0.04,0.05,0.03,0.19c0.01,0.03,0.01,0.07,0.03,0.09
						l-0.03-0.02c-0.02,0.13-0.04,0.31-0.07,0.51c-0.18-0.2-0.33-0.4-0.06-0.58c-0.25-0.15-0.5-0.32-0.62-0.41
						c0.63-0.17,1.04-0.65,1.41-0.66c-0.12-0.66,0.12-1.49-0.59-2.02c-0.07-0.2,0.26-0.16,0.4-0.21c0.06,0.12,0.03,0.24,0.13,0.31
						c-0.13-0.39,0.12-1.06-0.41-1.24c0.33-0.4,0.45,0.34,0.48-0.29l0.15,0.11c1.09-1.04-1.03-2.21,0.33-3.34
						c-0.09,0.08-0.13,0.12-0.22,0.12c0.77-1.43,0.12-3.22,1.17-4.57c0.24-0.4-0.1-0.51-0.32-0.82l0.46-0.01l-0.43-0.54
						c-0.26-0.7,1.29-0.89,0.73-1.82l-0.32,0.05c0.11-0.28-0.01-0.94,0.33-0.83c-0.05-0.04-0.29-0.15-0.12-0.23l0.23,0.03
						l-0.27-0.78c0.27-0.51,0.91,0.26,1.1-0.53c-0.04-0.31-0.52-0.97-0.7-0.89c-0.03,0.12-0.2,0.28-0.44,0.24l-0.07-0.29
						c-0.68-0.18-1.34-0.51-1.95,0.06l0.33,0.54l-0.36,0.09l0.05-0.39c-0.35,0.16-0.1,0.35,0.06,0.55c-0.18,0-0.32,0.05-0.4,0.13
						l0.57,0.58c-0.28,0.01-0.5-0.3-0.7-0.02c0.27,0.27,0.64-0.09,0.78,0.3c-0.35,0.16-0.6,0.05-0.38,0.36
						c-0.18,0-0.29-0.07-0.34-0.19c0.17,0.27-0.02,0.63,0.32,0.82c-0.43,0.16-0.04,0.8-0.69,0.66c0.14,0.1,0.44,0.5,0.42,0.72
						c-0.71-0.53-0.19,0.79-1.01,0.53c0.65,0.42,0.12,1.1,0.41,1.68c-0.05-0.04-0.15-0.12-0.11-0.15c-0.11,0.28-0.34,0.32-0.5,0.48
						c0.57,0.14,0.62,0.61,0.93,0.92c-0.62,0.25-0.64-0.34-1.2-0.33c0.47,0.07,0.36,0.7,0.77,0.65c-0.39,0.21-0.21,0.2-0.71,0.25
						c0.71,0.18,0.08,0.27,0.48,0.58c-0.43,0.32-0.7-0.02-0.55,0.44C20.04,16.52,19.86,16.09,19.86,16.09z M19.23,26.49L19.23,26.49
						c0-0.09,0-0.17,0.01-0.22C19.24,26.31,19.24,26.38,19.23,26.49z M19.08,27.34c0.04-0.1,0.06-0.23,0.08-0.37
						c0.15,0,0.29,0.06,0.27,0.14C19.35,27.05,19.23,27.24,19.08,27.34z M22.29,26.06c0.03,0.15-0.06,0.18-0.14,0.18
						c0-0.07,0-0.14-0.01-0.25c-0.01-0.01-0.03-0.02-0.05-0.03C22.17,26,22.24,26.03,22.29,26.06z"/>
					<path class="st1" d="M21.79,25.72c-0.01-0.02-0.02-0.04-0.02-0.06c-0.04,0.02-0.08,0.04-0.11,0.06l0.12,0.07L21.79,25.72z"/>
					<path class="st1" d="M27.76,27.83l0,0.02c0.01-0.02,0.02-0.04,0.05-0.05C27.79,27.82,27.77,27.82,27.76,27.83z"/>
					<polygon class="st1" points="16.11,38.99 16.22,39.01 16.14,38.91 					"/>
					<path class="st1" d="M27.9,22.84c0.03-0.02,0.07-0.05,0.09-0.09C27.96,22.76,27.93,22.79,27.9,22.84z"/>
					<path class="st1" d="M27.44,20.82l0.07-0.32C27.46,20.64,27.45,20.74,27.44,20.82z"/>
					<path class="st1" d="M27.23,19.23c-0.08,0-0.13,0.01-0.18,0.02l0,0L27.23,19.23z"/>
					<path class="st1" d="M34.31,43.55c0.01,0.02,0.02,0.04,0.03,0.06C34.46,43.74,34.4,43.64,34.31,43.55z"/>
					<path class="st1" d="M31.42,36.48c0.09,0.06,0.19,0.11,0.26,0.18C31.68,36.52,31.66,36.42,31.42,36.48z"/>
					<polygon class="st1" points="35.45,52.54 35.44,52.54 35.43,52.6 					"/>
					<path class="st1" d="M31.76,37c0.05-0.15,0-0.25-0.08-0.34C31.68,36.77,31.67,36.91,31.76,37z"/>
					<path class="st1" d="M25.6,12.54l0-0.08c-0.03,0.01-0.05,0.01-0.07,0.01L25.6,12.54z"/>
					<path class="st1" d="M25.53,12.47l-0.07-0.07C25.47,12.44,25.48,12.47,25.53,12.47z"/>
					<path class="st1" d="M25.31,12.25l0.15,0.14C25.44,12.34,25.44,12.26,25.31,12.25z"/>
					<path class="st1" d="M25.97,14.62l0.15-0.02C26.09,14.6,26.04,14.6,25.97,14.62z"/>
					<path class="st1" d="M26.18,15.22c-0.01-0.16,0.21-0.45,0.07-0.63l-0.12,0.01C26.37,14.64,25.89,15.15,26.18,15.22z"/>
					<path class="st1" d="M25.06,18.29l-0.02-0.55c-0.13,0.13-0.31,0.31-0.41,0.08C24.33,18.61,24.93,17.6,25.06,18.29z"/>
					<path class="st1" d="M25.26,19.96c-0.15-0.26-0.23,0.07-0.32,0.08C25.14,20.17,25.18,20.2,25.26,19.96z"/>
					<path class="st1" d="M28.42,31.53l-0.38,0.07C28.15,31.81,28.19,31.57,28.42,31.53z"/>
					<polygon class="st1" points="30.94,33.23 31.11,32.96 30.74,32.95 					"/>
					<polygon class="st1" points="28.66,35.25 28.58,35.17 28.81,35.49 					"/>
					<path class="st1" d="M31.31,53.97l0.47,0.1C31.74,53.92,31.25,53.73,31.31,53.97z"/>
					<path class="st1" d="M26.67,59.65c-0.16-0.19-0.39-0.26-0.44-0.02C26.39,59.63,26.61,59.74,26.67,59.65z"/>
					<polygon class="st1" points="19.42,41.94 19.54,42.15 19.47,41.8 					"/>
				</g>
			</g>
		</g>
	</g>
</g>
</svg>
