<svg enable-background="new 0 0 46.96 70" viewBox="0 0 46.96 70" xmlns="http://www.w3.org/2000/svg"><path d="m23.96 7.04c-2.21 12-4.43 24.01-6.64 36.01-1.29 7-.74 16.85 6.29 17.99 4.41.72 8.48-3.26 9.51-7.61s-.15-8.88-1.32-13.2c-2.66-9.73-5.32-19.48-7.98-29.23" fill="#60a2d8"/><g fill="#74aedd"><path d="m24.78 10.74c-.14-.02-.41.09-.31.23l.51-.02z"/><path d="m24.19 12.06c.28.13.75.23 1.16-.01-.51-.06-.33-.16-.93-.21-.1-.15.08-.32.26-.34-.14-.02.04-.28-.29-.28-.31.31-.26.58.13.77-.1.09-.24.06-.33.07z"/><path d="m27.73 27.97.03-.12c-.03.04-.04.08-.03.12z"/><path d="m30.12 37.77c-.03-.07-.09-.09-.13-.08.04.06.09.11.13.08z"/><path d="m30.04 39.57c0-.04 0-.07.01-.11-.04.06-.05.1-.01.11z"/><path d="m27.73 27.97-.08.3c.16-.03.08-.17.08-.3z"/><path d="m25.94 13.91c-.04-.05-.1-.08-.16-.11.03.04.06.08.09.12.02 0 .04 0 .07-.01z"/><path d="m26.17 23.79-.02-.08c-.06-.01-.13-.01-.21-.01z"/><path d="m25.2 20.51c0 .08.42-.01.6-.03-.18 0-.27-.03-.32-.09-.08.03-.17.07-.28.12z"/><path d="m24.49 15.1-.08-.08c.02.02.05.06.08.08z"/><path d="m26.72 26.17c-.06.02-.11.05-.14.07.06-.02.1-.04.14-.07z"/><path d="m21.3 10.57c.03.01.05.01.07.01-.04-.02-.07-.03-.07-.01z"/><path d="m24.07 7.06.01.06.23.06z"/><path d="m30.33 42.73c0-.01 0-.01 0-.02-.06-.06-.04-.02 0 .02z"/><path d="m21.12 57.91c-.07.46-.65.03-.66.62.09-.14.71-.22.66-.62z"/><path d="m25.91 14.01c.02.04.03.09.04.13-.01-.06-.02-.1-.04-.13z"/><path d="m20.46 58.53v.06c0-.02 0-.04 0-.06z"/><path d="m31.7 49.41c.07-.02.13-.04.18-.07-.04.01-.09.02-.18.07z"/><path d="m31.58 44.28-.03.14c.03-.06.04-.1.03-.14z"/><path d="m32.16 51.99c-.04.06-.1.07-.06.17.02-.01.04-.01.05-.02-.05-.03-.07-.08.01-.15z"/><path d="m31.5 54.53c.03 0 .06-.01.1-.01l.01-.09z"/><path d="m19.89 19.34c.13-.04.26-.06.4-.06-.31-.01-.34-.45-.4.06z"/><path d="m25.71 13.98c.11-.01.16 0 .2.04-.01-.03-.03-.06-.05-.09-.06 0-.12.02-.15.05z"/><path d="m35.43 52.6c-.05.17-.09.34-.15.51.08-.14.12-.32.15-.51z"/><path d="m16.14 39.98-.03-.11c-.02.03-.01.07.03.11z"/><path d="m34.96 54.7c-.17.05-.28.13-.37.21.02.03.04.06.08.09.11-.09.2-.19.29-.3z"/><path d="m19.86 16.09c-.09.43.5.3.79.45.06.55-.45.17-.76.29.08.35.54.69.47.93-.09 0-.13.04-.24-.03.37.42-.17 1.02.3 1.52-.05.02-.1.03-.14.03.28-.01.56.03.76.08-.03.2.28.43-.09.43.03-.12-.11-.15-.21-.23l.12.23c-.55.09-.13-.31-.5-.38.09.43.43.97.23 1.25-.51-.03-.04-.75-.56-.42l.28-.44c-.86.22.11-.28-.8-.1-.26.6.13.74-.13 1.34.25.19.42.03.67.22.34.97-1.39.46-.84 1.23.3.23.92.41.5.81l-.54-.26c-.17.59.75.49.25 1.05-.2-.15-.1-.51-.18-.43-.52.33.27.35.21.66l-.51-.03c-.04.66.19 1.43.15 2.16-.14-.07-.28-.22-.46-.08.09.94-.41 1.9-.87 2.71l.37.41c-.02.08-.22.11-.29.01-.23.31.27.07.41.26-.01.2-.3.21-.4.06.26.66.48 1.84-.1 2.38l-.11-.15c-.27.45.79.71.3 1.09l-.06-.1c-.38 1.02-.2 2.27-1 2.95.6.27-.47 1 .39 1.22-.54.52-.67.32-1.11 1.12-.08.22.48.44.52.74l-.46-.08.41.47-.58.1.07.28c.05-.1.25-.19.37-.15.13.45-.5.94-.74.91l.21 1.04c-.18-.06-.21-.23-.3-.38.37.61-.5.01-.16.56.12-.04.26.08.35.11-.32.19-.42.71-.37 1.17l-.31-.1c-.22.76-.1 1.65-.2 2.51.19-.3.73-.16.75.09l-.5.05c.29.19.21-.24.55.13-.08.31-.57.16-.71-.04l.14.41c-.15.01-.22-.09-.4-.13.29.18-.54.65-.04.92l-.15.01c-.04.88.1 1.29.13 2 .42.01.33.29.68.5-.14.52-.43 1.12-.35 1.75.24.43.36.1.63.28-.39.07-.27.7-.59.4.18.76.17.98.68 1.88.13-.13.18-.26.32-.23.1.16-.08.42-.26.43l-.05-.04c.37.48.28 1.14.22 1.82-.07.67.01 1.35.53 1.62l-.06-.03c.25.24.55.46.82.67.15.42-.38-.09-.43.31.51.32.76.66.96 1.02.1.18.19.36.32.52.14.15.32.28.56.37-.08.32.01.6.19.85.19.24.5.41.8.59.6.39 1.32.51 1.66 1.07l.04-.27c.33-.14.23.28.4.38.04-.2-.19-.3.01-.4.54.06 1.05.18 1.57.32.54.09 1.09.21 1.67.25 1.14.11 2.36.06 3.45-.3.78-.32-.2-1.41.92-1.34l.02.57c.53-.67 1.16-1.12 1.73-1.64.59-.5 1.12-1.08 1.36-1.81.04.14.15.23.06.34.5-.02.7-.94.44-1.09.15-.17.25.1.46.06.36-.16 0-.91.39-.88.07 0 .06.13.06.2-.04-.25.47-.84.01-.84.43-.42.24-1.03.62-1.36-.35-.41.48-.86-.13-1.11.65.2.74-.81.46-1.18.19.14.25-.26.51-.08.05-.39-.04-.75-.39-.72.88-.64-.56-1.41.49-1.77-.35-1.08-.66-2.07-.96-3.03.68-.05.19 1.05.88.94-.36-.92-1.02-1.34-1-2.25.05-.24.31.08.44.14-.43-.85-.26-1.74-.8-2.43.06-.01.15.06.22.12-.06-.15.02-.38-.28-.29l.12.13c-.38.34-1.05-.38-1.28-.35.92.04.03-.8 1.21-.67-.08-.09-.25-.17-.45-.1.02-.16.13-.24.39-.15-.3-.49-.57-.22-.69-.71.14-.04.23.05.41.05-.35-.17-.69-.34-.68-.78.09 0 .19-.08.22.04-.23-.68-1.07-.97-1-1.8.68.05.14-.31.66-.5l-.27-.36-.22.23c-.09-.36-.57-.56-.47-.92l.29.2-.26-.61-.1.43c-.38-.28-.67.22-.65-.29.08.08-.09-.36.18-.63-.22-.13-.45-.26-.39-.56.15-.12.61-.11.72-.18-.5-.05-.35-.8-.89-.89.13.04.42-.03.47-.07l-.41-.05c.07-.2.12-.24.36-.27-.07-.51-.64.34-.51-.32.04.04.09 0 .17.08-.01-.63-.54-1.08-.51-1.67.5-.31.26.44.67.13-.31-.76-1.09-1.44-1.17-2.23l-.02.16c-.8.1.23-.67-.24-.95.08.08.46.01.37 0-.02-.55-.48-1.01-.93-1.73l.22.04c.09-.35-.12-.83-.12-1.19-.22-.04-.24-.24-.5-.05.85-1.32-1.13-1.78-.44-2.93.03.11.24.21.22.12l-.39-.72c-.32.15-.17.16-.39.39-.22-.04-.44-.22-.49-.41.32.29.54-.15.68-.35-.1.05-.22.03-.32.07.49-.56-.69.12-.44-.54l.18-.02c-.15-.18-.43-.31-.44-.54.36-.2.24.17.56.1-.11-.3-.9-.41-.59-.8.14.1.2.29.34.39.37-.43.25-.43.26-.68v.03l.06-.58-.09.17c-1.11-.11-.4-.74-1.2-1.09.76.34.38-.01.83-.09.09-.17.17-.41.31-.38-.42-.15.17-.49-.45-.7.14-.05-.06-.27.31-.31-.2-.29-.22.14-.41.16-.62-.36.27-1.33-.59-1.86-.44-.54-.95-.53-1.34-1.03.17-.25.56.02.56.02.12-.37.02-.59-.22-.84.14.03.23-.06.36-.2-.1-.23-.56-.02-.43-.38.17.01.44.01.63.08-.21-.24-.54-.44-.75-.7.23-.14.42.07.61.13-.2-.29-.45-.77-.87-.77l-.08.24c-.05-.11.32-.15.41-.08.38.19-.03.44-.16.49l-.15-.18c-.77.44.36.78.42 1.21l-.65-.01.61.29c-.13.13-.45.29-.6.11-.22.38.29.2.02.55-.04.04-.08.04-.11.02l.26.24c-.14-.02-.41.16-.37-.04-.21.61.68.71.28 1.03l-.06-.03c.4.66.46-.05 1.13.35l-.99.66.46-.05c0 .08.01.23-.17.25.38.19.18-.1.51-.02-.31.47.46.93-.23 1.2.37.04.17-.41.5-.09-.73.31.25.4-.01.82-.42.01-.3-.36-.56.06.71.02.03.67.23.91.53-.13.38.54.68.95-.18.02-.05.95-.13 1.43l-.09.01c.55-.06.57.41.77.7-.32.07-.46.05-.65-.09l.08.3c.19.02.31.09.42.27l-.42.03c.13.4.69.68.57 1.27.38-.07.92-.69 1.32-.21-.19.07-.53.19-.65.07.04.04.21.12.15.24l-.4-.13c-.08.28.32.05.34.24-.29.07-.17.2-.4.23-.04-.04.07-.2-.06-.24.01.23-.09.53-.29.67.16-.06.38-.1.46.04.13.4-.31.23-.39.51.23.04.09.36.52.25.03.12-.16.19-.27.27.25.16.32.96.71.6l.02-.06.03.03c.61.57.15 1.49.51 2.11l-.14.04c.27.36.34.87.73 1.08.03.12-.18.35-.37.35.19.28.36.27.25.78-.33-.24-.19.17-.27-.27-.01.44-.22.59.29.91-.41-.05-.38.43-.22.59l.19-.35c.11.2.13.4.15.6l-.51.03c-.36.98 1.4 1.21.59 2.11.4.13.12-.51.56-.42.04.4-.55.98-.51 1.1-.13.59.84.29.8.88.15-.12.59-.31.87.05.04.4-.59.66-.8.46-.04-.09 0-.15.06-.16-.1-.11-.21-.25-.36-.05h.19c-.12.24.04.75-.28.71.24.24.32.05.35-.19-.12.55.2.76.17 1.31.07-.11.25-.23.27-.15-.01.79.41.23.62.71-.18.35-.65.07-.3.51-.09.35-.44.19-.61.11.45.36.01.91.02 1.18l-.2-.2c.12.12.15.24.18.35l.31-.23c-.02.16.01.27-.14.31.26.08.54-.26.93-.06-.12.23.33.52-.11.7.01-.62-.44.18-.64-.29.08.08.11.2.08.35-.05.03-.1 0-.14-.03-.27.66.59.12.72.7-.28-.01-.46.25-.38.33-.05-.23.4-.22.66-.05-.11.42.24.37.26.57l.04-.24c.28.02.29.21.43.45-.2.07-.19-.21-.26-.09.52.19-.34.75.05 1.08-.14.22-.49.11-.58.3.42.38-.27.54.08.95.33-.19.24-.2.64.08l-.37-.73.6.41c-.03-.24-.3-.46-.27-.61.33.19.24.18.51.01-.47.41.41.59.12 1.03l-.88.11c-.32.59.58.91.41 1.65l.14-.24c.36.07.08.44.23.66-.3-.01-.4.14-.58.24.22-.02-.02.5.58.57-.13.11-.26.21-.39.31-.18.55.82.69.67 1.25-.31-.2-.54.03-.73-.35-.02.18-.09.33.12.36-.19.08.33.55.03.67.12.09.42.17.36.37-.06.01-.14-.03-.14-.03.14.02.13.36.49.24-.51.2-.57.59-.65.96-.06.38-.17.75-.61.83-.06.39-.16.87-.33 1.18-.07-.06-.13-.07-.07-.12-.48.28.6.7.01 1.03-.56-.02-.05-.39-.3-.34-.85-.48-.26.64-.96.58l.01-.1c-.41.01-.15.75-.52 1.05 0 0-.04-.08-.1-.11.13.56-.23 1.12-.53 1.5-.11-.4.04-.29-.26-.55-.13.17.43.46.15.8-.24-.1-.59-.09-.83-.42l.29-.22c-.45-.35-.37.28-.6.28l-.09-.21c-.43.31-.18.86-.78 1.04l.12.14c-.13.69-.37-.22-.57.29l-.25-.5c-.08.1-.23.29-.42.45-.19.17-.42.35-.62.4.22-.42.62-.74.81-1.03-.19.02-.64.16-.73.44.08-.05.17-.22.26-.14-.19.5-.56.74-1.02.71.07-.57-.19-.67-.49-.74-.3-.12-.65-.22-.66-.68-.4.15-.67-.11-.95-.3-.27-.23-.44-.57-.77-.74-.37.87-.18-.13-.76.57-.19-.1-.23-.17-.2-.23-.01-.29-.04-.52-.01-.81.13-.28.26.02.41-.13-.18-.36.2-.38.25-.73-.23.24-.46.17-.49-.08-.06.16-.11.33-.16.5-.76-.2.36-.81-.33-1.06l.34.02c-.14-.09-.28-.31-.45-.54s-.4-.44-.81-.46c.08-.09.29-.24.4-.14-.1-.36-.37-.73-.65-1.09-.26-.37-.43-.76-.28-1.11l.23.02c-.09-.13-.48-.18-.27-.41.09 0 .23.03.23-.05-.09-.07-.44-.34-.34-.56l.27.14c.17-.81-.73-1.15-.94-1.85.65-.03.86-.67.96-.99l.09.01c.07-.93-.53-1.6-.72-2.52.75-.49.47-1.84 1.02-2.65-.14.11-.5-.1-.54-.27.16-.18-.36-.65.24-.52l-.03.07c.61-.05.54-.53.62-.87l-.77-.2c1.3-.69.02-2.44 1.13-2.75-.15-.25-.1-.52-.26-.78l.42.09c.22-.58.33-.88.36-1.64l.27.21c.11-.42-1.11-.75-1.06-1.15h.64c.13-.74.81-1.38.38-2.21.09.03.27.08.27.21.08-.34.67-1.26-.21-1.29.56.09.19-.75.02-1.19l.4.14c-.46-.43-.61-.47-.66-.96.07-.1.35-.04.21.09.28-.33-.34-.36-.03-.77l.23.22c.1-.37-.04-.37-.31-.64-.12-.27.24-.7.62-.69-.22-.09-.48-.36-.33-.56.15 0 .22.09.25.14.4-.58-.3-1.03.18-1.4.14.02.21 0 .26-.03-.1.5-.2.91-.22.86.38.07.52-.33.98.1-.23-.38-.74-1.05-.49-1.42.04-.01.08-.02.14-.03l.03.05c.05-.08.03-.17-.01-.26.09-.12.15-.19.17-.31.32.01.26-.44.31-.64-.42-.06-.3-.31-.69-.13.04-.03.04.05.03.19.01.03.01.07.03.09l-.03-.02c-.02.13-.04.31-.07.51-.18-.2-.33-.4-.06-.58-.25-.15-.5-.32-.62-.41.63-.17 1.04-.65 1.41-.66-.12-.66.12-1.49-.59-2.02-.07-.2.26-.16.4-.21.06.12.03.24.13.31-.13-.39.12-1.06-.41-1.24.33-.4.45.34.48-.29l.15.11c1.09-1.04-1.03-2.21.33-3.34-.09.08-.13.12-.22.12.77-1.43.12-3.22 1.17-4.57.24-.4-.1-.51-.32-.82l.46-.01-.43-.54c-.26-.7 1.29-.89.73-1.82l-.32.05c.11-.28-.01-.94.33-.83-.05-.04-.29-.15-.12-.23l.23.03-.27-.78c.27-.51.91.26 1.1-.53-.04-.31-.52-.97-.7-.89-.03.12-.2.28-.44.24l-.07-.29c-.68-.18-1.34-.51-1.95.06l.33.54-.36.09.05-.39c-.35.16-.1.35.06.55-.18 0-.32.05-.4.13l.57.58c-.28.01-.5-.3-.7-.02.27.27.64-.09.78.3-.35.16-.6.05-.38.36-.18 0-.29-.07-.34-.19.17.27-.02.63.32.82-.43.16-.04.8-.69.66.14.1.44.5.42.72-.71-.53-.19.79-1.01.53.65.42.12 1.1.41 1.68-.05-.04-.15-.12-.11-.15-.11.28-.34.32-.5.48.57.14.62.61.93.92-.62.25-.64-.34-1.2-.33.47.07.36.7.77.65-.39.21-.21.2-.71.25.71.18.08.27.48.58-.43.32-.7-.02-.55.44-.21.19-.39-.24-.39-.24zm-.63 10.4c0-.09 0-.17.01-.22 0 .04 0 .11-.01.22zm-.15.85c.04-.1.06-.23.08-.37.15 0 .29.06.27.14-.08-.06-.2.13-.35.23zm3.21-1.28c.03.15-.06.18-.14.18 0-.07 0-.14-.01-.25-.01-.01-.03-.02-.05-.03.08.04.15.07.2.1z"/><path d="m21.79 25.72c-.01-.02-.02-.04-.02-.06-.04.02-.08.04-.11.06l.12.07z"/><path d="m27.76 27.83v.02c.01-.02.02-.04.05-.05-.02.02-.04.02-.05.03z"/><path d="m16.11 38.99.11.02-.08-.1z"/><path d="m27.9 22.84c.03-.02.07-.05.09-.09-.03.01-.06.04-.09.09z"/><path d="m27.44 20.82.07-.32c-.05.14-.06.24-.07.32z"/><path d="m27.23 19.23c-.08 0-.13.01-.18.02z"/><path d="m34.31 43.55c.01.02.02.04.03.06.12.13.06.03-.03-.06z"/><path d="m31.42 36.48c.09.06.19.11.26.18 0-.14-.02-.24-.26-.18z"/><path d="m35.45 52.54h-.01l-.01.06z"/><path d="m31.76 37c.05-.15 0-.25-.08-.34 0 .11-.01.25.08.34z"/><path d="m25.6 12.54v-.08c-.03.01-.05.01-.07.01z"/><path d="m25.53 12.47-.07-.07c.01.04.02.07.07.07z"/><path d="m25.31 12.25.15.14c-.02-.05-.02-.13-.15-.14z"/><path d="m25.97 14.62.15-.02c-.03 0-.08 0-.15.02z"/><path d="m26.18 15.22c-.01-.16.21-.45.07-.63l-.12.01c.24.04-.24.55.05.62z"/><path d="m25.06 18.29-.02-.55c-.13.13-.31.31-.41.08-.3.79.3-.22.43.47z"/><path d="m25.26 19.96c-.15-.26-.23.07-.32.08.2.13.24.16.32-.08z"/><path d="m28.42 31.53-.38.07c.11.21.15-.03.38-.07z"/><path d="m30.94 33.23.17-.27-.37-.01z"/><path d="m28.66 35.25-.08-.08.23.32z"/><path d="m31.31 53.97.47.1c-.04-.15-.53-.34-.47-.1z"/><path d="m26.67 59.65c-.16-.19-.39-.26-.44-.02.16 0 .38.11.44.02z"/><path d="m19.42 41.94.12.21-.07-.35z"/></g></svg>