<svg enable-background="new 0 0 63.5 65" viewBox="0 0 63.5 65" xmlns="http://www.w3.org/2000/svg"><ellipse cx="32.12" cy="32.21" fill="#f7931e" rx="29.55" ry="29.56" transform="matrix(.1744 -.9847 .9847 .1744 -5.1984 58.2209)"/><g fill="#f8a13b"><path d="m61.33 37.38c.13.3.07-.08.09-.42z"/><path d="m61.42 36.96.06-.3c-.03.08-.05.18-.06.3z"/><path d="m61.88 34.13c.11.67-.22 1.43-.05 1.87.2-.65.31-1.69.05-1.87z"/><path d="m61.64 35.1.11.09-.11-.59z"/><path d="m61.48 35.5.06-.08-.01-.9z"/><path d="m62.01 31.89.02.66c-.17.62-.21-.41-.32 0-.02.82.33.29.25 1.33.15-.08.04-1.66.27-1.49.09-.88-.14-.04-.22-.5z"/><path d="m38.43 4.32c-.03-.02-.06-.03-.08-.04.02.03.06.05.08.04z"/><path d="m28.04 4.05c-.14 0-.29.01-.43.03.05.02.1.03.18.03z"/><path d="m44.81 6.07c.13.09.25.16.36.23-.06-.07-.17-.14-.36-.23z"/><path d="m3.63 41.37c-.02-.02-.05-.03-.08-.03v.02l.09.1z"/><path d="m17.35 8.34c-.14.09-.27.18-.38.27.23-.14.33-.22.38-.27z"/><path d="m48.16 7.94c-.05-.03-.09-.06-.13-.1.04.04.09.08.15.14z"/><path d="m31.43 4.07c-.14-.02-.27-.01-.37-.01.13.01.25 0 .37.01z"/><path d="m60.44 21.86c-.05-.18-.12-.33-.2-.45.01.13.06.27.2.45z"/><path d="m58.82 18.26.01.02c.01-.03 0-.04-.01-.02z"/><path d="m57.57 16.07.03.03c0-.03 0-.05-.03-.03z"/><path d="m60.24 21.41c-.03-.34.21-.54-.25-.81l-.01.1c-.03-.26-.27-.57-.41-.83-.02.04-.02.08-.03.13.05.14.11.32.2.61.08.35.31.51.5.8z"/><path d="m38.48 4.27c.02.06.27.09 0 0z"/><path d="m41.67 4.92c-.1-.04-.2-.07-.3-.11.09.05.19.09.3.11z"/><path d="m52.05 11.34-.03-.05c-.05.02-.01.05.03.05z"/><path d="m41.09 4.71.28.1c-.08-.04-.17-.08-.28-.1z"/><path d="m49.32 8.85c-.01-.01-.03-.03-.04-.04.01.01.02.03.04.04z"/><path d="m46.7 59.52c-.22.15-.4.14-.64.23-.4.45 1.04-.52.4.02.22-.11.39-.23.53-.34l-.41-.02c-.4.29.33-.08.12.11z"/><path d="m4.37 44.52-.02-.11c-.05.11-.12.06.03.46.29.26.23-.33.66.17-.07-.1-.14-.27-.2-.43-.01.29-.25.12-.47-.09z"/><path d="m4.83 44.62v-.02c.01-.03.01-.07.01-.1-.04-.08-.07-.16-.08-.24-.02.08.01.21.07.36z"/><path d="m38.44 62.44c-.11.01-.21.02-.29.03.15.01.23 0 .29-.03z"/><path d="m16.65 5.69c.09-.09.19-.17.27-.24-.16.11-.23.18-.27.24z"/><path d="m2.66 38.65c0-.1-.01-.2-.02-.31-.01-.06-.03-.11-.04-.19z"/><path d="m14.37 54.09c-.29.04.11.11.37.44l.38.12c-.25-.23-.54-.37-.75-.56z"/><path d="m47.03 59.43c0-.01-.01-.01-.01-.02-.01.01-.01.01-.03.02z"/><path d="m24.2 59.19c.06.03.11.06.16.09-.03-.02-.08-.05-.16-.09z"/><path d="m4.04 42.37-.27-.71-.2-.73.07.45c.14.17.19.84.4.99z"/><path d="m10.2 49.65.03-.19c-1.16-.91-1.63-2.55-2.6-3.29-.36-1.77-.92-.82-1.24-2.44l-.04.08c-.99-2.44-1.73-5.06-2.04-7.7-.11-.65-.1-1.32-.16-1.97-.05-.65-.11-1.3-.07-1.95.01-.64.01-1.28.02-1.91.05-.63.1-1.25.15-1.86l.1.02c1.19-7.74 5.35-14.9 11.86-19.28.56-.46.07-.41.55-.84.24-.14.76-.48.83-.38-.42.34-.1.27-.23.41.72-.52 1.8-.89 2.44-1.37l-.66.16c.24-.2.7-.37.95-.49-.07.13.36.1.17.24 1.34-1.06 1.25-.34 2.47-1.01.12-.47 1.74-1.18 2.82-1.74.2-.04.42-.03.62-.04-.8.15.06.2-.92.45.82-.16 1.58-.36 2.37-.47-.17-.06-.15-.17.17-.27.49-.03.55.09 1.11.07-.18.05-.36.09-.53.16.38.06.68-.1 1.02-.16.13.13.95.09.82.26.73-.24 1-.2 1.8-.28-.84-.17.21-.18.12-.3-.32.02-.64 0-.95.05 1.34.07-.44.02-.32.29-.63-.06.85-.46-.21-.34.63-.13 1.01-.12 1.4-.11.39 0 .78-.02 1.44-.1-.79.03.16-.15-.26-.24 1.01.01.25.09.55.25.52.01.7.19 1.22.08.87.18-.15.16.28.31-.17.07-.76-.09-1.3-.11s-1.01.01-.9.28c-.45 0-1 .18-1.65.16.57.08 1.36.28 2.06.17l.05-.3c.53 0 .66-.2 1.04-.12-.21.06.14.23.57.26-.12-.06-.29-.07-.24-.11.79.08.93-.11 1.88-.05-.77-.17-.92-.28-1.65-.5.22-.18.53.04.96.07-.07.02-.16.01-.04.07l.48-.04c.97.21-.17.28.62.49.51.3.77.08 1.17.27-.02-.02-.05-.05-.07-.07.09.03.16.05.21.06 0-.01-.01-.01 0-.02.52.09 1.06.23 1.24.11.04.08.45.08.63.11.29.03 1.02.09 1.36.46l-.03-.01c.61.24 1.07.47.9.51.32.13.63.32.94.48l-.18.14c.89.34.85.2 1.54.28.59.35 1.64.94 2.08 1.09.06.05.16.1.33.19l-.31-.27c.64.39.63.24 1.05.51-.07-.08-.08-.09.13.1.07.05.14.11.22.18-.03 0-.12-.07-.21-.14l.04.11c.37.53.82.44 1.3.88-.05-.03-.15-.08-.2-.12.26.26.51.78.74.73.06.06.17.13.29.17l.18.2c-.07-.08-.13-.14-.18-.2.16.06.32.11.31.16l.67.64c.11.14.31.28.47.38l.06.17c.26.21.23.25.18.24.61 1.03 1.36 1.2 2.02 2.29.26.1-.02-.35 0-.42.23.06.73.59 1.02.83.21.57 1.11 2.04.69 1.99.53.89-.03-.37.33.02l.05.11c-.17-.32-.23-.62-.27-.84.09-.17.64.59.75.86l-.29-.05c.58.78.74.43 1.25.84.34.71-.06.42-.14.66.17.21.29.46.43.69l-.14.08c.27.45.46.49.74 1.17-.37-.4.36 1.04-.16.48.13.38.47.36.34.64.26.19-.05-.37-.11-.57.07-.12.21.06.34.33.12.28.24.65.36.86-.1.09-.26-.24-.13.32.13.07.33.39.34.73.14-.05.29.59.35.9-.05-.36-.17-.88.06-.71.17.24.28.47.43 1.1l-.05-.46c.38.48.09.96.37 1.68-.18-.29-.24-.49-.43-.73.17.33.47.97.7 1.5l-.12.69c.13.06.12.72.28.69.04.82-.3-.61-.43-.66.07 1.01.41.75.33 1.75l-.2-.29c.05.32.24.94.15.99.05-.01.03-.17 0-.36.35.15.34 1.46.67 1.31l-.01-.45c.12.68.38 1.17.3 1.71-.08.41-.25-.28-.35-.51.01.65.45.51.39 1.3.06-.41.18-.34.26-.09.05-.46 0-1.42-.12-1.24l-.02.17c-.09-.04-.14-.28-.19-.4-.05-.62.13-.3.18-.43-.03-1.04-.34-.06-.4-1l.05-.13c-.12-.44-.29-1.13-.5-1.22.14-.44-.27-1.03-.22-1.49.45-.18.25 1.58.6 2.06.01-.5.28.25.41.44l-.47-1.52c.04-.13.19-.63-.03-.88l.01.12c-.17-.6-.3-.4-.38-.93.02-.09.14.05.18.08-.09-.49-.22-.37-.35-.68-.09-.49.25.19.19-.22-.33-.51-.21-.89-.35-1.37-.15.26-1.02-1.74-.86-.66l-.6-1.03c0-.4.64.62.74.24l.34.89c.25-.26-.92-1.78-.81-2.51-.22-.46-.2-.33-.49-1.27l-.18.24c-.16-.48-.09-.7-.06-.74-.15-.26-.26-.5-.38-.75.07.04.15.12.25.27-.03-.42-.13-.49-.28-.56-.17-.14-.33-.41-.5-.68l.25.18c-.12-.15-.28-.34-.34-.33-.07-.11-.14-.21-.22-.3 0 .1-.03.37.14.79-.53-1.04-1.02-1.8-1.47-2.72.09-.02.44.25.37.14-.27-.43-.73-.77-.8-.65-.07-.09-.13-.15-.18-.21 0-.12-.01-.26-.15-.46-.01-.06-.05-.15-.15-.29-.26 0-.85-.76-1.07-.84.14.18.33.38.53.58-.4-.19-.77-.33-.89-.64.62.44-.37-.75.45.03-.33-.79-.44-.16-.94-.84l-.29-.48c.18-.06.67.58.62.44l-.28-.26c.35.19 1.28 1.28 2.01 1.82-.36-.48-.76-.92-1.14-1.38-1.63-1.54-3.73-3.44-5.5-4.21l.07.04c-.04-.01-.07.01-.12.05l-.05-.09c-.12-.04-.25-.07-.38-.1-.28-.35-.95-.78-1.48-1.23.32.31.32.31.29.44-.16.11-.25.14-.76-.23.05-.11.39.09.03-.23.18.17-.05.14-.29.02-.26-.26-.81-.49-.76-.61.16.04.27.13.36.19.17.04-.56-.38-.07-.26l-.6-.24c-.3-.25.3-.04.19-.16-1.03-.35-1.61-.39-2.56-.61.07-.05.17-.3.13-.23-.68-.32-1.61-.23-2.41-.48.14-.04.43.09.68.14-.6-.26-1.2-.41-1.78-.55-.58-.15-1.15-.31-1.71-.45-1.14-.23-2.25-.45-3.47-.69l-.62.27-.63-.2c-.64-.05-1.25-.12-1.84-.1-.59.04-1.15.09-1.71.15-1.12.07-2.2.39-3.39.63-.74.16-.49-.13-.86-.11-.81.21-1.3.42-1.77.64-.48.22-.94.44-1.65.77.17-.16.44-.52-.2-.28-.09.12-.12.27-.55.38l.17-.16c-.42.03-.73.27-1.52.53-1.29.68-2.48 1.41-3.29 2.35-1.09.65-.05-.33-.28-.25.82-.39.51-.38.62-.57-.37.32-.83.67-1.15.64-.55.38-.85.49-1.28 1.02.22-.26.51-.34.32-.08-.47.28-1.52 1.18-1.62.94-2.43 2.02-4.91 4.62-6.73 7.5-.18.57.26-.35.17-.03-.27.81-.4.52-.62 1.17l.02-.31c-.52.85-.84 1.87-1.08 2.81-.07-.21-.44.66-.2-.1-.17.43-1.04.68-1.06 1.07l.82-.23c.05.05-.26.63-.19.58-.31.31-.58.75-.68 1.01-.19.08.05-.6.21-.95-.26-.17-.6 1.19-.65.56-.23.82.17-.07.1.45l-.29.68.27-.51c-.12.61.01.87-.4 1.6-.02.29.02.59.04.89-.23.03-.18.59-.32 1l-.07-.3c-.12.57-.21.77-.37 1.11-.11-.36.16-.5.02-.68l-.21.61c.12.02.12.43.3 0 .08.62.22.96.02 2.41-.29.63-.1-.73-.33-.48-.28 1.52.28 1.9.26 2.78-.12 1.12.07 1.06.06 2.19-.16-.36-.1.8-.21 1.02l-.18-.44c.07.35.04.69-.07.59.2-.08.26 1.48.48 2.25l.14-.16c.16.6.41 1.41.48 2.06.21.94.36.68.71 1.35-.03.43-.21.43-.42.35.01-.27-.15-.68-.22-1.1-.34-1.17-.9-2.06-.96-3.3-.22-.25-.19-.04-.12.31.08.35.26.82.24 1.12-.03-.01-.04-.06-.05-.1.01.05.01.1.01.15-.12-.43-.33-1.14-.51-1.24.13.74.47.48.46 1.42.22.66.01 1.27.06 1.69.25.42.58.36.82 1.45l-.35-.42c.34 1.23.48.49.78 1.62-.09-.4.32.32.11-.43.19.34.52 1.12.69 1.72.09.14.08 0 .16.01-.09-.7-.57-.96-.5-1.58l-.36-.39c-.09-.65.08-.76.27-.41-.06-.17-.13-.31-.13-.45.32-.2.08.78.44.9l-.15-.43c.19-.26.44.96.67 1.49.13.64.31 1.22.17 1.33l-.39-.8c.04.48.48 1.03.66 1.51-.01.04-.01.09 0 .16 0-.03.01-.05.03-.06.03.11.05.2.05.29.2.41.59.96.73 1.36l.11-.12-.1-.01c-.18-.37-.35-.91-.11-.68.51.78.33 1.08.32 1.34-.3-.08-.41-.82-.69-1.21-.08.36.41.86.71 1.8-.4-.23-.51-1.01-.81-1.1.33.72.54.84.92 1.58-.18-.02-.56-.73-.66-.62.06.17.11.35.18.51-.62-1.17-.17.36-.7-.53.13.49.47.52.72 1.19-.01-.22-.13-.79.31-.28l.36.66c.06.33-.65-.52-.47-.05l.5.63c.05-.06-.12-.4.09-.26.17.43.64.47 1.01.85.25.34.44.61.46.78.41.35.82.8 1.22 1.23.4.44.86.79 1.26 1.08-.56-.38-.17.19.02.56-.55-.54-.73-.38-.8-.24.34.33.73.39.63.16.47.64.49.28.84.89.25.38-.32.01-.27.18.61.6.37-.05 1.01.61-.06-.01-.13-.06-.1.02.34.37.82.64.97.62.1.29.38.53.61.72.24.17.43.28.29.37 1.03.64-.05-.24.21-.18.48.18 1.15.8 1.35 1-.24-.17-.51-.26-.72-.46l.08.32c1.15 1 1.01.2 2.16 1.07-.7-.28-.3.01-.69-.05.22.07 1.18.69.66.21.46.29.77.51 1.08.73.45.19.95.35 1.27.34.68.33 1.13.7 1.43.93.75.3 1.49.5 2.22.79.37.13.74.27 1.12.4.38.12.79.18 1.21.24l-.12-.04c1.26.33-.49-.4.82-.09-.23.21.75.35 1.16.58.81.2 1.54.22 2.24.28.35.02.7.05 1.05.09.36.01.72.03 1.1.08-.01.05-.12.11-.42.11.59.05 1.12.07 1.64.09.27.01.53.01.78.01.26-.02.52-.04.78-.06l-.04.03c.86.03 1.68-.02 2.49-.16.81-.19 1.61-.41 2.47-.59-.13.06-.15.16-.25.21.89-.08 2.27-.51 2.81-.87 1.1-.04.64-.29 2-.53.09.01-.11.09-.19.13.66-.17 1.1-.36 1.74-.59.64-.41 1-.73 1.4-1.03.39-.32.86-.55 1.6-.99.26.26-.86.64-.77.87.29-.2.5-.43.95-.61-.18.27-.01.11-.11.32.36-.12 1.07-1.1 1.08-1.07-.02-.07-.15-.03-.43.16.23-.39 1.44-.9 2.03-1.52-.22.16-.93.63-.78.3.93-.62 1.02-1.11 1.54-1.69.9-.5-.41.68-.11.76.19-.04.64-.14.36.2.8-.51 1.12-1.17 1.69-1.76l.03.07c.86-.79 1.44-1.93 2.18-2.57l-.4.33c.09-.17.49-.59.59-.92.07.11.63-.41.51-.11.01-.65 1.38-2.25 1.38-2.92.23-.21.23.08.26.2-.41.6-.64.73-.74 1.13.35-.49.68-.8.7-.68.15-.63.77-1.93.72-2.29.32-.32.58-.66.67-.44.68-1.72-.89.56-.03-1.31.56-.78-.16.94.44-.21l-.07.23c.84-.66-.04-.75.41-1.7.31-.03-.13.75.35.15.27-.95.02-1.48.41-2.37l.06.18c.22-.58.53-1.75.64-2.35.06-.02.03.07.02.19.35-1.1-.03-.49.36-1.37l-.07-.29c-.2.44-.52 1.29-.51 1.91-.02-.61-.53.82-.69.47l.06.14c-.8 1.35-1.45 3.17-2.43 4.81-.06.3-.15.57-.26.81-.13.23-.27.45-.42.66-.3.43-.6.86-.84 1.47.16.34-.06.25-.66 1.18.31-.5-.15-.19-.4.08-.06.22-.19.45-.32.68-.12.05-.39.35-.72.64-.33.3-.64.64-.73.9-.51.43.03-.18.08-.33-.3.1-.26.49-.49.58 0 0-.02-.03.02-.09-.64.79-1.17 1.12-1.96 1.82.13.27-.66.83-.98 1.17.06-.17-.54.28-.82.41l-.31.53c-.34.5-.69.39-1.25.85l.18-.05c-.41.35-1.68.97-2.21 1.07-2.02 1.4-3.84 2.08-5.73 2.47-.95.19-1.89.41-2.94.49-.52.06-1.06.14-1.62.23-.57.03-1.17.08-1.8.15-.33.12.25.14 0 .29-.52.07-.64.08-1.12.1.42.07.35-.04.3.05l.73-.14c.04.02-.04.03.03.07.24-.05.53-.13.84-.14-.44.11-.56.35-1.18.31.05-.03.13-.05.29-.08-.51.02-.53.14-.92.1-.47-.06-.36.01-.42-.09l-1.46-.16c-.37.12-.78.14-1.12.06s-.61-.18-.73-.21c.18-.19.96.08 1.33-.14-.17-.06-.34-.1-.51-.17l-.04.16-.73-.14.04-.03c-.09.05-.19.1-.37.02-.03-.03-.1-.08-.01-.08l-.54.02c.33-.13-.45-.11-.35-.29-.85-.12-1.38-.23-1.9-.29-.51-.07-1.01-.16-1.71-.46.21.17-.54.14-.97-.05-.24-.13-.29-.19-.11-.21l-.61-.1c-.31-.27-.66-.4-1.05-.55-.38-.18-.81-.35-1.3-.63l.09-.05c-.41-.09-.87-.18-1.4-.49l.18-.09c-.59-.49-.67.02-1.34-.5-.09.16.33.51.32.7-.08-.26-.86-.74-.74-.52-.77-.36-.51-.3-.55-.37-.16-.06-.33-.09-.48-.17-.48-.36-.02-.31.21-.27-.56-.16-.97-.63-1.46-1.02l.25.08-.65-.51c-.53-.2-1.08-.72-1.55-1.23l.52.14c-.28-.41-.24-.1-.36-.16-.65-.43-.68-.64-.86-1.02-1.05-.73-1.45-1.98-2.32-2.6zm41.7-38.59-.06-.1c.22.14.36.22.06.1zm-5.53-4.12c.77.34.48.3.5.39-.68-.46-1.09-.66-1.71-1.04.08.09.08.16.09.21-.26-.13-.5-.3-.53-.45.47-.11 1.9 1.19 1.65.89zm11.97 10.25c-.03-.02-.07-.04-.1-.06zm-2.58-3.42c0-.08-.04-.18-.1-.3-.01.11 0 .2.1.3zm-5.91-6.11c-.1-.2-.49-.44-.77-.61.12.1.32.28.77.61zm-45.4 12.5c.07-.25.18-.74-.07-.36-.01.23-.32.55-.27.77-.02.02-.02.02-.03.04.19-.21.34-.38.37-.45zm.95 24.26c-.11 0-.29-.12-.31.02-.01-.02-.02-.05-.02-.07 0 .07 0 .13-.05.09.07.19.15.39.24.51.33-.08.56.27.14-.55z"/><path d="m1.76 36.74c.02.1.04.17.05.24-.01-.07-.03-.14-.05-.24z"/><path d="m5.25 44.93c.03.01-.05-.22-.15-.5-.01.07.02.21.15.5z"/><path d="m61.19 30.53-.05-.24-.06.49c.18.8.28.84.45 1.04-.12-.73-.14-1.17-.24-2.1z"/><path d="m62.23 30.05c.04-.09.13-.31.13-.43l-.11-.12z"/><path d="m60.36 20.25.21.78c.17.22-.03-.72-.21-.78z"/><path d="m59.92 24.11.21.36c-.02-.37-.16-.84-.29-.88.2.44-.03.13.08.52z"/><path d="m59.45 18.28c-.28-.14-.29-.76-.52-.82.14.16.33.88.52.82z"/><path d="m58.05 19.6c-.06.3.28.58.44 1.03-.16-.36-.26-.94-.44-1.03z"/><path d="m56.79 14.87c.15-.05.31.24.49.58-.1-.08-.2-.12-.31-.25.42.47.43.52.75.91-.19-.48-.54-1.16-.36-1.18-.29-.26-.76-.49-.57-.06z"/><path d="m57.51 18.57c.13.38.13.66.35 1.08.05-.12.1-.32-.17-.81l.23.11c-.13-.53-.09.27-.41-.38z"/><path d="m55.67 12.82.1.25c.46.39.88 1.03 1.25 1.18-.45-.58-1.07-1.23-1.35-1.43z"/><path d="m56.77 16.72-.23.06c.27.49.04-.07.19.07.06.15.17.36.27.44-.37-.52.13-.13-.23-.57z"/><path d="m55.54 15.32-.52-.51.14.59c.59.61.15-.05.38-.08z"/><path d="m55.12 14.53-.02-.09-.92-.65c.51.42.51.47.94.74z"/><path d="m45.75 4.93c-.16.03.39.42.18.2.15-.02-.6-.5-.18-.2z"/><path d="m47.17 7.79c-.23-.22-1.16-.6-1.57-.76.48.22 1.57.91 1.57.76z"/><path d="m45.44 6.97c.03.01.09.04.17.07-.08-.04-.13-.06-.17-.07z"/><path d="m27.78 4.52c-.04.01-.09.03-.12.05.04-.02.07-.03.12-.05z"/><path d="m28.19 4.39c.29-.04.86-.13.95-.24-.45.07-.85.16-1.36.37.2-.05.45-.02.41-.13z"/><path d="m24.15 5.23c.19-.12.48-.17.39-.24-.14 0-.55.22-.39.24z"/><path d="m2.47 23.31c-.2.4-.21.66-.05.59.13-.48-.02-.24.05-.59z"/><path d="m2.32 24.45-.08.04-.17.25z"/><path d="m1.5 27.36c-.02-.03-.03-.11-.04-.19 0 .17 0 .32.04.19z"/><path d="m1.47 27.08v.09c0-.03 0-.06 0-.09z"/><path d="m1.54 26.89-.07-.05v.24c0-.08.02-.17.07-.19z"/><path d="m1.36 28.26.28-.54c-.03-.61-.19.66-.35.04z"/><path d="m1.21 30.26c-.08.55.23 1.35-.03 1.66.11 1.55.4-.35.51 1.4.12-1.66-.48-.84-.32-2.33-.17.72-.11-.49-.16-.73z"/><path d="m1.64 30.02c-.12-.1-.15.59-.07.81.01-.19.2-.53.07-.81z"/><path d="m1.27 33.3-.06.48.09.12z"/><path d="m1.36 35.1-.18-.45c.06.15.11.85.18.45z"/><path d="m1.52 37.62c.03.44.43.77.2-.13l.02.21c-.06-.04-.1.47-.22-.08z"/><path d="m3.57 43.06c-.1-.28-.27-.59-.31-.51l.36.74z"/><path d="m4.3 42.66c.1-.32-.3-.68-.4-1.2.16.57.12.51.4 1.2z"/><path d="m3.64 44.04c-.16-.17-.23-.52-.29-.71-.08.13.15.65.29.71z"/><path d="m4.22 45.21c.04.27-.13 0-.09.2.17.56.46 1.1.71 1.33.01-.18.13-.47.33-.31-.47-.77-1.03-1.03-.97-1.55-.23-.17-.42-.37-.63-.56.22.71.45.42.65.89z"/><path d="m4.14 43.25.06.49c.07-.13.22.2.35.42.2-.22-.3-.66-.41-.91z"/><path d="m6.86 49.53c.19.29.44.53.66.8l-.19-.28c-.16-.16-.33-.33-.47-.52z"/><path d="m7.18 50.12-.04.07.59.54z"/><path d="m7.77 51.04-.06-.11-.43-.44z"/><path d="m9.12 52.75-.05-.21c-.21-.17-.46-.65-.53-.52.16.16.54.55.58.73z"/><path d="m16.11 55.2c-.18-.04-.14.07-.09.19h.33c-.07-.04-.21-.12-.24-.19z"/><path d="m16.89 56.11.73.17c-.69-.43-.88-.34-1.47-.74.21.23.63.37.93.59z"/><path d="m30.28 60.65c-.07.13.09.14-.45.18.74-.03 1.37-.01 2.2 0-.14-.09.48-.23.16-.2l-.93.06.14-.09c-.64-.12-.42.14-1.12.05z"/><path d="m60.54 41.67c.03.11.13.02.23-.08.11-.58-.26.2-.23.08z"/></g><path d="m31.78 59.38c-1.59 0-3.19-.14-4.77-.42-14.75-2.61-24.62-16.74-22.01-31.49 2.3-13 13.54-22.43 26.72-22.43 1.59 0 3.19.14 4.77.42 7.14 1.27 13.37 5.24 17.53 11.18 4.16 5.95 5.75 13.16 4.48 20.3-2.31 13.01-13.54 22.44-26.72 22.44zm-.06-52.73c-12.39 0-22.96 8.87-25.13 21.1-2.46 13.88 6.83 27.16 20.7 29.62 1.49.26 2.99.4 4.49.4 12.4 0 22.96-8.87 25.13-21.1 1.19-6.72-.31-13.5-4.22-19.1-3.91-5.59-9.77-9.33-16.49-10.52-1.48-.26-2.99-.4-4.48-.4z" fill="#f7931e"/><path d="m31.78 59.38c-1.59 0-3.19-.14-4.77-.42-14.75-2.61-24.62-16.74-22.01-31.49 2.3-13 13.54-22.43 26.72-22.43 1.59 0 3.19.14 4.77.42 7.14 1.27 13.37 5.24 17.53 11.18 4.16 5.95 5.75 13.16 4.48 20.3-2.31 13.01-13.54 22.44-26.72 22.44zm-.06-52.73c-12.39 0-22.96 8.87-25.13 21.1-2.46 13.88 6.83 27.16 20.7 29.62 1.49.26 2.99.4 4.49.4 12.4 0 22.96-8.87 25.13-21.1 1.19-6.72-.31-13.5-4.22-19.1-3.91-5.59-9.77-9.33-16.49-10.52-1.48-.26-2.99-.4-4.48-.4z" fill="none"/><g fill="#f8a13b"><path d="m31.72 6.32c-.08.04-.04.14.2.12l.17-.16z"/><path d="m33.28 6.68c.28-.06.61-.18.44-.34-.29.14-.35.07-.65.24-.23.01-.41-.07-.36-.13-.08.04-.36-.05-.49.05.3.13.68.15 1.09.07.08.04 0 .08-.03.11z"/><path d="m52.36 17.5-.07-.13c.01.04.03.09.07.13z"/><path d="m56.93 30.5c-.01-.11-.03-.15-.05-.15.02.09.03.17.05.15z"/><path d="m56.79 32.87c0-.05.01-.09.01-.14-.01.05-.02.11-.01.14z"/><path d="m52.36 17.5c.06.11.12.22.17.33.06 0-.07-.17-.17-.33z"/><path d="m36.47 6.67c-.08-.01-.15-.01-.21 0l.19.02z"/><path d="m48.12 13.06-.09-.07c-.04-.01-.08-.01-.12-.01z"/><path d="m44.28 10.38c.09.06.19-.04.26-.07-.08.02-.16 0-.25-.04-.02.02-.02.05-.01.11z"/><path d="m37.41 7.44-.14-.01c.04.01.1.01.14.01z"/><path d="m50.5 15.44c-.01.02-.01.04-.01.07.01-.01.02-.04.01-.07z"/><path d="m26.09 6.63c0 .01.01.02.01.02.02-.02.03-.03-.01-.02z"/><path d="m31.72 6.69-.08.01c-.01.03-.02.05-.02.08z"/><path d="m56.11 37.12c0-.01 0-.01.01-.02 0-.11-.01-.05-.01.02z"/><path d="m26.51 56.6c.41.22-.75-.01-.12.28-.04-.07.65-.08.12-.28z"/><path d="m36.59 6.71.19.04c-.08-.02-.14-.03-.19-.04z"/><path d="m26.4 56.88.07.03c-.03-.01-.05-.02-.07-.03z"/><path d="m52.39 46.22c.03 0 .07-.03.11-.05-.02 0-.05.01-.11.05z"/><path d="m55.75 39.64-.07.17c.03-.06.06-.12.07-.17z"/><path d="m50.14 49.35c-.08.07-.11.08-.19.19.01 0 .03-.01.04-.02.02-.05.06-.1.15-.17z"/><path d="m47.18 52.07.08-.02c.03-.03.07-.06.1-.08z"/><path d="m14.82 12.27c.09-.03.16-.04.23-.03-.12-.03.34-.45-.23.03z"/><path d="m36.46 6.75c.03-.03.07-.04.13-.04l-.14-.02c-.01.02-.02.04.01.06z"/><path d="m50.84 50.23-.47.48c.14-.13.31-.3.47-.48z"/><path d="m6.68 39.45-.06-.14c.02.06.03.11.06.14z"/><path d="m48.93 52.07c-.12.04-.23.11-.34.18-.01.03-.03.05-.04.08.14-.08.26-.17.38-.26z"/><path d="m18.44 9.45c-.54.34-.16.32-.22.48-.61.45-.37.07-.63.13-.37.3-.59.63-.88.82-.04-.01-.1.02-.06-.06-.31.42-1.17.91-1.51 1.41-.04.01-.07.01-.09.01.13.01.2.08.23.14-.22.18-.31.43-.47.41.13-.11.11-.16.14-.24l-.18.24c-.31.05.26-.32.17-.41-.39.43-.79.99-1.14 1.25-.19-.06.72-.74.18-.45l.55-.41c-.57.15.32-.27-.23-.16-.69.59-.72.72-1.37 1.35-.07.22.15.05.08.26-.73 1.06-1.02.44-1.45 1.32-.06.27.05.47-.45.93l-.01-.3c-.54.69-.1.55-.73 1.22.01-.19.35-.59.25-.5-.49.38-.15.41-.41.78l-.19-.02c-.24.4-.48.83-.71 1.27-.21.46-.43.92-.64 1.39-.02-.07.02-.25-.14-.06-.29.59-.56 1.22-.85 1.85-.3.62-.61 1.24-.83 1.83l-.01.5c-.04.11-.13.18-.12.05-.2.45.08.05.07.29-.07.27-.19.33-.18.15-.09.42-.13 1.05-.24 1.66s-.25 1.21-.37 1.66l-.02-.18c-.15.7.2.83-.02 1.46l-.01-.13c-.16.75-.15 1.56-.17 2.32-.01.38-.02.75-.05 1.1-.02.35-.01.67-.05.97.23.21.02 1.53.32 1.59.01.88-.07.63.04 1.87.05.33.26.45.38.84l-.15.04.31.49-.1.33.14.36c-.03-.15-.02-.33.03-.32.23.55.29 1.43.22 1.47l.63 1.28c-.07-.01-.17-.22-.28-.38.42.65-.1.19.29.78 0-.1.1.01.14.01.02.18.09.45.22.74.13.28.3.58.45.84l-.15-.05c.23.48.48.97.76 1.47.31.48.64.97.96 1.46-.18-.39.02-.4.22-.12l-.06.21c.2.13-.14-.34.2-.02.22.38 0 .35-.17.17.12.14.21.29.34.41-.02.05-.12-.03-.19-.02.21.12.44.83.77.98l-.02.05c.7.96 1.12 1.3 1.79 2 .11-.08.35.21.62.34.44.55.99 1.11 1.63 1.68.49.34.21.02.46.14-.06.15.64.62.23.44.85.57 1.06.77 2.19 1.38-.09-.11-.22-.21-.12-.21.21.1.43.31.37.35l-.06-.02c.68.27 1.32.81 2.01 1.22s1.36.79 1.94.91l-.06-.01c.39.11.79.18 1.18.27.51.2-.34-.02.02.19.65.1 1.12.29 1.58.43.46.12.9.25 1.43.3.72.61 2.87.52 3.96.8l-.06-.09c.29-.07.34.07.56.1-.03-.07-.31-.1-.13-.13 1.22.02 2.47-.05 3.73-.05l1.9-.16c.63-.05 1.25-.2 1.87-.31.91-.18.39-.54 1.54-.69l-.26.26c.85-.37 1.75-.65 2.61-1.04.88-.33 1.71-.77 2.46-1.26-.08.08-.06.13-.21.21.2-.04.51-.2.77-.36.25-.18.44-.37.41-.41.24-.14.1.04.27-.01.36-.15.72-.65.96-.66.04 0-.07.09-.12.14.19-.16.96-.66.68-.63.58-.36.99-.83 1.46-1.1.16-.35.9-.73.84-.96.12.2 1.01-.66 1.2-1.07-.05.15.3-.22.26-.04.33-.36.6-.72.46-.73.83-.48.95-1.54 1.55-1.72.75-1.25 1.39-2.43 1.92-3.61.18.15-.65 1.28-.42 1.35.48-1.16.71-1.83 1.2-2.95.15-.28.02.2.01.32.19-.59.44-1.13.65-1.67.18-.55.35-1.09.45-1.63.02.01.01.13-.01.24.06-.21.18-.47.08-.47l-.04.21c-.24.29-.05-.9-.14-.96.21.43.31-1.03.54-.38.01-.14 0-.33-.07-.31.07-.2.12-.26.15-.03.11-.77-.05-.52.09-1.2.05.01.05.15.09.23-.03-.37-.08-.73.05-1.31.02.04.07-.02.05.15.12-1.01-.07-1.74.07-2.83.21.33.08-.37.26-.43l-.05-.6-.09.24c.02-.52-.16-.98-.11-1.43l.09.38c-.03-.33-.05-.65-.09-.98 0 .19-.01.37-.03.56-.12-.52-.22.07-.23-.62.03.14-.05-.51.04-.8-.09-.25-.19-.5-.2-.89.04-.11.22.05.25-.02-.17-.23-.26-1.2-.48-1.48.06.1.16.08.17.04l-.16-.18c-.02-.24-.01-.28.08-.26-.15-.71-.18.28-.28-.58.03.06.04.03.09.16-.15-.86-.52-1.59-.73-2.35.1-.28.28.64.34.34-.4-1.09-1.05-2.14-1.5-3.16l.07.2c-.29-.03-.26-.79-.63-1.23.08.11.21.09.17.07-.33-.69-.83-1.32-1.54-2.23l.14.08c-.19-.41-.66-.98-.92-1.39-.14-.07-.31-.29-.28-.1-.63-1.43-2.01-2-2.75-3.12.12.11.32.21.23.13-.3-.24-.58-.49-.88-.71-.01.15.07.14.19.37-.15-.05-.43-.2-.64-.38.44.26.12-.14-.01-.33.01.05-.08.03-.08.07-.33-.53-.21.11-.76-.48l.07-.02c-.26-.15-.52-.26-.78-.46-.03-.19.3.13.37.06-.37-.27-.88-.3-1.14-.64.18.08.41.23.59.31-.28-.38-.35-.38-.61-.58l.03.02-.68-.51.15.14c-.66 0-1.03-.53-1.82-.69.75.16.17-.05.28-.16-.15-.13-.4-.3-.31-.31-.38-.05-.51-.35-1.05-.41 0-.05-.36-.15-.23-.24-.45-.15.07.12.01.16-.73-.13-1.52-.85-2.6-.94-.89-.18-1.1-.05-1.92-.18-.25-.14.26-.12.26-.12-.42-.19-.76-.23-1.19-.26.09-.02.01-.08-.11-.16-.34-.05-.26.12-.69-.02.09-.04.2-.11.37-.14-.41-.03-.82 0-1.24-.01-.1-.1.27-.1.42-.13-.48-.03-1.23-.07-1.39.05l.3.08c-.17-.01-.08-.12.05-.14.41-.06.57.11.59.16l-.3-.01c.27.32 1.19.1 1.78.24l-.26.2.63-.05c.12.08.18.21-.11.18.4.19.39 0 .72.19.04.03.02.03-.02.03l.42.04c-.09.02.03.16-.21.07.69.3 1.21.14 1.43.39l-.06-.01c1.01.24.14-.12.94-.06l.37.53.15-.11c.1.04.29.12.24.17.41.04-.04-.09.21-.1.43.31 1.34.48 1.35.75.22-.03-.41-.29.12-.13.03.31.59.23.97.55-.19.06-.56-.2-.19.11.36-.08.78.47 1.15.62.1-.14.78.37 1.37.68-.07.03.98.77 1.42 1.21l-.03.01c.21-.08.69.35 1.06.62-.09.07-.18.05-.4-.07l.33.28c.12.02.25.08.46.26l-.17.03c.43.38.97.66 1.42 1.26.12-.06-.17-.67.46-.17-.03.07-.09.17-.26.04.05.04.21.13.29.25l-.31-.14c.2.28.2.05.38.26-.08.06.08.2 0 .22-.05-.04-.13-.21-.23-.25.2.24.4.55.42.69.02-.06.1-.09.26.07.39.43.04.23.22.52.14.06.32.39.44.31.11.13.07.2.08.27.24.19.84 1.11.78.74l-.04-.07.03.04c.71.71 1.07 1.74 1.61 2.55l-.04.02c.32.49.64 1.12.9 1.46.07.16.09.41.01.36.23.38.29.41.46 1.04-.25-.38-.01.17-.23-.4.17.55.17.69.5 1.23-.19-.15-.01.46.12.71l-.05-.41c.12.28.2.54.27.81l-.2-.09c.15 1.16.92 1.95.74 2.9.17.28-.04-.64.14-.4.09.54-.05 1.13-.03 1.3.01.74.35.65.36 1.43.05-.1.2-.22.31.36.02.55-.21.68-.27.35-.01-.13 0-.19.02-.19-.04-.17-.08-.4-.13-.18l.07.07c-.03.27 0 1.01-.1.84.07.4.11.17.12-.13-.04.69.03 1.08-.03 1.79.03-.11.1-.22.1-.1-.1 1.04.09.46.09 1.18-.12.4-.2-.16-.18.56-.11.43-.17.08-.2-.1.05.65-.19 1.19-.28 1.55v-.34c0 .2-.03.37-.05.53l.15-.17c-.05.19-.08.36-.12.35.05.22.22-.13.26.3-.1.25-.11.81-.28.87.24-.81-.18.06-.05-.64-.01.14-.05.3-.11.49-.02.03-.03-.03-.02-.09-.31.75.09.39-.09 1.21-.06-.12-.21.15-.22.28.07-.33.18-.12.18.2-.23.49-.13.57-.22.83l.13-.3c.05.13-.04.38-.13.75-.08.01.06-.34-.01-.22.01.44-.41.85-.55 1.42-.16.23-.17-.04-.29.16-.14.64-.38.59-.55 1.26.18-.13.18-.17.09.31l.36-1.06-.12.73c.13-.31.21-.69.3-.87-.04.35-.06.31.1.2-.36.35-.23.91-.61 1.33l-.26-.14c-.51.63-.48 1.36-1.13 2.19l.23-.26c.02.18-.34.55-.48.86-.07-.08-.21.08-.34.16.07.03-.41.64-.33.82l-.39.29c-.57.62-.34.95-.92 1.54.08-.25-.21-.02.09-.48-.17.21-.36.37-.31.42-.15.07-.41.64-.65.76-.05.11 0 .21-.21.43-.04.01-.03-.04-.03-.04.04.04-.28.39-.02.28-.83.34-1.7 1.64-2.47 1.84-.45.38-.98.87-1.45 1.14.01-.04-.03-.04.07-.09-.67.32-.23.48-1 .86-.45.1.33-.32.08-.22-.14-.11-.34.04-.59.23-.26.17-.56.38-.86.43l.11-.08c-.44.09-.86.64-1.53.87 0 0 .02-.04-.02-.05-.38.32-1.2.78-1.84 1.03.16-.18.27-.16.11-.24-.29.11.16.17-.42.39-.21 0-.65.07-.75-.04l.55-.18c-.34-.08-.71.23-1 .3l.02-.09c-.83.28-.81.43-1.74.64l.11.04c-.47.3-.44 0-.93.23l-.19-.17c-.33.09-1.16.35-1.77.47.33-.19 1.04-.36 1.46-.51-.33.04-1.13.17-1.3.29.13-.04.3-.11.44-.1-.2.1-.43.19-.7.27-.27.06-.58.08-.92.1.1-.39-1.77 0-2.25-.35-1.19.09-2.35-.21-3.7-.45.42.4-.39-.08-.37.24-.32-.05-.44-.09-.46-.11l-.91-.4c-.2-.14.32 0 .3-.07-.68-.18-.26-.19-.68-.37.06.13-.28.1-.64-.08.16.1.33.22.5.31-.98-.15-.73-.52-1.71-.68l.33.01c-.25-.06-.7-.19-1.13-.35-.43-.17-.87-.32-1.15-.31-.07-.07-.14-.19.07-.12-1.11-.48-2.51-1.05-3.26-1.64l.12-.01c-.2-.11-.4-.11-.59-.34.03-.02.12-.01.03-.07-.11-.05-.56-.25-.78-.46l.26.08c-.92-.74-1.55-.96-2.35-1.58.15-.16-.51-.82-.78-1.21l.03-.01c-.46-.51-.9-.9-1.32-1.29-.39-.41-.8-.81-1.22-1.3-.17-.37-.49-.96-.87-1.59-.19-.31-.39-.64-.58-.95-.16-.33-.3-.66-.42-.96.05.19-.17.05-.29-.14-.09-.29-.51-.68-.31-.72l.04.1c.06-.28-.21-.82-.38-1.27l-.27.02c-.16-1.28-1.16-3.1-1.01-3.85-.12-.28-.18-.65-.3-.94l.14-.01c-.1-.83-.2-1.24-.29-2.27l.12.2c-.03-.58-.46-.7-.51-1.25l.2-.17c-.03-1.02.19-2.05.06-3.06.03.02.09.05.07.22.07-.48.37-1.82.06-1.69.18.01.14-1.04.21-1.6l.12.11c-.14-.49-.18-.51-.09-1.17.05-.15.14-.11.06.09.18-.49-.05-.43.21-1.01l.01.25c.17-.5.11-.48.1-.79.05-.34.34-.96.48-.99-.06-.1-.03-.4.12-.68.06-.02.04.09.04.15.44-.78.35-1.3.74-1.79.05.01.09-.02.12-.06-.32.63-.52 1.16-.52 1.11.12.05.36-.46.35.02.05-.23.09-.54.17-.86.1-.31.22-.62.38-.85.02-.02.05-.04.07-.04l-.01.06c.07-.11.11-.21.14-.32.1-.15.17-.24.25-.39.11-.01.36-.54.53-.77-.13-.05.09-.35-.2-.12.03-.03-.01.05-.11.22-.02.04-.05.08-.05.11v-.02c-.11.15-.21.37-.34.62.04-.23.09-.48.34-.7 0-.17.01-.35.02-.45.38-.23.87-.8 1.03-.82.44-.75 1.18-1.66 1.33-2.24.14-.21.25-.16.34-.2-.08.12-.19.24-.22.33.28-.41.97-1.09.92-1.31.49-.4-.12.37.45-.27l-.03.11c.73-.46 1.14-1.01 1.6-1.56.5-.5 1.01-1.07 1.89-1.44-.12.05-.18.08-.22.07 1.84-1.07 3.73-2.39 5.8-2.9.59-.13.61-.26.93-.46l.17.1.55-.36c.83-.37 1.58 0 2.62-.48l-.16-.08c.4-.04 1.26-.23 1.21-.11.04-.02.12-.12.28-.09l.02.08c.32-.08.64-.2.97-.25.77.02-.09.32 1.02.28.41-.05 1.18-.28 1.02-.33-.17 0-.43-.03-.45-.11l.38-.06c.07-.24.37-.49-.59-.61l-.67.17-.22-.1.57-.03c-.33-.09-.53.01-.75.09-.06-.06-.16-.1-.29-.11-.22.08-.43.17-.64.28-.09-.08.28-.22-.17-.21-.3.14.32.16-.18.3-.33-.06-.25-.16-.61-.02-.06-.05.01-.1.16-.15-.32.12-.88.15-1.03.29-.35-.08-1.1.28-1.11.05-.09.08-.54.3-.84.38.24-.19-.04-.13-.38-.06-.33.09-.71.21-.68.05-.32.38-1.43.52-2.05.96.03-.03.09-.1.16-.11-.39.14-.53.12-.8.19.03.2-.55.49-.82.74-.54.06.18-.34-.04-.43.08.11-.72.55-.51.58-.4.08-.32.11-.58.06.05.25-.3.21-.52.49-.55.17-.26-.15-.74.25-.28.08.14-.29.14-.29zm-9.72 10.88c.05-.11.1-.21.13-.27-.03.06-.07.14-.13.27zm-.55 1.11c.07-.13.13-.31.23-.48.06-.02.09.05.03.15-.01-.08-.15.18-.26.33zm2.03-1.83c-.07.18-.12.22-.16.23.04-.08.08-.17.14-.3v-.03c.01.03.02.06.02.1z"/><path d="m10.22 19.23c.01-.02.02-.04.03-.07-.03.03-.06.05-.09.08v.08c.03-.03.05-.06.06-.09z"/><path d="m52.27 17.35.01.02c-.01-.02-.02-.04-.02-.05.01.02.01.02.01.03z"/><path d="m6.24 38.14.03-.01-.06-.1z"/><path d="m48.04 12.16c0-.02-.01-.04-.05-.08 0 .01.02.04.05.08z"/><path d="m45.69 10.42-.33-.26c.14.12.25.2.33.26z"/><path d="m43.78 9.23c-.04.01-.05.02-.07.03z"/><path d="m56.7 39.77-.02.09c-.04.2 0 .06.02-.09z"/><path d="m57.35 29.19c.04.11.07.22.1.33-.01-.18-.02-.33-.1-.33z"/><path d="m50.89 50.18-.05.05z"/><path d="m57.49 30.02c.01-.19-.01-.35-.04-.49 0 .15 0 .34.04.49z"/><path d="m34.48 6.36-.11-.02c0 .01-.01.02-.02.02z"/><path d="m34.36 6.37h-.12c.05.01.1.01.12 0z"/><path d="m33.98 6.38.26-.01c-.09-.01-.2-.02-.26.01z"/><path d="m37.42 6.91.04-.04c-.02.01-.03.02-.04.04z"/><path d="m38.3 7.12c-.21-.06-.5-.24-.8-.28l-.04.03c.16-.05.62.28.84.25z"/><path d="m41.64 8.91-.67-.32c.1.1.23.23-.09.12.81.5-.13-.19.76.2z"/><path d="m43.68 9.97c-.36-.17-.03.07-.07.09.25.08.31.09.07-.09z"/><path d="m54.78 21.89-.13.02c.14.26.04-.02.13-.02z"/><path d="m56.52 24.66-.01-.32-.15-.1z"/><path d="m56.13 26.71-.05-.12c.06.16.11.32.15.48-.03-.12-.06-.24-.1-.36z"/><path d="m47.67 51.53.17.07c.15-.15.07-.31-.17-.07z"/><path d="m37.07 56.82c-.14-.05-.48-.02-.67.1.27-.05.54-.05.67-.1z"/><path d="m8.4 40.86.13.2-.2-.4z"/><path d="m31.78 59.05c-.09.04-.04.14.21.11l.17-.17z"/><path d="m33.44 59.28c.29-.09.61-.25.41-.39-.27.17-.35.11-.64.31-.25.03-.43-.03-.39-.1-.09.05-.38-.02-.51.09.32.11.73.1 1.15-.02.09.03 0 .08-.02.11z"/><path d="m54.09 48.08-.11.11c.04-.02.07-.06.11-.11z"/><path d="m59.17 34.01c0 .12.01.17.03.17 0-.11-.01-.19-.03-.17z"/><path d="m59.41 31.42v.15c.01-.06.01-.12 0-.15z"/><path d="m54.09 48.08c.09-.1.18-.21.26-.31-.02-.05-.13.16-.26.31z"/><path d="m36.68 58.5c-.08.03-.14.06-.2.08.07-.01.13-.04.19-.06z"/><path d="m49.7 53.1-.09.08c-.01.04-.02.08-.03.12z"/><path d="m45.53 56.09c.11-.05.07-.19.07-.27-.02.09-.09.15-.17.21.01.03.04.05.1.06z"/><path d="m37.9 58.81-.14.05c.04-.01.09-.04.14-.05z"/><path d="m52.33 50.53c.02.01.05.01.07 0-.01-.01-.04-.01-.07 0z"/><path d="m26.09 58.07c-.01.01 0 .02 0 .02.03 0 .04-.01 0-.02z"/><path d="m31.78 59.42-.08.01c-.01.03-.02.05-.02.08z"/><path d="m59.04 26.64v.02c.04.13.03.06 0-.02z"/><path d="m25.86 5.11c.51.01-.75.34 0 .31-.07-.04.62-.37 0-.31z"/><path d="m36.81 58.49.2-.05c-.1.02-.16.03-.2.05z"/><path d="m25.87 5.41h.08c-.04 0-.05 0-.08 0z"/><path d="m54.68 16.57c-.01.03 0 .08.01.13.01-.01.01-.05-.01-.13z"/><path d="m58.07 24-.04-.2c.01.08.02.14.04.2z"/><path d="m51.88 13.37c-.07-.09-.07-.13-.19-.22 0 .01.01.03.02.04.04.03.1.07.17.18z"/><path d="m48.62 10.4.05.07c.04.02.08.05.12.08z"/><path d="m14.61 52.48c.04.09.06.16.07.23.02-.12.51.26-.07-.23z"/><path d="m36.69 58.58c.02-.04.05-.07.11-.09l-.14.04c0 .02 0 .04.03.05z"/><path d="m50.95 14-.46-.49c.12.14.29.32.46.49z"/><path d="m6.2 24.87-.03.15c.02-.05.03-.11.03-.15z"/><path d="m49.02 12.16c-.06-.11-.14-.22-.23-.32-.03-.01-.06-.02-.08-.02z"/><path d="m18.51 54.98c-.55-.32-.35 0-.53.03-.69-.34-.24-.29-.41-.51-.44-.2-.81-.3-1.1-.51 0-.04-.05-.09.03-.07-.49-.19-1.25-.84-1.79-1.12-.02-.04-.03-.07-.03-.09.01.13-.04.22-.09.26-.22-.19-.48-.27-.49-.43.13.12.18.09.26.12l-.26-.16c-.09-.31.35.23.44.13-.48-.35-1.1-.7-1.41-1.04.05-.18.84.66.49.15l.48.51c-.22-.55.31.29.13-.24-.65-.64-.85-.59-1.43-1.31-.21-.09-.05.15-.26.06-1.01-.86-.41-1.01-1.19-1.61-.24-.12-.47-.07-.8-.68l.29.07c-.53-.72-.54-.24-1-1.06.16.09.48.52.41.4-.24-.58-.35-.28-.6-.68l.09-.18c-.51-.8-1.24-1.58-1.7-2.54.07.03.2.17.13-.08-.32-.58-.69-1.19-.9-1.87-.23-.67-.43-1.33-.62-1.94-.1-.14-.18-.28-.28-.42-.03-.11.01-.22.07-.11-.08-.49-.1 0-.22-.21-.09-.27-.02-.38.07-.22-.17-.41-.42-.99-.61-1.6-.14-.62-.25-1.25-.26-1.72l.07.17c-.06-.72-.47-.76-.37-1.45l.04.13c-.02-.79-.13-1.61-.15-2.39.02-.78.06-1.52.18-2.11-.23-.25.28-1.53-.01-1.66.28-.87.24-.62.57-1.83.09-.32-.07-.52-.01-.94l.15.02-.03-.59.24-.25c.01-.13.04-.26.07-.39-.06.14-.16.3-.2.26.1-.61.55-1.39.63-1.38.11-.47.19-.95.36-1.4.05.05-.03.28-.06.47.15-.76.21-.07.34-.77-.07.07-.07-.08-.09-.11.23-.28.5-1.04.75-1.57l.04.15c.52-.93.98-2.02 1.66-3.01-.27.34-.37.16-.2-.14l.21-.03c.04-.25-.25.28-.1-.19.26-.37.32-.15.22.1l.25-.49c.06 0 .01.12.04.19.02-.26.7-.65.74-1.01l.06.01c.71-.96 1.05-1.38 1.71-2.1-.09-.11.19-.37.31-.67.56-.46 1.22-.92 1.85-1.51.44-.42.07-.2.23-.43.12.07.79-.46.5-.12.81-.65 1.02-.84 2.08-1.62-.15.03-.3.1-.25.02.19-.15.49-.25.49-.18l-.04.04c1.16-.97 3.15-1.31 4.13-1.97l-.05.04c.36-.2.71-.42 1.09-.57.53-.15-.3.19.13.14.59-.3 1.09-.45 1.56-.59.48-.12.93-.18 1.45-.37.45.09 1.16-.09 1.93-.19.76-.13 1.57-.29 2.14-.17l-.08-.07c.29-.1.35.04.57.05-.03-.07-.32-.07-.14-.12 2.47-.28 5.11.23 7.52.9.88.26.63-.34 1.69.21l-.36.06c1.85.34 3.59 1.28 5.26 2.01-.11-.02-.14.02-.3-.06.29.27 1.24.7 1.29.63.24.16.01.11.13.24.3.25.9.4 1 .61.02.04-.11-.03-.18-.06.25.08.96.68.84.43.52.46 1.09.74 1.45 1.16.39.1.83.83 1.06.75-.18.12.74.96 1.12 1.21-.15-.06.21.32.02.26.33.36.67.67.7.53.39.86 1.35 1.28 1.37 1.91.97 1.11 1.77 2.23 2.42 3.4-.21.06-.72-1.28-.91-1.11.72 1.03 1.21 1.6 1.68 2.77.1.31-.16-.13-.25-.21.59 1.12.91 2.25 1.33 3.29-.02 0-.08-.11-.13-.21.07.21.12.5.21.45l-.09-.2c.04-.38.55.76.62.79-.38-.29.2 1.1-.31.61.05.14.14.3.2.26.03.21 0 .29-.12.09.21.76.26.47.4 1.17-.05.01-.1-.13-.17-.2.17.34.31.69.36 1.3-.03-.03-.06.04-.09-.14.16 1.03.45 1.75.4 2.91-.23-.33-.06.39-.25.45l.05.61.09-.25c0 .54.11 1.02.02 1.48l-.06-.41c-.01.34-.01.68-.03 1.01.05-.19.07-.38.11-.57.06.55.25-.04.14.68 0-.15-.06.54-.2.81.04.27.05.56-.05.95-.07.09-.19-.11-.24-.05.13.29-.17 1.25-.1 1.61-.01-.12-.11-.14-.14-.11l.08.24c-.09.24-.12.27-.19.21-.19.73.28-.18-.01.67.01-.07-.02-.04-.01-.19-.21.87-.42 1.69-.71 2.47-.25.17.18-.7-.06-.49-.08.29-.16.58-.23.88l-.29.87c-.21.58-.37 1.17-.67 1.67l.12-.18c.16.26-.52.7-.68 1.28.05-.14-.04-.24-.03-.19-.37.7-.76 1.42-1.33 2.48l.02-.16c-.28.37-.74.98-1.07 1.36-.04.16-.22.38-.04.3-.61.51-1.07 1.07-1.52 1.64-.22.28-.43.57-.68.82-.26.24-.53.46-.84.63.12-.11.25-.31.15-.22l-.82.84c.14.03.16-.05.4-.15-.07.15-.27.43-.5.61.36-.4-.12-.13-.34-.05.05 0 .02.08.05.1-.62.21.06.24-.69.65v-.08c-.23.22-.41.46-.69.65-.19-.02.23-.26.18-.36-.36.31-.63.74-1.06.87.15-.14.4-.3.54-.44-.48.12-.51.18-.81.35l.03-.02-.71.37.19-.07c-.31.64-1.01.66-1.61 1.24.59-.56.06-.17.04-.33-.2.06-.49.16-.44.08-.28.28-.59.22-1.01.58-.04-.04-.37.15-.34.01-.43.22.14.03.13.1-.64.45-1.7.52-2.67 1.03-.86.38-.99.6-1.83.86-.31-.01.2-.23.2-.23-.48.04-.83.13-1.25.28.08-.06-.02-.08-.16-.1-.35.09-.2.23-.69.22.07-.06.16-.16.32-.24-.41.1-.81.25-1.24.35-.13-.07.25-.16.39-.24-.48.1-1.25.25-1.39.4l.32.01c-.18.03-.1-.1.03-.14.41-.16.61-.03.64.01l-.31.07c.35.23 1.25-.2 1.86-.3-.07.09-.14.18-.22.26.2-.09.4-.21.6-.31.14.02.26.12-.04.22.47 0 .38-.16.78-.14.05.01.03.02-.01.04l.42-.16c-.07.06.11.13-.17.16.82-.04 1.21-.47 1.54-.41l-.06.03c1.04-.41.06-.18.79-.6l.66.18.05-.18c.11-.02.32-.11.31-.03.36-.26-.09-.03.1-.22.56-.08 1.37-.65 1.59-.47.13-.18-.52.12-.01-.18.27.19.59-.34 1.09-.46-.08.19-.53.35-.03.22.17-.34.9-.41 1.26-.65-.06-.15.75-.56 1.32-.99 0 .04.29-.12.67-.33.36-.23.79-.52 1.07-.7v.04c-.01-.23.56-.61.92-.96.06.1.02.19-.17.4.13-.09.25-.19.36-.3.04-.12.13-.24.34-.46v.18c.45-.44.85-.95 1.46-1.48-.06-.12-.68.22-.18-.46.07.03.18.08.05.27.04-.06.13-.23.25-.32l-.15.33c.29-.23.06-.21.26-.42.07.07.2-.11.23-.03-.04.06-.2.16-.25.27.24-.23.55-.49.7-.53-.06-.02-.1-.09.06-.28.42-.47.24-.07.51-.32.04-.16.34-.44.23-.54.11-.14.19-.13.26-.16.15-.3.92-1.21.56-1.02l-.06.06c.01-.01.02-.03.03-.05.26-.46.55-.93.88-1.37s.67-.88.87-1.37l.04.03c.24-.59.63-1.25.73-1.7.07-.17.25-.37.27-.27.15-.46.12-.53.47-1.14-.11.48.14-.13-.13.48.27-.56.43-.66.53-1.34.05.26.29-.4.35-.7l-.22.39c.08-.33.18-.6.28-.88l.11.2c.63-1.17.25-2.33.81-3.21-.04-.35-.23.67-.3.34.17-.57.49-1.14.52-1.32.22-.79-.13-.78.02-1.62-.07.1-.24.19-.23-.44.06-.58.29-.71.32-.33 0 .14-.03.21-.04.2.01.19.01.44.1.22l-.05-.08c.08-.29.11-1.11.2-.91-.03-.45-.09-.2-.14.13.14-.76.03-1.19.1-1.97-.03.13-.1.24-.1.12.03-1.15-.13-.5-.19-1.27.06-.45.23.14.09-.63.02-.48.15-.12.21.07-.17-.7-.06-1.34-.11-1.75l.1.37c-.06-.22-.09-.41-.11-.59l-.09.23c-.01-.22-.04-.41.01-.41-.11-.21-.16.2-.34-.22 0-.3-.23-.86-.1-1 .13.92.14-.13.31.64-.05-.15-.08-.33-.1-.55.01-.04.04.02.06.08-.03-.91-.26-.36-.47-1.26.11.09.11-.25.06-.39.09.36-.1.21-.25-.1-.1-.58-.23-.6-.31-.9l.07.35c-.12-.09-.19-.37-.34-.75.06-.06.16.34.15.19-.3-.38-.18-1.03-.51-1.58-.06-.29.14-.09.08-.34-.38-.62-.18-.77-.59-1.41-.02.25.03.27-.3-.16.19.36.41.71.59 1.09-.15-.22-.32-.44-.48-.65.16.33.39.68.45.9-.23-.31-.19-.28-.21-.08-.02-.54-.51-.87-.64-1.45l.27-.11c-.29-.85-.86-1.32-1.39-2.34l.14.34c-.17-.07-.38-.6-.63-.88.1-.03 0-.24-.03-.41-.04.05-.47-.7-.7-.66l-.2-.49c-.52-.77-.87-.66-1.41-1.35.26.13.05-.23.49.18-.18-.24-.36-.44-.41-.4-.07-.17-.65-.52-.76-.79-.12-.06-.22-.02-.45-.26-.01-.04.04-.03.04-.03-.04.03-.41-.32-.29-.04-.41-.88-1.87-1.7-2.33-2.39-.54-.36-1.18-.8-1.68-1.11.05 0 .03-.04.12.03-.62-.53-.56-.05-1.29-.61-.32-.38.46.18.24-.02.06-.35-.97-.54-1.44-.98l.14.05c-.36-.34-1.09-.41-1.78-.77 0 0 .05-.01.02-.04-.56-.06-1.49-.39-2.21-.58.26-.04.34.05.25-.12-.32-.1.02.23-.61.04-.18-.13-.62-.33-.64-.48l.6.18c-.25-.26-.78-.23-1.09-.36l.06-.06c-.94-.22-1-.05-2.01-.28l.09.08c-.59.08-.44-.2-1.02-.17l-.13-.22c-.38-.01-1.33-.02-1.98-.03.48-.11 1.27-.09 1.77-.1-.37-.06-1.25-.16-1.45-.07.15 0 .34-.03.49.02-.47.1-1.07.12-1.8.07.15-.4-1.91-.17-2.45-.39-1.3.16-2.6.13-4.12.39.58.18-.44.1-.28.39-.34.1-.47.12-.51.11l-1.09.06c-.27-.03.31-.14.27-.2-.77.16-.36-.07-.88 0 .13.07-.22.23-.65.33l.64-.06c-.99.49-.98.04-1.98.53l.3-.2c-.53.2-1.95.79-2.36 1.21-.11.01-.26-.02-.04-.13-1.24.56-2.55 1.6-3.48 2.07l.05-.12c-.2.15-.29.35-.6.46 0-.03.04-.12-.06-.06-.11.08-.47.5-.76.66l.18-.24c-1.11.72-1.49 1.38-2.24 2.18-.13-.16-.98.46-1.35.83l-.01-.04c-.53.56-.95 1.07-1.32 1.58-.35.54-.67 1.08-1.06 1.66-.72.57-1.75 2.41-2.48 3.63.14-.17.14.11.04.34-.21.27-.26.89-.42.76l.05-.11c-.28.15-.5.8-.71 1.3l.21.18c-.9 1.16-1.01 3.49-1.47 4.15-.01.34-.1.75-.11 1.09l-.15-.03c-.17.92-.23 1.38-.35 2.53l-.07-.24c-.11.65.32.85.32 1.44l-.22.17c-.01.57-.07 1.14-.11 1.71 0 .57.06 1.14.19 1.69-.03-.02-.1-.04-.12-.23.02.27.02.79.06 1.21.04.43.16.75.28.63-.18.04.19 1.16.38 1.74l-.15-.06c.26.47.31.48.56 1.15.03.17-.07.17-.09-.06.08.56.25.39.36 1.07l-.15-.22c.15.56.18.51.37.78.13.34.35 1.04.25 1.17.1.05.31.31.4.64-.03.06-.1-.04-.14-.1.13.47.3.79.45 1.08.18.28.33.52.42.84-.04.04-.04.09-.03.15-.36-.69-.6-1.26-.56-1.22-.12.05.1.64-.25.25.29.43.89 1.1 1.1 1.67v.09l-.04-.04c.05.13.12.24.19.34.07.18.11.31.2.47-.05.11.34.64.5.91.11-.1.3.26.2-.12.02.05-.05-.04-.16-.21-.03-.04-.06-.08-.08-.11l.02.01c-.11-.17-.26-.39-.42-.65.19.18.38.36.49.69.16.09.33.19.42.25.06.46.41 1.22.37 1.39.65.71 1.41 1.77 1.99 2.05.21.17.15.28.19.38-.13-.1-.25-.23-.34-.27.42.35 1.12 1.15 1.34 1.12.41.55-.38-.16.28.5l-.13-.05c1.15 1.49 2.5 1.68 3.94 3.13-.1-.1-.15-.15-.16-.19.22.19.45.37.69.55l.76.45 1.56.87c.55.24 1.09.47 1.62.73l.79.39.79.36c.6.26.71.17 1.11.21l.09.19.69.05c.96.09 1.54.74 2.78.77l-.14-.13c.42.11 1.38.16 1.29.26.05-.01.16-.09.32-.01v.08c.36 0 .72-.01 1.08-.03.83.12-.16.31 1.07.4.46-.01 1.3-.2 1.13-.26-.18 0-.46-.05-.48-.13l.41-.04c.08-.23.38-.46-.6-.64l-.66.09-.21-.13.58.02c-.32-.12-.53-.04-.77.01-.05-.06-.14-.11-.28-.14l-.69.16c-.07-.1.32-.15-.12-.25-.33.07.28.24-.25.25-.32-.15-.21-.22-.6-.18-.05-.07.04-.09.2-.1-.35.03-.9-.1-1.1-.01-.31-.2-1.14-.23-1.06-.43-.12.03-.63.03-.94-.03.63-.12-1.15-.28-.91-.55-.47.09-1.48-.39-2.24-.51.05 0 .14-.01.2.02-.4-.14-.47-.3-.7-.44-.12.16-.75-.08-1.12-.12-.39-.39.39-.08.31-.31-.04.16-.89-.23-.79-.04-.31-.27-.29-.18-.39-.43-.17.18-.34-.15-.7-.18-.44-.4-.01-.27-.6-.53-.24-.21.29 0 .29 0zm-10.52-10.47c.06.11.12.21.15.27-.03-.05-.07-.13-.15-.27zm-.57-1.14c.07.14.15.31.24.5-.02.06-.09.04-.15-.08.07.05-.05-.23-.09-.42zm.41 2.88c-.13-.17-.14-.24-.13-.28.06.08.12.18.21.3l.03.01c-.04 0-.08 0-.11-.03z"/><path d="m8.19 46.47c.02.02.03.03.05.07-.01-.04-.03-.08-.04-.12l-.08-.04c.02.03.05.06.07.09z"/><path d="m53.96 48.22.02-.02c-.02.01-.04.03-.05.03.02-.01.02-.01.03-.01z"/><path d="m5.93 26.25h-.04l.01.11z"/><path d="m48.76 53.05c-.02 0-.05 0-.1.03.01 0 .05-.01.1-.03z"/><path d="m46.28 54.8-.39.19c.17-.08.29-.14.39-.19z"/><path d="m44.23 55.91c-.01.04-.01.06-.01.07z"/><path d="m57.22 24.43-.03-.08c-.09-.2-.04-.06.03.08z"/><path d="m58.52 35.3c-.01-.12-.03-.24-.03-.36-.03.19-.05.35.03.36z"/><path d="m51 14.06-.05-.06z"/><path d="m58.54 34.43c-.05.19-.06.36-.05.51.03-.16.06-.35.05-.51z"/><path d="m34.62 58.78-.11.01c0 .01 0 .02-.01.02z"/><path d="m34.5 58.81-.12.03c.06 0 .1-.01.12-.03z"/><path d="m34.12 58.91c.09-.01.17-.04.26-.06-.09 0-.2.02-.26.06z"/><path d="m37.67 58.33.02-.06c-.01.02-.02.04-.02.06z"/><path d="m38.58 58.11c-.22.04-.57.02-.87.12l-.02.05c.13-.11.7-.04.89-.17z"/><path d="m42.52 57.41-.76.27c.15 0 .35-.01.01.15 1-.25-.23-.03.75-.42z"/><path d="m44.8 56.4c-.37.22.04.07.04.1.21-.17.27-.21-.04-.1z"/><path d="m56.84 43.39.1.09c.12-.31-.04-.02-.1-.09z"/><path d="m57.41 39.97-.18.28.07.18z"/><path d="m58.79 38.24-.01.15.08-.56z"/><path d="m49.31 10.8-.02.19c.19.12.34.01.02-.19z"/><path d="m37.5 5.3c-.12-.11-.48-.23-.71-.2.29.07.56.19.71.2z"/><path d="m5.67 22.6c.01-.09.03-.18.05-.27-.06.16-.1.32-.13.49z"/></g><g fill="#f75b16"><path d="m27.64 13.91c.6-.08 1.17.04 1.71.36.2.14.4.28.58.42.19.14.37.29.53.45.22.22.33.47.33.75v.15c-.02.32-.05.64-.09.94-.04.31-.09.62-.15.92-.02.14-.04.27-.08.39-.03.12-.06.24-.1.36-.04.1-.07.19-.09.29-.02.09-.05.18-.09.25-.18.34-.32.69-.41 1.05s-.18.73-.25 1.11c-.06.26-.14.51-.24.73-.1.23-.2.46-.3.71-.18.34-.33.68-.45 1.02-.02.04-.04.07-.04.1-.01.03-.03.06-.04.1-.16.32-.3.65-.41.98s-.21.67-.29 1c-.1.44-.26.83-.48 1.17-.16.18-.29.43-.39.75-.12.34-.26.66-.43.94-.17.29-.34.58-.53.85-.04.04-.07.08-.09.12s-.04.08-.06.12v.21c.12.04.19.06.21.06.34.06.67.1.99.1.32.01.65.02.99.02h.99c.18 0 .37.01.55.03.19.02.38.07.56.15.18.06.36.12.55.18s.38.13.55.21c.06.02.12.04.17.06s.11.05.17.09c.06.16.12.31.17.44s.11.28.17.44c-.04.14-.09.27-.15.4s-.11.28-.15.44c-.02.08-.06.14-.12.18s-.12.08-.18.12c-.1.02-.2.04-.29.06s-.19.03-.29.03c-.38 0-.75 0-1.12.02-.37.01-.74-.04-1.09-.14-.08-.02-.2-.03-.36-.03-.1-.02-.21-.03-.31-.03-.11 0-.22-.01-.32-.03s-.21-.03-.31-.04c-.11-.01-.22-.02-.32-.02-.3-.02-.6-.05-.88-.1-.29-.05-.58-.1-.86-.17-.22-.04-.42-.09-.62-.15-.19-.06-.39-.12-.61-.18-.1-.04-.19-.07-.25-.1-.07-.03-.16-.06-.26-.1-.14-.08-.35-.23-.63-.46s-.47-.41-.57-.52c-.34-.4-.55-.81-.63-1.23-.06-.26-.05-.5.03-.72.02-.06.04-.12.06-.19s.04-.14.06-.2c.1-.26.21-.51.32-.75s.21-.49.31-.75c.04-.08.08-.16.13-.24s.09-.16.14-.24c.08-.1.15-.2.22-.31s.16-.21.25-.31c.36-.42.65-.84.87-1.26.08-.12.16-.24.23-.36s.15-.23.25-.33c.62-.76 1.21-1.58 1.77-2.46.08-.12.16-.24.24-.36s.16-.24.24-.36c.26-.4.53-.75.81-1.05.32-.3.58-.68.78-1.14.14-.3.27-.6.39-.89s.23-.58.33-.88c.2-.5.33-1.05.39-1.65v-.12c0-.1-.04-.18-.1-.24-.07-.06-.15-.08-.22-.06-.08 0-.15.01-.21.03-.06.04-.12.06-.18.07s-.13.04-.21.08c-.3.18-.59.36-.88.54s-.58.4-.86.66c-.06.06-.11.1-.15.12-.16.1-.29.22-.39.35s-.2.27-.3.44c-.16.26-.33.51-.52.73-.19.23-.37.46-.53.67-.22.28-.49.4-.81.36-.1-.02-.21-.04-.32-.06s-.21-.05-.32-.09c-.18-.04-.27-.16-.27-.36 0-.16.03-.32.09-.48.08-.14.15-.27.21-.4s.13-.27.21-.41c.02-.08.07-.16.15-.24.14-.18.28-.35.42-.52s.28-.35.42-.53l.45-.45c.18-.18.38-.35.58-.5s.43-.27.67-.38c.04-.04.08-.06.12-.06s.08-.02.12-.06c.18-.14.36-.25.55-.33.2-.09.39-.18.57-.28z"/><path d="m34.69 24.38c-.52-.08-.94-.28-1.26-.6-.04-.04-.09-.08-.17-.12s-.13-.08-.19-.12-.15-.12-.27-.24c-.06-.44-.08-.83-.06-1.17.02-.06.03-.11.03-.17 0-.05.01-.09.03-.13.1-.18.16-.36.18-.56.02-.19.04-.38.06-.58.04-.38.1-.75.2-1.12.09-.37.19-.73.31-1.1.06-.18.12-.36.17-.54s.09-.37.13-.57c.06-.32.12-.63.2-.94s.13-.62.2-.92c.06-.26.12-.51.19-.75s.16-.49.25-.75c.14-.34.3-.64.48-.9.02-.04.05-.06.11-.08.05-.01.09.01.13.04.18.14.29.27.33.39.1.24.17.5.21.78.02.24.02.48.01.71s-.04.46-.08.68c-.04.18-.07.35-.09.52s-.04.33-.06.5c-.04.12-.07.24-.08.36s-.03.24-.04.36c-.06.5-.12.99-.17 1.47s-.09.97-.11 1.47c-.02.26-.04.52-.04.78s-.03.53-.04.81 0 .46.08.54c.07.08.25.11.53.09.24 0 .48-.02.72-.08.24-.05.48-.09.72-.13.16-.04.26-.14.3-.3 0-.04 0-.08.02-.13.01-.05.01-.09.01-.14-.02-.16-.03-.31-.03-.45s-.01-.29-.03-.45c-.04-.32-.05-.63-.03-.94s.02-.62 0-.95c-.02-.22.04-.42.18-.6.06-.1.12-.18.2-.24.07-.06.13-.13.2-.21.24-.28.54-.42.9-.42.2 0 .39 0 .57-.02.18-.01.36-.02.54-.02.1 0 .18.01.25.03s.14.03.22.03c.26.2.44.38.54.54v.66c.02.1.04.21.04.33s.02.23.02.33v.4c0 .13-.01.27-.03.4 0 .22 0 .44-.01.66s-.02.44-.02.66c-.04.34.03.64.21.9.14.24.15.5.03.78-.1.16-.17.32-.2.48s-.05.32-.07.48c-.04.32-.08.63-.11.93s-.04.6-.04.9c0 .22-.01.43-.03.63s-.04.41-.06.63c-.02.1-.03.21-.03.31v.31c.04.36.06.72.06 1.08s.02.71.06 1.05c.02.4.02.79 0 1.17 0 .18-.03.34-.08.49s-.12.31-.22.47c-.1.18-.23.34-.39.48s-.32.28-.48.42c-.18.16-.41.22-.69.18-.34-.08-.63-.21-.87-.39s-.41-.44-.51-.78c-.08-.26-.15-.52-.19-.78-.05-.26-.09-.53-.11-.81-.02-.34-.04-.69-.08-1.05-.03-.36-.05-.71-.08-1.05-.02-.1-.03-.25-.03-.45.02-.3.03-.6.04-.89s.02-.58.04-.88c0-.36.04-.7.12-1.02.02-.1.03-.21.04-.35.01-.13 0-.25-.02-.38 0-.06-.02-.12-.07-.18s-.12-.09-.2-.09c-.16-.02-.31-.02-.45-.02-.14.01-.28.03-.42.05-.28.04-.55.08-.83.12-.23.08-.51.12-.79.16z"/><path d="m18.01 46.58c-.02-.02-.04-.05-.05-.07s-.03-.05-.05-.09c-.01 0-.02 0-.04-.01s-.02-.01-.04-.01c-.05-.04-.09-.07-.13-.11s-.08-.07-.12-.11c-.01-.01-.02-.02-.04-.02-.06-.02-.11-.08-.14-.16-.1-.04-.21-.13-.33-.3-.13-.16-.2-.29-.21-.37-.04-.06-.08-.11-.13-.15s-.08-.1-.09-.17l-.07-.07c-.02-.04-.05-.07-.09-.11l-.04-.07c-.01-.06-.03-.11-.06-.16s-.06-.1-.08-.16c-.1-.13-.16-.26-.18-.38-.01-.04-.03-.07-.05-.11s-.05-.08-.07-.13c.01-.01.02-.02.02-.04-.02-.04-.04-.07-.05-.09s-.02-.05-.04-.09c-.02-.06-.04-.11-.06-.16s-.04-.1-.06-.16c-.02-.07-.05-.14-.07-.2s-.05-.12-.07-.18c0-.01-.01-.02-.02-.04v-.11c-.04-.05-.06-.1-.06-.14-.01-.05-.01-.1-.03-.14-.01-.02-.02-.04-.02-.06s-.01-.04-.02-.06c-.01-.06-.02-.12-.02-.18s-.01-.12-.02-.18c0-.01 0-.02-.01-.03s-.01-.02-.01-.04c0-.05 0-.09-.01-.13s-.01-.09-.01-.14c0-.02 0-.04.01-.05s.01-.03.01-.05c0-.08.01-.14.02-.18 0-.02 0-.05-.01-.07s-.01-.05-.01-.07c-.02-.06-.02-.11 0-.14.02-.05.03-.08.02-.11-.02-.04-.03-.08-.01-.12s.03-.08.03-.12c-.01-.01-.01-.02 0-.04.01-.01.02-.02.02-.04-.02-.08-.02-.16.02-.22.01-.02.02-.07.02-.13.01-.02.02-.07.02-.13.01-.08.02-.16.02-.24s.01-.17.02-.26c.05-.07.07-.14.07-.22.02-.07.04-.12.04-.14.01-.07.03-.14.04-.21.02-.07.03-.13.04-.19 0-.02.01-.04.02-.04s.02-.02.02-.04c.02-.1.05-.17.07-.22.01-.05.02-.09.04-.13.01-.04.03-.08.05-.13.01-.05.04-.13.09-.25.01-.08.04-.17.09-.25.01-.02.02-.04.02-.06s.01-.04.02-.06l-.05-.05c.01-.01.03-.05.05-.11.04 0 .06-.01.07-.02.02-.02.04-.05.05-.09s.03-.07.05-.09l.16-.27v-.02c.04-.01.06-.04.07-.07.01-.04.03-.07.05-.09-.02-.02-.05-.03-.07-.02s-.04 0-.05-.04c.01-.07.04-.12.1-.13.05-.02.11-.04.15-.06.02-.05.04-.08.04-.11.02-.02.05-.04.07-.05s.05-.01.07-.03c.01-.02.02-.05.02-.07.02-.04.05-.07.09-.1s.07-.06.11-.1c.02 0 .07-.01.14-.04 0-.01 0-.02-.01-.04-.01-.01-.01-.02-.01-.04l.18-.18c.04-.01.07-.02.1-.03s.06-.01.1-.03c.02-.04.04-.08.05-.12s.04-.07.09-.08l.13-.13c.04-.04.09-.08.13-.12l.27-.22c.04-.01.08-.03.13-.05 0-.02 0-.04-.01-.04-.01-.01-.01-.02-.01-.03.07-.05.17-.09.29-.13v-.04c.07.02.13.04.16.04s.08-.01.13-.04c.08-.05.19-.07.31-.07.04 0 .07.01.11.02s.07.02.09.04c.06.05.11.1.14.14s.08.09.14.13.1.08.11.14c0 .04.01.07.02.09.02.02.04.07.04.13-.04.02-.08.07-.14.13-.01.02-.02.05-.02.07-.05.06-.09.11-.13.16s-.08.1-.1.16c-.05.06-.09.12-.13.18s-.09.1-.16.13c-.01.06-.03.11-.06.13-.03.03-.06.06-.1.1l-.09.09c-.01.01-.02.02-.02.04 0 .01-.01.02-.02.04-.02.04-.05.08-.07.12s-.05.08-.07.12c-.05.02-.08.04-.09.05-.06.08-.11.17-.14.25s-.09.16-.16.22c-.02.1-.06.17-.11.22-.05.07-.08.13-.11.18-.06.05-.1.13-.13.23-.02.07-.05.13-.07.16-.02.04-.05.08-.08.12s-.04.08-.04.12c-.02.04-.04.07-.05.09s-.03.05-.05.07c-.07.08-.11.19-.13.31-.01.02-.03.05-.04.08-.02.03-.04.06-.06.1.01.02.02.04.02.05s.01.03.02.05c-.01.02-.02.05-.04.09-.01.04-.02.08-.04.13 0 .02.01.04.02.05-.02.07-.07.13-.13.16.01.02.04.05.07.09-.02.01-.05.04-.09.07.04.11.04.21.02.29-.05.02-.08.05-.11.07 0 .02-.01.05-.02.07s-.02.04-.04.04-.02.02-.04.04c.01.02.02.04.03.04s.01.02.03.04.06.03.1.01.08 0 .1.04c-.01.02-.04.05-.07.09 0 .02 0 .05.01.07s.01.05.01.07c-.01 0-.03.01-.05.04.01.01.02.02.02.03s.01.01.02.03c-.04.04-.04.1-.02.2-.02.02-.04.05-.05.07.13.08.17.17.13.27-.01.06-.02.14-.02.23 0 .07.01.13.02.16-.02.07-.02.14.01.21s.04.13.04.21c.01 0 .03.01.05.04l-.05.05c0 .11.01.19.04.25.02.04.04.07.06.11s.02.08.01.13c-.01.02-.02.04-.01.05s.01.02.01.04c.01.02.02.04.02.06s.01.04.02.06c.02.1.05.17.07.22l.04.04c.06.01.09.05.09.13.01.02.01.04.01.04s-.01.02-.01.04v.11c.07.05.12.08.14.11-.02.05-.01.12.04.22.01.01.02.02.02.04s.01.03.02.05c.06.08.07.17.02.25v.04c.07.04.15.02.23-.04.02.06.02.11-.02.14s-.05.07-.05.12c.02.02.05.04.07.05s.04.03.05.06c-.01.01-.02.02-.02.04s-.01.02-.02.04c.1.17.18.3.26.39s.15.15.21.19c.12-.02.21-.03.27-.02 0 .02 0 .04.01.05s.01.03.01.05c.02.02.05.04.07.04.04.1.09.17.16.22.1.05.16.09.2.13.06.04.11.07.16.1s.1.06.14.1c.02.02.05.05.07.07s.05.05.09.07c.05.01.08.04.1.09s.04.09.06.13c.01.02.02.05.03.07s.01.05.03.07c.01.02.02.05.02.09-.04.05-.1.08-.2.11-.02.02-.02.05 0 .09s.02.07 0 .09c-.04.06-.08.09-.14.09s-.11.02-.16.07c-.04 0-.07.01-.09.02-.05.05-.08.09-.11.13-.02 0-.04 0-.06-.01s-.04-.01-.06-.01c-.06.04-.14.04-.25.02-.05-.01-.1-.01-.14-.01s-.1 0-.14-.01c-.07-.02-.14-.04-.2-.04-.01-.01-.02-.02-.04-.03-.01-.01-.02-.01-.04-.03s-.05-.05-.08-.06c-.03-.02-.06-.03-.1-.04-.05-.02-.09-.05-.13-.08s-.08-.08-.1-.13c-.04-.04-.08-.07-.13-.09-.02-.01-.04-.02-.05-.02s-.08 0-.1-.01zm-2.13-3.78c.01.05.03.11.05.18.03.01.05.02.07.02s.04.01.06.02c0-.08-.02-.19-.07-.31l-.05-.05c-.02-.12-.05-.21-.07-.27h.02c-.02-.02-.04-.05-.04-.09-.01-.04-.02-.07-.04-.09-.01.01-.02.03-.02.05 0 .05.01.11.04.18.01.06.02.12.04.18-.01.06 0 .12.01.18zm.35.57c0-.05-.02-.11-.04-.17-.03-.07-.06-.11-.08-.13h-.09c.02.07.04.12.05.14.02.02.04.04.05.05l.05.05c-.02.11-.02.19.02.23.01.01.02.04.02.07 0 .05.02.1.05.14.05.07.08.13.09.16.07.17.17.32.29.47v.05l.03.06c.01.02.02.04.04.06s.04.05.06.08.03.06.04.1c0 .02.01.05.04.07.05.04.09.07.13.11s.08.07.13.11h.05c-.02-.02-.04-.04-.05-.06s-.02-.04-.04-.06c-.02-.04-.05-.09-.07-.16-.01-.01-.02-.02-.03-.02s-.02-.01-.03-.04c-.01-.07-.04-.14-.09-.21s-.09-.13-.13-.21c-.02-.05-.05-.09-.08-.13s-.06-.09-.1-.15c-.02-.05-.04-.08-.04-.11-.01-.04-.02-.07-.04-.1s-.02-.06-.04-.08-.04-.05-.05-.07c-.01-.08-.06-.17-.14-.25zm.46.33c-.02-.05-.04-.09-.05-.13-.05.04-.07.07-.05.09.01.05.04.06.1.04zm.02.07c-.02.01-.05.03-.07.05l.18.18c.04-.08 0-.16-.11-.23zm.2-2.81c.05-.02.08-.04.09-.04.01-.02.02-.04.02-.05s.01-.02.02-.04v-.16c-.01-.01-.02-.03-.02-.04s-.02-.03-.07-.04c.02.05.03.09.01.13s-.03.08-.03.13l-.07.04c.01.02.02.04.03.04 0-.01.01.01.02.03zm-.05.81c.05.05.1.07.16.05-.01-.02-.02-.05-.03-.07s-.01-.05-.03-.07h-.07c-.02.05-.03.08-.03.09zm.1-1.48c-.02.02-.05.04-.07.05l.11.06v.04.02c.07-.08.07-.17 0-.25-.01.02-.02.04-.02.04s0 .02-.02.04zm-.05 1.66c.02.08.05.14.09.16.01-.02.02-.05.04-.09.01-.04.01-.07-.02-.09-.05 0-.09.01-.11.02zm.05-.31c.04-.05.04-.11.02-.2-.01 0-.02 0-.03.01s-.02.01-.03.01v.16c.02.01.03.01.04.02zm1.46 2.87v-.11c.02-.01.04-.02.04-.04.01-.01.02-.02.04-.04.04.02.05.05.04.07s0 .05.01.07l-.05.05c-.02 0-.04 0-.04-.01 0 .01-.01.01-.04.01z"/><path d="m23.25 35.65c.07.05.16.05.27 0 .02-.01.05-.01.09 0 .02.01.06.02.11.02.02 0 .03-.01.03-.02-.01-.01 0-.01.03.02.04.01.07 0 .1-.04s.06-.05.08-.03c.01.01.03.01.06-.01s.04-.02.04-.01c.06.06.09.06.1.01s.04-.1.1-.13c.04-.02.08-.02.13.01s.09.03.13.01c.06-.02.12-.05.17-.08s.11-.06.17-.08c.02-.01.05-.02.07-.04.02-.01.05-.02.07-.02.04-.01.07-.02.1-.04.03-.01.06-.02.1-.04l.02-.02c.06-.01.12-.02.18-.04.06-.01.12-.02.18-.04.06-.01.12-.02.18-.03s.12-.01.18-.01c.07 0 .16.01.25.04.12.02.2.05.25.09 0 .01 0 .02-.01.03s-.01.02-.01.03c0 .11-.04.18-.11.22-.02.01-.04.03-.06.04-.02.02-.04.03-.08.04s-.04.05-.02.13v.02.02c-.02.01-.04.02-.06.03s-.04.02-.06.04c-.02.03-.03.08-.03.15 0 .05-.02.08-.05.09-.07.04-.13.1-.16.18 0 .04-.01.05-.04.05-.04.02-.07.05-.09.07s-.05.05-.07.07c-.1.13-.21.23-.34.29-.01 0-.02 0-.02.01s-.01.01-.02.01c-.07 0-.14.02-.21.06s-.13.08-.19.1c-.05.01-.09.02-.13.04-.04.01-.08.02-.13.04-.05 0-.08.01-.11.02-.02 0-.05.01-.07.04-.04.04-.08.04-.13.02-.04-.04-.07-.02-.09.04-.06.08-.08.16-.07.22v.07c-.04.07-.04.15-.02.23.01.04.01.07-.02.1s-.03.06-.02.1c0 .01 0 .02-.01.04-.01.01-.01.02-.01.04.01.13.01.26 0 .38v.04c.01.1.02.19.02.27s.01.17.02.27c0 .01 0 .02-.01.04-.01.01-.01.02-.01.04s0 .05.01.08.01.06.01.08c.01.01.02.03.02.05-.01.05-.02.13-.02.25.04.07.05.14.05.2-.01.02-.01.05-.01.09.01.04 0 .07-.03.09.01.06.01.12-.02.18-.02.06-.02.12 0 .18.01.06.04.09.09.09.02-.01.04-.02.06-.02s.04-.01.06-.04c.02-.01.04-.02.06-.02s.04-.01.06-.02c.02 0 .04-.01.04-.02.02-.04.06-.05.11-.05s.08-.01.11-.04c.06 0 .11-.01.14-.03.04-.02.08-.03.14-.04.07 0 .12-.01.14-.04.05-.02.09-.04.13-.04s.08-.01.12-.04l.02-.02.38-.05c.05-.01.09-.02.13-.04s.08-.02.13-.04.1-.03.14-.05c.05-.02.1-.02.16 0h.07c.06-.01.12-.02.17-.03s.11-.01.17-.01c.08-.02.16-.02.23.02.02 0 .04 0 .06-.01s.04 0 .06.01c.04 0 .07.01.11.02-.02.02-.04.05-.05.07s-.02.05-.04.07c-.02.04-.05.07-.08.11s-.06.08-.08.13c-.02.08-.08.13-.16.13-.04.01-.07.04-.09.09v.04c0 .07-.01.13-.02.18-.02.02-.05.05-.07.07s-.06.04-.11.05l-.02.02c0 .02 0 .04-.01.05s-.01.03-.01.05c-.04.04-.05.07-.05.09s-.01.04-.02.05c-.02.02-.03.04-.01.06s.01.04-.01.06c-.05.02-.08.05-.11.07v.04c-.02.02-.04.04-.05.06s-.03.03-.05.03c-.06.02-.13.08-.2.18-.11 0-.2.07-.29.2-.06 0-.1.01-.13.02-.01.01-.02.03-.03.04-.01.02-.01.03-.03.03-.06.02-.11.05-.14.08-.04.03-.08.06-.14.08-.02.02-.04.03-.06.03-.02-.01-.03 0-.04.01-.04.02-.08.04-.14.04h-.11c-.06-.01-.12-.01-.17-.01s-.11.01-.17.01h-.05c-.02.04-.05.05-.08.05s-.06.01-.08.04c-.02.02-.05.04-.08.05s-.06.02-.08.04c-.04.02-.07.06-.09.1s-.02.08 0 .1.03.04.03.06c-.01.02-.01.04-.01.06.02.04.01.09.01.16 0 .02 0 .04.01.04.01.01 0 .02-.01.04-.04 0-.04.02 0 .05.02.04.03.07.03.11-.01.04 0 .07.01.11-.02.02-.03.04-.02.06s.02.04.04.06c.02.05.04.11.04.2 0 .04 0 .08.01.12s.01.08.01.12c.02.02.03.04.02.05-.02.04-.02.07 0 .09.01.12.02.23.03.34s.02.22.05.34c0 .05.01.08.02.09s.02.04.02.09c-.01.05-.01.08-.01.1.01.02.01.06.03.12.01.05.02.09.04.13.01.04.02.08.02.13.01.02.02.05.02.08s.01.06.04.08c.02.05.04.09.05.13s.03.09.05.13c.01.02.01.04.01.05-.01.01 0 .03.03.05l.04.07c.01.04.03.1.05.2.04.04.07.06.09.07.01 0 .03.01.04.02.02.01.04.01.06-.02 0-.01.01-.02.04-.02.06.02.11.03.16.01s.1-.03.16-.04c.24-.02.47-.06.68-.11.06-.01.12-.02.17-.03s.11-.01.17-.03c.06-.01.11-.03.16-.04.05-.02.1-.03.16-.04.02 0 .04-.01.04-.04.02-.02.05-.04.07-.05s.05-.02.09-.04c0 .06-.01.09-.02.09-.02.01-.05.04-.07.09s-.05.09-.08.13-.06.08-.08.13c-.01.02-.03.03-.05.03-.02-.01-.03 0-.04.03-.04.06-.08.11-.13.13-.05.03-.09.07-.13.12-.05.05-.07.09-.07.13 0 .05-.02.08-.05.09-.05.01-.09.05-.13.11-.05.05-.08.08-.11.09-.01 0-.04.02-.09.07-.02.02-.06.07-.11.14-.06-.01-.11 0-.15.04s-.09.08-.13.12c-.05.05-.12.08-.22.11-.02.01-.04.02-.06.02s-.04.01-.06.04c-.02.02-.07.04-.14.04-.04.01-.07.02-.1.02s-.06.01-.08.04h-.05c-.05-.01-.09-.01-.13-.01s-.08.01-.13.01c-.02 0-.05-.01-.08-.02s-.06-.02-.08-.04c-.07-.04-.14-.06-.22-.07-.07-.01-.14-.03-.22-.05-.02-.01-.04-.02-.05-.02s-.03-.01-.05-.02-.04-.02-.05-.04c-.01-.01-.02-.02-.04-.02s-.04-.01-.05-.02-.03-.02-.05-.02c-.07-.01-.13-.05-.16-.11-.04-.06-.08-.11-.13-.14-.02-.08-.07-.15-.13-.21-.06-.05-.1-.12-.13-.21-.01-.02-.03-.05-.04-.08-.02-.03-.04-.06-.06-.08-.01-.02-.02-.05-.01-.08s0-.06-.03-.08c-.04-.02-.07-.07-.09-.14-.01-.02-.02-.05-.01-.09s0-.07-.01-.09c0-.05-.01-.07-.04-.05l-.02-.02-.05-.22c-.02-.07-.04-.12-.04-.14-.01-.02-.02-.04-.01-.06s0-.04-.03-.06c-.01 0-.02-.01-.02-.02.01-.06.01-.13-.02-.2-.02-.07-.04-.14-.05-.2 0-.17-.02-.3-.07-.4-.01-.06-.02-.11-.02-.15s-.01-.09-.02-.15c-.01-.04-.02-.07-.02-.11s-.01-.08-.04-.13c-.04-.04-.04-.07 0-.11v-.02-.36c0-.05 0-.09-.01-.13s0-.09.03-.14c-.01-.07-.02-.14-.02-.21s0-.13 0-.19v-.22c0-.05 0-.09-.01-.13s-.01-.07-.01-.11.01-.06.02-.07c.01-.04.01-.07-.02-.09v-.02-.04c.02-.02.03-.05.02-.09s-.02-.07-.02-.11c0-.06-.01-.12-.02-.17s-.01-.11.02-.17c.01-.06.02-.11.02-.15s0-.09 0-.13c.02-.02.03-.05.02-.07s-.02-.05-.02-.07c.01-.04.01-.07.01-.12-.01-.04 0-.09.03-.13.01 0 .02-.02.02-.05 0-.02 0-.05-.01-.09s0-.07.01-.09.02-.05.02-.09c0-.07.01-.12.02-.14.02-.06.04-.13.04-.2s.01-.14.04-.2v-.05-.05c.02-.05.03-.1.03-.15s0-.11.01-.17c.02-.07.05-.14.07-.21s.05-.13.07-.21c.01-.01.02-.04.02-.07-.01-.04-.01-.07 0-.11s.02-.07.04-.11c0-.04.01-.07.02-.11s.02-.07.04-.09c0-.04.01-.07.03-.09s.02-.05.01-.09c-.01-.02-.01-.05 0-.09s.02-.07.02-.09c.01-.02.02-.05.04-.08.01-.03.02-.06.02-.08.01-.02.01-.05.01-.07-.01-.02 0-.05.01-.07.02-.05.04-.09.05-.13s.01-.09 0-.15c.05-.06.07-.13.06-.2s0-.14.03-.2c.02-.05.04-.09.04-.13.02-.1.05-.2.07-.3s.05-.2.07-.3c.01-.01.02-.04.02-.07.02-.1.05-.17.07-.22.02-.06.04-.08.04-.04.01.03.01.01.03-.05 0-.02-.01-.03-.02-.01s-.02.01-.04-.01c0-.02.01-.04.03-.05s.02-.03.01-.05c-.04-.06-.03-.09 0-.1z"/><path d="m28.54 46.54c.06-.12.08-.24.07-.35s-.02-.22-.02-.33c0-.06-.01-.12-.03-.17s-.03-.11-.03-.17c-.01-.04-.02-.1-.02-.18-.01-.06-.02-.14-.02-.25-.01-.02-.01-.05-.01-.09s.01-.07.01-.09 0-.05.01-.08.01-.06.01-.08c0-.05 0-.09.01-.14.01-.04.03-.08.08-.12-.04 0-.07-.01-.09-.02v-.16c0-.06 0-.11-.01-.16s-.01-.1-.01-.16 0-.12.01-.17.01-.11.01-.17 0-.11 0-.16-.01-.1-.02-.16c-.01-.07-.01-.15-.01-.23s0-.16-.01-.24-.01-.17 0-.25.02-.17.02-.25c0-.02.01-.06.04-.11v-.07c-.02-.13-.03-.26-.03-.38s.02-.25.03-.38c.01-.02.01-.05.01-.09-.01-.04-.01-.07-.01-.09 0-.05.01-.12.04-.22 0-.08.01-.14.02-.18v-.4c0-.02 0-.05-.01-.09s-.01-.07-.01-.11c.01-.04.02-.07.02-.11s.01-.07.02-.11c.02-.08.03-.15.02-.2-.01-.04-.01-.07-.01-.1.01-.03.01-.06.03-.1.02-.06.04-.11.04-.16s0-.1 0-.16c.02-.12.04-.2.04-.25-.01-.13-.01-.26 0-.39s.03-.25.05-.39c0-.06 0-.11.01-.16s.01-.1.01-.14c0-.06 0-.11 0-.16s.01-.1.04-.14c.04-.07.04-.15 0-.23-.05-.06-.05-.11 0-.16.01-.04.02-.09.02-.16.01-.04.02-.08.02-.14.01-.01.02-.03.02-.05-.02-.17.01-.3.09-.4.05-.1.04-.19-.04-.29.05-.05.09-.09.13-.13s.09-.08.13-.12c.07-.05.13-.07.18-.07.02 0 .04 0 .04-.01s.02-.01.04-.01c.11-.04.2-.04.27-.02.1.03.17.04.23.04.07 0 .14.01.2.04.06.02.12.04.18.05.02 0 .05.01.07.04l.13.13c.02.06.06.1.12.13s.09.07.12.12c.02.05.04.08.04.11.01.01.02.02.02.03s.01.01.02.03.02.07.02.13c0 .04.01.08.04.13.02.07.05.14.07.22.02.07.05.14.07.22.02.04.04.07.04.11s.01.07.02.11l.05.27c.01 0 .02.01.02.02-.02.08-.02.16.02.23s.07.14.09.22c.01.02.02.05.02.08s.01.06.02.08c0 .04.01.07.02.09.04.07.05.16.05.25-.01.05 0 .09.04.13.02.02.04.05.05.07.02.13.06.25.12.36.05.11.1.23.13.36 0 .04.01.07.02.09 0 .04.01.08.04.13 0 .01 0 .02.01.03s.01.01.01.03c-.02.04-.03.07-.01.1s.03.06.04.1c.01.06.02.13.04.2s.02.14.04.22c.01.02.02.07.02.13.02.07.04.14.06.21s.04.13.06.21c.02.05.04.09.04.13.01.04.02.09.04.14.01.02.02.04.02.04s.01.02.02.04l.05.16c.01.01.02.02.02.03s.01.02.02.03c.04-.01.05-.05.05-.11.02-.12.04-.24.06-.35s.04-.23.06-.35c0-.01.01-.05.04-.13v-.04c.01-.05.02-.09.02-.14 0-.04 0-.08 0-.12 0-.06.01-.13.04-.2.01-.06.02-.11.04-.16s.02-.1.04-.16c.02-.12.04-.21.04-.27.01-.02.02-.04.02-.05s.01-.02.02-.04.02-.04.02-.05.01-.03.02-.05l.04-.07.02-.02c-.01-.05-.01-.09.02-.12.02-.03.04-.06.05-.1 0-.04 0-.07 0-.12s.01-.08.02-.12v-.05c.04-.11.05-.22.05-.34-.02-.01-.02-.04.02-.07-.01-.1.01-.14.01-.17s.01-.08.02-.13c.01-.06.02-.12.02-.19s.01-.13.02-.19c.01-.08.02-.17.03-.24s.01-.15.03-.22c0-.07.03-.11.09-.13.02-.02.04-.04.04-.05.01-.05.02-.09.04-.13.01-.04.01-.09-.02-.15v-.07c.02-.06.04-.12.05-.17s.02-.11.04-.17c.01-.05 0-.1-.04-.14.02-.08.01-.14-.04-.18.02-.1.05-.17.07-.23 0-.01.01-.02.02-.03s.02-.02.04-.04c.02-.07.06-.14.1-.2s.07-.13.08-.21c.01-.07.04-.13.08-.17s.09-.08.15-.12c.02 0 .05.01.07.02.02 0 .04 0 .05.01s.03.01.05.01c.01.06.05.11.11.14.08.05.15.05.2.02.01 0 .02 0 .03.01s.02.01.04.01c-.06.08-.08.17-.07.27.02.06.04.09.05.09.07.04.08.1.04.18-.05.06-.07.12-.08.16-.01.05-.01.1-.01.16.01.06.02.13.02.2s-.01.14-.04.2c-.05.13-.04.29.02.47.02.1.02.17 0 .22 0 .02 0 .04.01.06s.01.04.01.06 0 .05.01.08.01.06.01.08c0 .05.01.08.02.11.02.07.02.13 0 .16-.01.01-.02.05-.02.13 0 .05 0 .09-.01.13s-.01.08-.01.13.01.08.02.11c.02.08.02.16-.02.22-.01.02-.02.05-.03.09s-.02.07-.03.09c-.02.05-.02.11 0 .2.02.12.03.21.02.27-.02.05-.02.09 0 .13.02.1.03.17.02.23v.02c.02.06.03.11.02.15s-.02.09-.02.15c0 .02 0 .04-.01.04s-.01.02-.01.04c-.04.1-.04.18 0 .25v.07c-.01.07-.02.14-.03.21s-.02.13-.04.21c0 .1-.01.16-.02.2s-.02.07-.02.11-.01.07-.02.11-.02.09-.02.16c-.01.04-.02.07-.02.1s-.01.06-.02.08v.14c-.01.04-.02.08-.02.14-.01.08-.02.16-.04.23s-.03.15-.05.23c0 .05.01.08.02.11.01.06.02.13.03.2s.01.14.03.22c0 .02 0 .05-.01.09s-.01.07-.01.09 0 .04-.01.06-.01.04-.01.06c0 .11-.02.18-.05.22-.02.05-.02.09 0 .13.01.08.01.17 0 .25v.09c0 .08-.01.15-.02.2-.01.02-.02.06-.02.11 0 .06 0 .11.01.16s.01.1.01.16v.05c-.04.06-.04.11 0 .14l.02.04c-.02.06-.02.12.01.17s.06.11.08.15c.02.06.04.15.04.27v.13c-.01.06 0 .13.04.2.01.01.02.03.01.04-.01.02-.01.04-.01.06-.02.06-.02.11 0 .16.06.1.09.2.09.31 0 .06.01.13.04.2.02.08.02.15-.02.2-.04.07-.05.14-.05.22.01.06.01.11-.01.14-.02.04-.04.08-.06.13 0 .02-.02.04-.07.04-.02 0-.04-.01-.04-.02-.08 0-.11.04-.09.13l-.02.02c-.01.01-.02.02-.04.02-.01 0-.02.01-.04.02-.06.01-.13.02-.2.04-.07.01-.14.01-.2-.02-.06-.01-.12-.02-.19-.04-.07-.01-.13-.03-.19-.05-.01-.01-.02-.02-.04-.02-.07 0-.14-.04-.2-.13-.05-.05-.09-.07-.13-.07h-.09c-.11 0-.17-.02-.2-.07l-.02-.02c-.1-.04-.14-.1-.14-.18l-.09-.09c-.01-.01-.02-.02-.04-.03-.01-.01-.02-.02-.04-.04-.07-.05-.12-.13-.14-.25-.02-.08-.02-.16 0-.22.04-.1.02-.19-.04-.29-.01-.02-.02-.05-.04-.08-.01-.03-.02-.06-.04-.1-.02-.06-.05-.13-.08-.2s-.06-.14-.08-.2c-.04-.1-.07-.18-.11-.26s-.07-.17-.09-.26l-.16-.38c-.04-.08-.07-.17-.1-.24s-.06-.16-.08-.24c-.04-.1-.07-.2-.1-.3s-.06-.21-.1-.32c-.05-.12-.09-.24-.13-.36s-.07-.25-.11-.38c-.01-.04-.04-.09-.09-.16-.04-.07-.08-.14-.12-.22-.04-.07-.09-.15-.13-.23l-.02-.02c-.01 0-.02-.01-.04-.02v.09c-.01.02-.02.05-.02.08s-.01.06-.04.08c-.05.07-.06.16-.04.27.01.07.01.14 0 .22-.02.12-.04.21-.04.27-.02.04-.02.07.02.11.04.05.04.09.02.13-.02.07-.04.13-.04.16l-.05.38-.05.32c0 .02-.01.05-.04.07-.02.05-.02.09 0 .13.01.02.01.05 0 .09s-.02.07-.04.09c-.02.04-.04.09-.04.16.02.1.03.19.01.3-.02.1-.04.2-.06.3-.01.02-.02.05-.02.07s-.01.05-.02.07c-.01.06-.02.11-.03.16s-.02.1-.04.16c-.04.1-.08.18-.13.26s-.08.17-.11.26c-.05.06-.08.12-.1.19s-.04.13-.08.19c-.06.14-.19.23-.4.25-.06.02-.11.02-.16 0-.05 0-.09 0-.13-.01.02-.04-.03-.05-.09-.06z"/><path d="m35.54 35.25c.01-.01.02-.02.04-.02.1 0 .17-.01.22-.04.11-.04.2-.04.27-.02.04.01.1.02.18.02h.5c.17 0 .33.01.48.04.15.02.31.05.48.07.06 0 .12.01.19.02s.13.02.19.04l.18.03.18.03c.11.02.19.03.25.02.06 0 .14.01.23.04.07 0 .14 0 .22.01.07.01.14.02.22.03h.02c.1-.01.18-.02.26-.02s.17 0 .26 0h.29c.06 0 .11 0 .16.01s.1 0 .16-.01c.08-.01.17-.01.24 0 .08.01.15.03.22.05.06.01.12.02.19.04.07.01.13.03.19.05.01 0 .02 0 .03.01s.01.01.03.01c.06.02.11.06.16.1s.1.06.16.04c.01.05 0 .08-.03.09s-.06.03-.08.05c0 .04.01.06.04.08s.06.04.08.06c.02 0 .05 0 .08.01s.06.01.08.01c.06-.02.11-.01.16.04.02 0 .04.01.05.02.02.01.04.02.06.02s.04.01.06.02c.04.02.05.07.05.13 0 .01.02.04.05.07-.02.06-.03.1-.03.11.01.01.04.04.1.09-.01.07-.05.11-.11.13-.02 0-.05 0-.07.01s-.05.01-.07.01c-.1.05-.11.11-.04.18.02.02.04.07.04.14v.13c0 .04.02.08.07.1.01.08-.02.16-.11.22-.04.02-.07.05-.1.07s-.06.04-.1.05c-.04 0-.05.03-.05.09s-.04.11-.11.16c-.04.04-.07.04-.11.02s-.07-.02-.09 0c-.01.01-.03.02-.05.02-.06.01-.12.02-.17.04-.05.01-.11.01-.17-.02-.06-.02-.11-.02-.14 0-.06.05-.1.03-.13-.05-.01.01-.02.02-.03.02s-.02.01-.03.02c-.07.07-.14.08-.22.02-.04-.04-.07-.04-.11-.02-.04.01-.08 0-.14-.04-.05-.02-.08-.04-.11-.04-.05-.01-.09-.02-.13-.04-.04-.01-.07-.01-.11 0-.01 0-.02-.01-.02-.02-.04-.04-.08-.06-.13-.06-.05-.01-.09-.02-.13-.04-.02 0-.04-.01-.05-.02-.02-.04-.08-.07-.16-.09-.01-.02-.01-.04 0-.06s0-.04-.04-.06c-.01.01-.02.02-.02.03s-.01.02-.02.03c-.05.05-.09.05-.13 0-.01-.02-.05-.05-.11-.09-.12-.02-.17.02-.14.13.01.02.02.04.02.06s.01.04.02.06.03.04.04.06l.06.06c.04.04.04.08.02.14-.01.05.01.08.05.09.05.01.08.04.09.09.01.04.02.07.02.1s.01.06.02.08c0 .02.01.04.02.05l.05.05c-.01.04-.02.08-.02.12s-.01.09-.04.14v.04c.02.02.03.05.02.08s-.02.06-.02.08c0 .05-.02.12-.07.22-.01.06-.03.14-.05.23-.01.02-.02.05-.02.07s-.01.05-.02.07c-.02.04-.04.1-.04.18v.11c-.04.1-.04.19-.02.29 0 .05-.01.08-.02.09-.02.04-.04.07-.04.1s-.01.06-.02.1c0 .06-.01.14-.04.23-.04.12-.05.23-.04.34.01.06.02.13.04.2s.02.14.04.2c.01.06.03.12.05.18s.02.12 0 .18c0 .01.01.02.02.02.04.08.02.16-.04.23.05.06.06.12.04.18 0 .02.01.05.04.07.02.01.04.05.04.11-.02.06-.02.11 0 .14v.04c-.01.06-.02.11-.03.15s-.02.09-.03.15v.04c.02.06.03.11.02.15s-.02.09-.04.15c-.01.05-.02.1-.04.14-.01.05-.02.1-.04.14-.01.04-.02.07-.02.1s-.01.06-.02.1c-.01.06-.02.12-.02.18s-.01.12-.04.18c-.02.07-.03.13-.02.18.02.06.02.12 0 .18-.01.04-.02.07-.03.11s-.02.07-.04.09c-.04 0-.04.02 0 .05.01.08.01.16.01.23-.01.07-.01.15-.03.23-.01.02-.01.05-.01.08.01.03 0 .06-.01.1 0 .05-.01.12-.04.22-.01.06-.02.12-.03.19s0 .13.01.19c0 .1-.01.19-.02.27s-.04.17-.09.25c-.05.12-.09.2-.13.25-.02.06-.02.1 0 .13.02.02.04.04.04.06.01.02.01.04.03.06-.02.02-.05.04-.07.04s-.04.01-.04.04c-.02.07-.04.11-.04.13-.07-.01-.14-.01-.22 0s-.14.02-.2.02c-.08 0-.16 0-.23-.01s-.14-.01-.22-.01c-.01 0-.02.01-.04.02-.06.02-.11.03-.15.02s-.09-.02-.15-.04l-.07-.04h-.05c.09.03.07.04.05.03s-.04-.01-.06-.03c-.05 0-.08-.02-.09-.05-.02-.04-.02-.09 0-.16s.04-.12.04-.14c0-.08-.01-.17-.03-.24-.02-.08-.03-.16-.04-.24 0-.02 0-.05-.01-.09s-.01-.07-.01-.09v-.04c0-.04-.01-.07-.02-.11s-.01-.08 0-.13c0-.04 0-.07-.01-.12-.01-.04-.01-.08-.01-.12 0-.06 0-.11-.01-.15s-.01-.09-.01-.15c0-.02 0-.04-.01-.05s-.01-.02-.01-.04v-.04c.01-.08.01-.17-.01-.24-.02-.08-.02-.16-.01-.24.01-.11.02-.21.02-.31s0-.2 0-.3c.02-.26.02-.5-.02-.7v-.07c.04-.16.04-.34.02-.54-.01-.06-.02-.11-.02-.16s0-.1 0-.16v-.16c-.01-.06-.02-.12-.02-.18s0-.12 0-.18c0-.02 0-.04-.01-.05s-.01-.03-.01-.05c.01-.06.02-.12.02-.18s0-.12 0-.18v-.31c.01-.08.02-.16.01-.24s0-.16.01-.24v-.11c.01-.02.02-.05.02-.07-.01-.06-.01-.11 0-.15s.02-.09.04-.14c.02-.11.05-.21.07-.31s.04-.21.04-.33c0-.05 0-.09.01-.13s.01-.09.03-.15c.01-.06.02-.11.03-.15s.01-.09.03-.15.05-.15.07-.27c.02-.07.04-.14.05-.21s.02-.13.04-.19c.01-.06.02-.12.03-.17s.01-.11.01-.17l.05-.27.05-.22c0-.06.01-.11.03-.15s.04-.09.06-.13c.01-.02.02-.04.02-.06s.01-.04.02-.06c.02-.07.05-.12.07-.14.07-.13.04-.22-.11-.25-.05 0-.11-.01-.18-.04-.04-.02-.07-.04-.1-.05s-.06-.03-.1-.05c-.02-.01-.05-.02-.09-.04s-.07-.02-.11-.04c-.06-.02-.12-.04-.18-.04-.06-.01-.12-.02-.18-.04s-.12-.05-.17-.07-.11-.07-.15-.12c-.02-.04-.05-.05-.09-.05-.02 0-.04 0-.04-.01-.01-.01-.02-.01-.03-.01-.06-.05-.11-.09-.16-.12s-.09-.08-.13-.13c-.01 0-.02 0-.03-.01s-.02-.01-.03-.01l-.05-.05c-.02-.05-.05-.08-.08-.11-.03-.02-.06-.05-.08-.09-.02-.02-.04-.04-.04-.05-.02-.09-.02-.12-.02-.16z"/><path d="m45.85 35.38c-.02.01-.05.02-.07.02-.13 0-.25.02-.36.05-.01.01-.03.02-.05.02-.02.02-.04.05-.04.07s.02.04.05.04h.16c.04 0 .07 0 .1-.01s.06 0 .1.03c.05.02.08.02.11 0 .05-.02.1-.03.14-.03.05.01.09-.01.13-.06-.02-.04-.05-.05-.09-.04s-.07 0-.09-.03c.06-.06.13-.08.2-.05l.59.22c.05.01.09.05.13.11.02.04.05.07.09.1s.07.06.11.08c.07.02.11.06.13.11s.05.1.13.14c.04.04.05.07.05.09-.02.04-.05.05-.09.05-.04.02-.08.04-.12.06s-.09.04-.13.06c-.05.02-.1.04-.14.05s-.1.03-.14.05l-.07.04c-.06.06-.13.1-.22.13-.08.02-.16.07-.22.13-.05.05-.1.09-.16.13s-.12.08-.18.13c-.04.02-.07.07-.09.13-.04.06-.08.11-.14.14-.07.05-.11.1-.13.14-.06.08-.11.17-.16.24-.05.08-.1.17-.14.26-.01.02-.03.07-.05.14-.01.04-.02.07-.02.11s-.01.08-.02.13v.04c-.04.05-.05.1-.05.15s-.01.11-.04.17c-.02.13-.01.29.05.49.01.06.05.11.11.14.05.01.07.04.07.09 0 .13.05.26.14.4.04.05.07.1.1.14s.06.1.1.16l.04.07.11.16c.06.08.11.17.16.26s.11.17.2.22c.01.01.02.02.02.04.02.08.06.16.12.23.05.07.1.13.15.19.02.04.05.07.09.1s.07.06.09.1c.05.05.09.1.13.14.04.05.08.1.12.14.05.06.09.12.13.17s.07.11.11.17c.02.04.05.08.08.12s.06.08.08.12c.06.07.12.14.17.22.05.07.1.16.15.25.02.05.04.09.06.13s.04.08.06.13c.01.02.02.04.02.05s.01.03.02.05c.02.08.04.17.06.25s.05.17.1.25c.01.01.02.02.02.03s.01.02.02.03c.04.13.09.26.16.4 0 .01 0 .02.01.04.01.01.01.02.01.04.01.07.03.14.05.21s.04.13.05.19c.02.1.04.19.05.27s.03.17.05.25c.01.02.01.04 0 .06s-.02.04-.02.06c-.02.05-.02.09 0 .13s.04.08.04.12-.01.08-.02.12c0 .06-.01.15-.04.27-.02.05-.05.08-.07.11-.04.02-.07.05-.09.09-.06.1-.16.19-.29.27-.02.02-.05.04-.07.05s-.05.03-.07.05c-.06.04-.12.06-.19.07s-.14.02-.21.04c-.07.01-.14.03-.21.05s-.13.07-.19.13c-.04.05-.08.08-.14.11-.02 0-.06.01-.11.04-.13.11-.26.16-.38.14-.07-.01-.14-.01-.21.01s-.13.03-.19.04h-.04c-.07.01-.15.02-.23.02s-.15.01-.22.02c-.05 0-.11-.01-.18-.04-.05-.04-.11-.04-.18-.02-.02 0-.04 0-.06.01s-.04.01-.06.01c-.05 0-.08-.01-.11-.02-.07-.02-.13-.03-.18-.02-.13.02-.23-.01-.29-.11-.04-.04-.08-.05-.14-.05-.04.02-.07.02-.11 0-.06-.02-.13-.05-.21-.06s-.15-.04-.22-.06c-.1-.04-.11-.1-.05-.2.02-.05.07-.12.14-.22.06-.1.13-.18.2-.26s.16-.15.25-.21c.1-.06.19-.11.28-.15s.18-.08.28-.12c.17-.07.3-.17.4-.31.05-.06.1-.12.14-.17.05-.05.09-.11.13-.17.04-.05.07-.09.11-.13s.07-.08.09-.13c.1-.13.14-.27.14-.41.01-.19 0-.41-.04-.65-.02-.17-.07-.33-.13-.5-.06-.16-.13-.33-.2-.5-.01-.02-.02-.05-.04-.08-.01-.03-.02-.06-.04-.08-.04-.1-.08-.18-.13-.25s-.1-.15-.14-.23c-.04-.05-.07-.09-.1-.13s-.06-.09-.1-.15c-.06-.08-.12-.16-.18-.23s-.12-.15-.18-.23c-.08-.11-.16-.21-.23-.31s-.13-.22-.18-.35c-.01-.01-.02-.02-.02-.03s-.01-.02-.02-.03c-.04-.04-.06-.08-.08-.13s-.04-.1-.06-.14c-.01-.01-.02-.02-.02-.04-.05-.12-.1-.23-.16-.34s-.1-.22-.13-.34c-.04-.12-.07-.23-.11-.34s-.07-.22-.09-.32c-.02-.12-.04-.24-.06-.35s-.02-.23-.01-.35c0-.05 0-.1.01-.14.01-.05.02-.1.03-.16.01-.04.02-.08.02-.12s.01-.09.02-.13c.02-.12.05-.21.07-.27.02-.11.05-.22.09-.32.04-.11.08-.21.14-.31l.11-.27c.11-.26.29-.49.56-.68.12-.1.23-.17.34-.21.06-.02.12-.04.18-.05s.12-.03.18-.05c.02-.01.05-.02.08-.02s.06-.01.08-.02c.2-.07.41-.09.61-.05zm-2.28 3.89c.01.02.02.04.02.05s.01.03.02.05c.02.04.04.07.06.1s.04.06.06.08c.01.04.02.07.04.11s.02.07.04.09c.01.06.02.11.03.16s.02.1.04.16c0 .02.01.04.04.04.04.04.08.04.13.02.04-.04.05-.08.04-.14-.01-.02-.02-.04-.04-.06-.01-.02-.02-.04-.04-.06-.02-.06-.05-.12-.08-.19s-.06-.13-.08-.19c-.02-.05-.04-.09-.05-.13s-.03-.08-.05-.13c-.04-.07-.07-.11-.11-.11-.02.01-.04.03-.04.06-.01.04-.02.07-.03.09zm1.01 1.74c-.02-.05-.04-.08-.04-.09-.02-.02-.05-.03-.09-.02-.02.01-.03.04-.02.07 0 .05.03.07.09.07.01.01.03 0 .06-.03z"/></g></svg>