<?xml version="1.0" encoding="utf-8"?>
<!-- Generator: Adobe Illustrator 21.0.2, SVG Export Plug-In . SVG Version: 6.00 Build 0)  -->
<svg version="1.1" id="Objects" xmlns="http://www.w3.org/2000/svg" xmlns:xlink="http://www.w3.org/1999/xlink" x="0px" y="0px"
	 viewBox="0 0 98.5 97.75" style="enable-background:new 0 0 98.5 97.75;" xml:space="preserve">
<style type="text/css">
	.st0{fill:#F7931E;}
	.st1{fill:#F8A13B;}
</style>
<g>
	<circle class="st0" cx="48.5" cy="49.5" r="45"/>
	<g>
		<g>
			<g>
				<g>
					<path class="st1" d="M95.92,49.15c-0.02,0.44,0.4,0.28,0.47,0.35C96.26,48.76,95.81,49.17,95.92,49.15z"/>
					<polygon class="st1" points="94.34,42.08 94.53,42.18 93.95,41.21 					"/>
					<path class="st1" d="M92.87,35.6c-0.51,0.81,0.72,2.3,0.77,3.51l-0.11,0.22l0.69,0.4C93.77,38.34,92.95,36.63,92.87,35.6z"/>
					<path class="st1" d="M93.09,31.69c-0.18,0.32-0.49-0.66,0.21,0.83c0-0.09,0.01-0.12,0.01-0.17
						C93.26,32.21,93.19,32.02,93.09,31.69z"/>
					<path class="st1" d="M93.31,32.35C93.58,33.03,93.37,31.82,93.31,32.35L93.31,32.35z"/>
					<path class="st1" d="M91.87,29.34l0.64,0.76c0.06-0.25-0.27-1.03-0.03-0.8C91.93,28.47,91.87,28.73,91.87,29.34z"/>
					<path class="st1" d="M91.01,28.76l0.31,0.39C91.34,29.05,91.3,28.92,91.01,28.76z"/>
					<path class="st1" d="M91.96,30l-0.65-0.84c-0.04,0.17-0.25,0.28,0.28,0.39C91.36,29.56,91.64,29.66,91.96,30z"/>
					<path class="st1" d="M92.12,30.57c0.1,0.54,0.23,1.21-0.34,0.44c0.39,0.8,0.63,1.12,0.74,1.01
						C92.59,31.92,92.56,31.37,92.12,30.57z"/>
					<path class="st1" d="M92.05,35.5c0.01,0.23,0.03,0.47,0.01,0.71l0.38,0.5c-0.09-0.13-0.13-0.46-0.17-0.75
						C92.22,35.68,92.15,35.45,92.05,35.5z"/>
					<path class="st1" d="M89.36,23.95c-0.16,0.03-0.18,0.49-0.31,0.65l0.51,0.51C89.46,24.75,89.19,24.11,89.36,23.95z"/>
					<path class="st1" d="M89.05,24.6l-0.76-0.75C88.74,24.66,88.94,24.74,89.05,24.6z"/>
					<polygon class="st1" points="90.22,28.96 91.45,30.25 90.08,28.67 					"/>
					<polygon class="st1" points="87.08,20.61 87.73,20.88 86.66,20.35 					"/>
					<path class="st1" d="M85.4,18.53c0.52,0.14-0.03-0.77,0.42-0.54c-0.53-0.51-1.15-0.81-1.69-1.08
						C84.62,17.27,85.03,17.77,85.4,18.53z"/>
					<path class="st1" d="M83.26,16.45c0.25,0.17,0.55,0.31,0.87,0.47C83.86,16.73,83.58,16.56,83.26,16.45z"/>
					<path class="st1" d="M87.37,22.33c0.03-0.12,0.13-0.38-0.14-0.91L87.13,22C87.2,22.1,87.28,22.22,87.37,22.33z"/>
					<path class="st1" d="M87.12,22.02l0-0.02c-0.26-0.36-0.43-0.62-0.51-0.72C86.68,21.37,86.83,21.6,87.12,22.02z"/>
					<path class="st1" d="M87.43,22.42c-0.02-0.03-0.04-0.05-0.06-0.08C87.35,22.39,87.36,22.42,87.43,22.42z"/>
					<path class="st1" d="M89.32,26.4c-0.52-0.4-1.39-1.33-1.08-0.12C88.72,26.5,88.54,25.8,89.32,26.4z"/>
					<path class="st1" d="M87.29,23.13c0.19,0.31,0.33,0.65,0.5,0.98c0.08-0.08,0.12-0.34,0.37-0.15
						C87.87,23.68,87.6,23.39,87.29,23.13z"/>
					<polygon class="st1" points="86.86,22.78 87.29,23.13 87.08,22.78 					"/>
					<path class="st1" d="M84.24,18.13c-0.46-0.23-0.82-0.61-1.24-1.02c0.36,0.52,0.77,1.04,1.18,1.49
						C84.35,18.57,84.71,18.62,84.24,18.13z"/>
					<path class="st1" d="M85.67,20c-0.03-0.02-0.06-0.05-0.08-0.07C85.6,20.01,85.62,20.05,85.67,20z"/>
					<polygon class="st1" points="78.81,13.1 78.83,13.22 78.89,13.18 					"/>
					<path class="st1" d="M84.2,18.73c0.25,0.4,0.52,0.54,0.81,0.66c-0.27-0.24-0.54-0.5-0.82-0.79
						C84.11,18.61,84.08,18.63,84.2,18.73z"/>
					<path class="st1" d="M81.98,15.4c0.13,0.23,0.27,0.48,0.42,0.75C82.35,15.87,82.13,15.38,81.98,15.4z"/>
					<path class="st1" d="M85.58,19.73l0.06,0.05C85.62,19.59,85.6,19.63,85.58,19.73z"/>
					<path class="st1" d="M85.58,19.73c-0.2-0.16-0.39-0.25-0.58-0.34c0.2,0.21,0.4,0.39,0.59,0.54
						C85.58,19.86,85.58,19.79,85.58,19.73z"/>
					<path class="st1" d="M75.74,14.2c0.28-0.25,1.53,0.11,1.99,1.16c0.94,0.45,1.32-0.96,1.1-2.14c-0.14,0.12-0.22,0.2-1.23-0.25
						c0.21,0.36,1.48,1.93,0.58,1.6c-0.57-0.4-0.79-0.59-0.89-0.77c-0.1-0.19-0.1-0.36-0.31-0.65c0.15,0.73-1.86-0.5-2.04,0.27
						l1.12,0.52C75.99,14.04,75.54,13.92,75.74,14.2z"/>
					<path class="st1" d="M80.34,14.65l0.36,0.27c-0.33-0.39-0.49-0.76-0.79-1.45c-0.69-0.36-0.89-0.35-1.02-0.28l1.6,1.53
						L80.34,14.65z"/>
					<path class="st1" d="M82.17,16.29c-0.53,0.02-1.47-0.53-1.3,0.23c0.94,0.87,0.88,0.4,1.55,0.83c-1.49-1.48,0.58,0.28-0.27-1.02
						c0.33,0.26,0.6,0.52,0.85,0.77c-0.22-0.32-0.42-0.64-0.6-0.95c0.01,0.02,0.01,0.04,0.01,0.05l0.01,0.01l-0.01,0
						c0.02,0.11,0.02,0.15-0.03,0.05c-0.01,0-0.03-0.02-0.04-0.03C82.3,16.28,82.24,16.28,82.17,16.29
						c-0.35-0.52,0.02-0.15,0.18-0.04c0.02-0.01,0.05-0.01,0.06-0.03l0-0.01c-0.53-0.48-1.15-0.86-1.71-1.3
						C80.99,15.27,81.44,15.61,82.17,16.29z"/>
					<path class="st1" d="M86.89,25.82c0-0.07,0.03-0.09,0.05-0.11C86.82,25.63,86.77,25.6,86.89,25.82z"/>
					<path class="st1" d="M86.67,24.97c0.13,0.09,0.34,0.11,0.55,0.55c0.11,0.43-0.18,0.11-0.29,0.2c0.25,0.19,0.79,0.71,0.5-0.18
						l-0.13-0.09c-0.3-0.78-0.41-2-0.29-1.91C86.82,23.95,86.71,24.29,86.67,24.97z"/>
					<path class="st1" d="M84.55,20.57c-0.38-0.43-0.84-0.8-1.28-1.18l0.3,0.89l0.14-0.18C84.28,20.91,84.34,20.59,84.55,20.57z"/>
					<path class="st1" d="M78.8,12.8l0.47-0.19c-0.38-0.08-0.82-0.1-1.22-0.14L78.8,12.8z"/>
					<polygon class="st1" points="76.91,11.45 77.22,11.19 76.59,11.01 					"/>
					<path class="st1" d="M11.86,71.19l0.34,0.34C12.05,71.36,11.95,71.26,11.86,71.19z"/>
					<path class="st1" d="M10.27,68.2l-0.21,0.01C10.23,68.3,10.32,68.33,10.27,68.2z"/>
					<path class="st1" d="M23.53,9.15c-0.84,0.08-1.9,0.05-1.57,0.38l0.44,0.24C22.81,9.43,23.19,9.25,23.53,9.15z"/>
					<path class="st1" d="M4.48,40.67c0.05-0.06,0.11-0.12,0.16-0.18c-0.1-0.2-0.2-0.39-0.29-0.56C4.39,40.15,4.41,40.4,4.48,40.67z
						"/>
					<path class="st1" d="M6.17,41.5l-0.41,0.85C5.88,42.17,6.02,41.89,6.17,41.5z"/>
					<path class="st1" d="M24.67,84.27c0.23-0.01,0.45-0.02,0.69-0.06C24.66,83.74,24.85,84.12,24.67,84.27z"/>
					<path class="st1" d="M55.24,2.66c-0.62-0.27-1.14-0.42-1.59-0.5C54.41,2.52,54.98,2.98,55.24,2.66z"/>
					<path class="st1" d="M7.13,72.28c0.23,0.23,0.38,0.31,0.46,0.25C7.36,72.29,7.19,72.17,7.13,72.28z"/>
					<path class="st1" d="M51.75,2.03c0.11,0.05,0.22,0.08,0.34,0.12c0.48-0.04,0.98-0.11,1.56,0.01
						C53.09,1.88,52.42,1.77,51.75,2.03z"/>
					<path class="st1" d="M83.76,73.28c0.04-0.03,0.08-0.08,0.12-0.1C83.84,73.14,83.8,73.19,83.76,73.28z"/>
					<path class="st1" d="M94.94,55.74c0,0.21-0.06,0.56-0.1,0.88C94.89,56.47,94.93,56.21,94.94,55.74z"/>
					<path class="st1" d="M69.05,6.47C69.51,6.66,69.14,6.46,69.05,6.47L69.05,6.47z"/>
					<path class="st1" d="M70.39,9.03c-0.11,0-0.21,0.02-0.27,0.1C70.2,9.05,70.29,9.02,70.39,9.03z"/>
					<path class="st1" d="M46.96,4.64c-0.01,0-0.02,0-0.04,0C47.06,4.72,47.03,4.71,46.96,4.64z"/>
					<path class="st1" d="M69.63,6.97c-0.14-0.13-0.31-0.26-0.51-0.39C69.2,6.66,69.35,6.78,69.63,6.97z"/>
					<path class="st1" d="M69.63,6.75C69.78,6.83,69.89,6.9,70,6.97C70.09,6.93,70.06,6.87,69.63,6.75z"/>
					<path class="st1" d="M68.42,6.2c0.26,0.12,0.49,0.25,0.7,0.39c-0.07-0.07-0.1-0.11-0.07-0.11C68.92,6.42,68.73,6.33,68.42,6.2z
						"/>
					<path class="st1" d="M54.23,92.77c0.03,0.01,0.07,0.01,0.1,0.03C54.76,92.54,54.56,92.6,54.23,92.77z"/>
					<path class="st1" d="M17.03,20.29c0.01-0.02,0.01-0.03,0.02-0.05c-0.02,0.01-0.04,0.03-0.06,0.04L17.03,20.29z"/>
					<path class="st1" d="M16.2,21.68c0.05-0.85,0.36-1.1,0.79-1.4l-1.28-0.45C15.86,20.46,16.03,21.08,16.2,21.68z"/>
					<path class="st1" d="M16.74,77.66l-0.45-1.07c1.38,0.56,1.83,1.39,1.56,0.28c-0.54,0.38-1.34-0.33-2-1.16
						c-0.66-0.83-1.32-1.65-1.92-1.32l-0.2-0.75c0.11,0.17,0.2,0.16,0.31,0.33c-0.32-1.49-1.43-0.29-2.24-1.98
						c-0.25-0.61-0.31-1.09,0.06-0.8l-1.04-1.05c-0.18-0.37,0.07-0.39,0.26-0.03c-0.4-0.61-0.71-1.27-1.06-1.9l0.04,0
						c-0.32-0.19-0.93-0.69-1.21-0.95c-0.07-0.59,0.25,0.19,0.35,0c-0.27-0.32-0.57-0.64-0.82-0.97c0.08-0.3,0.28-0.25,0.5-0.02
						c0.24,0.22,0.51,0.6,0.67,0.99c0.37-0.79,0.19-0.96-0.13-1.28c-0.28-0.32-0.69-0.79-0.74-2.06l0.55,1
						c0.47-0.95-0.09-1.67-0.06-2.99c-0.14,0.33-0.27,2.76-1.04,1.66c-0.03-0.38-0.16-0.84-0.64-1.43c0.46-0.15,0.18-0.78-0.06-1.6
						l0.63-0.11c-0.41-0.84-0.7-0.69-1.12-1.15c-0.2-1.02,0.23-1.33,0.61-1.65C7.39,56,6.93,58.91,6.52,57
						c0.02-0.7-0.07-1.28-0.25-1.88c-0.17-0.6-0.47-1.23-0.67-2.05c0.17-0.99,0.4,0.14,0.56-0.22l-0.55-0.82
						c0-0.21,0.16-0.15,0.24-0.12c-0.23-0.72-0.64-0.02-0.87-1.17c-0.35-0.15-0.16-0.75,0.1-1.48c0.28-0.73,0.56-1.58,0.2-2.31
						c0.2-0.34,0.38,0.19,0.64,0.1c-0.43-1.97-0.34-1.68-0.78-3.37l0.62-1.3c-0.63,0.92-0.99-0.44-1.28-1.69
						c-0.28,0.32-0.53,0.6-0.66,0.79c-0.02-0.64-0.05-1.29,0.02-1.92c0.16-0.2,0.33,0.04,0.51,0.39c-0.02-0.13-0.04-0.26-0.06-0.37
						c0.4-0.6,0.67-0.17,0.9,0.36c-0.18,0.19-0.37,0.38-0.55,0.56c0.31,0.53,0.67,1.03,1.05,1c-0.06-0.13-0.08-0.37-0.08-0.62
						C5.7,41,5.78,41.09,5.85,41.05c0.08-0.05-0.05-0.26-0.13-0.58l0.8-0.25l-0.25-0.16l1.01-2.15c-0.07-0.45-0.17-0.9-0.25-1.36
						c-0.05-0.45-0.1-0.92-0.13-1.42C6.87,34.15,6.87,33,7.28,31.67C7.46,32.5,8,32.14,8.56,32.42c-0.89,0.42-0.46,2.05-1.07,3.29
						c0.31-0.66,0.54-0.41,0.57-0.2l0.29-2.52c0.44,0.24,0.52-0.35,1.01-0.83c-1.13,0.03,0.19-1.93,0.36-2.99
						c0.32,0.1,0.52,0.48-0.08,1.54c1.27-0.85-0.34-2.15,0.96-2.98c-0.15,0.26-0.28,0.38-0.19,0.56c0.11-0.75,1.21-2.11,1.24-1.6
						l-0.15,0.26c0.28-0.41,0.62-0.94,0.96-1.51c0.36-0.56,0.78-1.12,1.12-1.68c0.69-1.11,1.14-2.16,0.93-2.53
						c0.1,0.06,0.61,0.85,0.68,1.06c0.02-1.49,0.15-3.01,0.29-4.6c0.32,0.74,2.37,1.06,1.57,2.56c0.41-0.26,0.83-0.65,1.38-1.5
						c-0.31,0.13-1.34-0.2-1.06-0.55c1.48-0.24,0.94-0.27,2.51-0.76c-0.46,0.21-0.83-1-0.22-1.51c0.02,0.21,0.78,0.81,0.66,1.09
						c0.21-0.71,0.45-1.43,0.75-2.09c-0.26,0.45,0.53,0.79,1.06,0.79c-0.29-0.06,1.32-0.96,1.65-1.35l-0.79,0.27
						c1.79-1.16,0.85-2.53,2.76-3.65c-0.11,0.34,0.19,1.56,1.18,1.12c0.07-0.36,0.18-1.3,0.53-2.22c0.35-0.92,0.92-1.93,1.74-2.57
						l0.48,0.13c0.41-0.34,0.82-0.69,1.27-0.96c-0.3,0.54-0.85,1.58-1.42,2.57c-0.57,1.01-1.17,1.98-1.61,2.6
						c0.84-0.13,0.38,0.24,1.44-0.3c0.51,0.1-0.37,0.7-0.67,0.86l2.54-1c-0.19-0.28,0.21-0.66,0.62-1.03
						c0.43-0.33,0.89-0.64,0.73-0.88c-0.88,0.52-1.67,1.23-2.47,1.86c-0.2-0.28-0.02-0.89,0.47-1.55c0.25-0.32,0.55-0.68,0.94-0.94
						c0.39-0.26,0.84-0.48,1.33-0.63c0.57,0.07,0.06,1.25,0.19,1.44c0.15-0.3,1.61-1.06,1.83-0.97l-0.67,0.63
						c0.55-0.07,0.9-0.43,1.29-0.76c0.4-0.32,0.87-0.54,1.59-0.4c0.46-0.07,1.52,0.5,1.5,0.1c-0.88-0.56-1.65-2.82-1.27-3.51
						c0.09,0,0.76,0.02,1.47,0.07c0.71,0.02,1.49,0.24,1.79,0.37c0.87,0.48-0.89,1.59-0.14,1.99c-0.01-0.18,0.37-0.47,0.53-0.57
						c0.51,0.08-0.1,0.59,0.92,0.35c0.07-0.7,2.12-0.27,0.41-0.64c1-0.32,1.1-0.08,2.31-0.18c-0.44-0.42,0.97-1.55,2.05-1.8
						c-0.06,0.18,0.19,0.39,0.31,0.49c0.54-0.01,1.02-0.01,1.47,0.01c0.45,0.05,0.86,0.12,1.26,0.18c0.81,0.13,1.6,0.25,2.6,0.3
						c0.17,0.17,1.11,0.43,0.68,0.69c0.29-0.08,0.58-0.27,1.19-0.19c1.1,0.76-1.36-0.12-0.55,0.72c0.12-0.38,1.62-0.3,2.54-0.42
						c-0.16-0.64-2-0.42-2.89-0.31c0.08-0.84,1.72-1.49,3.96-1.54c1.75,0.11,0.62,0.69,0.94,0.62c1.54,0.47,2.3,0.29,2.99,0.14
						c0.69-0.14,1.33-0.27,2.51,0.52c0.84,0.88-0.31,1.03-0.21,1.47c-0.68-0.14-1.15-0.41-1.57-0.66c-0.43-0.22-0.8-0.45-1.26-0.56
						l1.05,0.53c-0.48,0.06-1.4-0.04-1.85-0.31c0.74,0.6,5.13,1.59,7.14,3.08c0.46,0.02,1.22,0.18,0.99-0.17L67.22,8.5
						c-0.47-0.71,1.58,0.1,0.77-0.52c0.54,0.09,1.14,0.16,1.76,0.32c0.31,0.08,0.62,0.18,0.94,0.32c0.3,0.16,0.6,0.36,0.89,0.61
						L71.51,9.9c0.06-0.17-0.65-0.83-1.11-0.88c0.68,0.09,1.53,1.9,2.53,1.56l-0.68-0.91c1.06,0.31,2.63,0.39,3.58,1.41
						c-0.15-0.86-0.28-0.13-0.67-1.29c0.23,1.17-2.97-1.85-2.31-0.36c-0.21-0.61-0.53-0.91-0.9-1.21c-0.37-0.31-0.76-0.63-1.2-1.21
						C70.7,7.21,70.99,7.56,70,6.97C69.93,7,69.78,7.01,69.69,7.02C69.66,7,69.65,6.99,69.63,6.97l0.05,0.05
						c-0.06,0.01-0.07,0.01,0.02,0.02c0.21,0.2,0.36,0.39,0.39,0.53c-0.72,0.17-2.33-0.62-2.97-0.67c-0.56-0.38,0.35-0.09,0.1-0.45
						c-0.32-0.03-0.64-0.04-0.97-0.02c0.09-0.44-1.41-1.31,0.19-1l-1.35-0.52c-0.71-0.52-1.79-1.05-2.54-1.08
						c-0.64-0.27-1.81,0.05-1.14-0.14l-2.26-0.29l0-0.11c-1.07-0.35-2.25-0.28-3.43-0.38c-1.19-0.07-2.37-0.32-3.62-0.74
						c-0.76,0.07-1.54,0.17-2.79-0.02l-0.24-0.4c-0.96,0.07-2.93-0.28-3.33,0.12c-0.28-0.25-0.71-0.37-1.24-0.42
						c-0.26-0.02-0.55-0.03-0.85-0.02c-0.3,0.02-0.61,0.09-0.92,0.14c-1.26,0.24-2.57,0.6-3.44,0.64l0.03,0.51
						c-1.16,0.18-2.21,0.66-3.56,1.2l0.21,0.41C34.86,4.91,32.85,4.98,31,5.7c0.06-0.21,0.55-0.34,0.92-0.36
						c-0.64-0.03-1.24,0.1-1.81,0.32c-0.56,0.25-1.07,0.63-1.57,0.99c-0.99,0.75-1.96,1.41-3.05,1.65c-0.37,0.42-0.73,0.57-1.1,0.66
						c0.04-0.03,0.07-0.06,0.1-0.09c-0.05,0.03-0.12,0.07-0.19,0.11c-0.24,0.06-0.49,0.1-0.76,0.18c0.25-0.02,0.48-0.06,0.66-0.12
						c-0.35,0.22-0.85,0.59-1.31,1L22.4,9.77c-0.04,0.03-0.07,0.05-0.11,0.09c-0.61,0.17-0.28,0.44,0.19,0.58
						c-0.22,0.21-0.38,0.48-0.49,0.7c-0.84-0.35-1.11,1.15-2.13,0.89c-0.04,0.28-0.6,0.8-1.12,1.35c-0.47,0.6-0.89,1.24-0.73,1.66
						c-0.09-0.07-0.25,0.01-0.02-0.21c-0.56,0.37-1.12,0.75-1.39,1.33l-0.63-0.25l-0.25,0.79l-0.2,0.82
						c-0.86,0.39-1.27,0.52-1.02-0.46c-0.9,2.08-0.99,1.47-1.62,3.28L12.62,20c-0.38,0.53-0.57,1.67-1.06,1.79
						c-1.6,0.64-4.1,5.82-6.19,8.97c0.7-0.09,0.37,0.24,0.01,0.67c-0.34,0.45-0.75,0.99-0.35,1.22c-0.33,0.1-0.66,0.54-0.67-0.12
						c-0.39,1.9-1.48,2.58-1.03,4.09C3,36.78,3.04,36.13,2.83,36.27c0.02,0.17,0.08,0.66-0.13,0.81c-0.21,0.15-0.15-0.34-0.19-0.67
						c-0.45,1.95,0.33,2.33,1.07,2.65c-0.3,0.43-0.48,0.77-0.53,1.1c-0.02,0.33,0.08,0.66,0.28,1.05c-0.31,0.29-0.66,0.81-0.57-0.4
						C2.63,41.47,1.73,44.87,2.4,45c-0.17,0.2-0.1,0.94-0.03,1.12c-0.11,1.51-0.18,1.64-0.19,3.12l0.12-0.41
						c0.71,0.59,0.17,1.22,0.32,2.41l-0.08-0.03c-0.21,1.38-0.13,1.67-0.06,1.96c0.04,0.14,0.07,0.28,0.06,0.56
						c-0.02,0.28-0.04,0.69-0.09,1.38l0.45-0.2c1.06,0.11-0.25,2.43,0.39,3.93l0.18-0.61c0.45,0.76-0.81,2.62-0.73,3.53
						c-0.04,0.21-0.21-0.26-0.35-0.5c-0.01,2.41,0.68,0.13,1.25,1.74C3.42,63.41,2.7,62.87,2.99,64c-0.03,0.32,0.52,1.03,1.07,1.86
						c0.57,0.82,1.03,1.79,1.11,2.62c0.09-0.42,0.18-0.82,0.7-0.19c0.62,1.02,0.5,3.42,1.79,3.97c0.02,0.17-0.01,0.25-0.07,0.29
						c0.67,0.69,1.86,2.39,2.52,2.61c-0.47,0.82,0.59,1.86,1.54,2.78c0.49,0.46,0.93,0.91,1.24,1.26c0.3,0.35,0.4,0.66,0.11,0.9
						l1.97,2.05l-0.16,0.05c0.56,0.73,1.11,1.05,1.53,1.29c0.43,0.22,0.79,0.3,1.15,0.38c0.24,0.36-0.08,0.26-0.16,0.29
						c1.73,2.04,2.1,2.07,4.29,2.8l-0.1,0.54c0.32,0.07,0.96,0.81,1.93,1.55c0.47,0.38,1.01,0.79,1.59,1.16
						c0.57,0.37,1.19,0.7,1.85,0.83c-0.05,0.04-0.14,0.1-0.36,0.07c0.73,0.19,1.45,0.55,2.15,0.97c0.71,0.41,1.38,0.94,2.08,1.26
						c1.37,0.71,2.61,1.2,3.39,0.52c0.64,0.11,1.32,0.07,1.97,0.1c-2.34-0.75,0.57-0.66-0.32-1.2c0.94,0.13,2.25,1.14,1.08,0.94
						l-0.16-0.13c-0.66,0.79,2.87,1.11,2.69,1.66c4.81,0.89,9.62,1.49,14.26,1.12c-0.2-0.22-0.4-0.42-0.6-0.66
						c0.53-0.03,1.06-0.12,1.58-0.18c0.44,0.11,0.64,0.48-0.51,0.63c0.66,0.32,1.86-0.64,1.86-0.8c2.27-0.05-0.73,0.97-0.05,0.89
						l0.93-0.2l-0.23-0.05c0.35-0.21,0.53-0.39,0.79-0.54c0.26-0.14,0.6-0.28,1.27-0.45c0.88-0.07,0.54,0.33,0.88,0.27
						c0.01,0.05,0.13,0.05,0.52-0.11l1.99-0.45l-0.95-0.35c0.79-0.49,1.83-0.46,0.75-0.84c0.79,0.3,2.59-0.29,4.3-0.91
						c1.67-0.7,3.19-1.59,3.64-1.62c0.23-0.23,0.48-0.43,0.73-0.62c0.25-0.21,0.5-0.41,0.77-0.6c0.54-0.38,1.13-0.72,1.79-1.09
						c-0.39,0.1-0.92-0.34,0.23-0.95c0.15,0.67,0.77,0.53,1.47,0.13c0.7-0.4,1.52-0.95,2.24-0.89c-0.58,0.03,0.16-0.56,0.81-1.14
						c0.65-0.59,1.14-1.24,0.3-1.08c0.88-0.65,0.37,0.34,1.2,0.01c0.4-0.54,0.88-1.04,1.42-1.52c0.27-0.23,0.55-0.47,0.83-0.72
						c0.27-0.26,0.54-0.52,0.82-0.78c1.1-1.06,2.4-2.08,3.26-3.49c-0.11-0.15-0.65,0.12-0.44-0.59l1.74-0.86
						c0.3-0.59-0.43-1.02,0.67-1.69c-0.21,0.06-0.52,0.15-0.35-0.25c2.06-2.44,3.47-5.44,4.54-8.5c0.51-1.55,1.12-3.06,1.55-4.63
						c0.25-0.78,0.52-1.55,0.84-2.31c0.32-0.76,0.53-1.56,0.88-2.33c-0.47,0.82-0.41,0.23-0.33-0.44c-0.15,0.42-0.43-0.08-0.68-0.03
						c0.34-0.85,0.74-1.71,1.03-2.59c-0.63-0.55,0.1-2.91-0.51-3.21l0.07,0.85c-0.69-1.14-1.74,1.47-2.68,1.22
						c0.2,0.31,0.21,0.67,0.13,1.04c-0.1,0.38-0.32,0.77-0.52,1.19c-0.4,0.84-0.76,1.74-0.31,2.82c-0.26,0.39-0.25-0.42-0.5-0.24
						c0.36,0.57,0.26,1.17-0.19,2.2l-0.07-0.15c-0.36,1.51-0.63,2.59-1.19,3.61c-0.26,0.52-0.52,1.04-0.82,1.64
						c-0.3,0.59-0.59,1.26-1.05,1.99l0.54-0.04c-0.38,0.65-0.59,0.73-0.84,0.99c0.28,1.08,0.95-1.87,1.33-0.84
						c-0.66,0.26-1.23,1.44-1.8,2.58c-0.59,1.13-1.33,2.13-1.95,2.14c-0.59,0.97,0.64,0,0.04,0.98l-0.41,0.1l0.17,0.46
						c-0.43,0.62-1.02,0.67-1.22,0.56c0.13-0.13,0.25-0.45,0.35-0.61c-0.86,0.56-1.53,2.23-1.82,2.43l0.8-0.76
						c-0.42,0.65-0.85,1.35-1.39,2c-0.56,0.62-1.13,1.26-1.71,1.9c-0.28,0.32-0.56,0.64-0.84,0.96c-0.31,0.29-0.6,0.59-0.89,0.88
						c-0.58,0.59-1.11,1.2-1.57,1.82l0.31,0.02c-0.35,0.48-0.65,0.76-0.92,0.95c-0.26,0.19-0.48,0.31-0.7,0.42
						c-0.45,0.23-0.94,0.44-1.9,1.28l0.04-0.1c-0.26,0.51-0.8,0.94-1.41,1.28c0.41-0.55-1.3,0.19-0.74-0.49
						c-1.91,1.66-0.85,0.97-1.91,2.5l-0.52-0.16c-0.36,0.55-0.32,0.72-1.45,1.37c0.82-0.75-0.97-0.16-0.1-1.05
						c-0.69,0.11-1.22,0.31-1.67,0.55c-0.46,0.22-0.85,0.44-1.2,0.65c-0.7,0.42-1.26,0.75-2.02,0.4c-0.83,1.4,2.36-0.26,1.79,0.19
						c0.67,0.11-0.7,1.07-1.54,1.27c-0.82,0.32-1.8-0.84-3.84-0.27c0.21-0.05,0.2-0.13,0.41-0.17c-0.42-0.03-0.77,0.15-1.15,0.32
						c-0.19,0.08-0.39,0.17-0.61,0.22c-0.22,0.03-0.46,0.02-0.72-0.05c-0.43,0.69-1.26,0.15-1.29,0.96l1.92-0.48
						c-1.05,0.37-1.98,1.45-3.89,1.28c0.13-0.18,0.65-0.47,1.01-0.65c-0.56-0.17-1.01,0.34-1.59,0.13c0.08-0.75,2.35-0.52,3.43-1.28
						c-0.61-0.25-2.12,0.9-1.66-0.03c-0.34,0.6-0.87,0.65-1.47,0.68c-0.6-0.03-1.27-0.1-1.97,0.35l0.07-0.48
						c-0.22,0.09-0.68,0.33-1.1,0.34l0.73-0.65c-1.14,0.58-2.22-0.3-3.31-0.12c1.15,0.06,1.28,0.2,1.24,0.38
						c-0.04,0.19-0.24,0.43,0.25,0.58c-2.92,0.55-1.63-1.3-4.8-1.24c0.43-0.02,1.59,0.37,0.9,0.56c-0.61-0.1-1.38-0.4-1.71-0.72
						c-2.09-0.22,0.26,0.53-0.67,0.69c-0.63-0.68-1.07,0.08-2.04,0.11l0.08-0.48c-0.59-0.15-0.93-0.2-1.14-0.19
						c-0.22,0.02-0.32,0.12-0.41,0.22c-0.18,0.2-0.33,0.41-1.37-0.05l1.06-0.42l-1.15-0.12l0.36-0.47
						c-0.65,0.04-1.06,0.02-1.45-0.08c-0.39-0.09-0.76-0.24-1.3-0.54c0.16,0.42-0.42,0.78-1.45,0.41c-0.6-0.52,0.55-0.29-0.92-0.75
						c0.44-0.16,0.92-0.39,1.39,0.26c0.12-0.12,0.42-0.17,0.53-0.29c-0.62-0.58-1.81-0.74-2.33-0.93c0.19,0.09,0.42,0.2,0.51,0.31
						c-0.38-0.02-0.77-0.04-1.16-0.07l-1.13-0.18c-0.24-0.32,0.07-0.33,0.38-0.34c-0.42-0.15-0.8-0.08-1.41-0.33
						c0.33-0.28,0.47-0.66,1.37-0.43l-2.06-0.51c-0.05-0.2-0.73-0.89-0.42-0.89c-0.84-0.8-2.81-0.78-3.92-1.89
						c-0.11,0.01-0.28-0.02-0.57-0.17c-0.55-0.47-1.01-0.99-1.54-1.46c-0.26-0.24-0.55-0.46-0.87-0.67
						c-0.3-0.23-0.64-0.45-1.04-0.64l-0.24-1.17c-1.09-0.78,0.38,1.54-1.46,0.23c-1.33-0.92-0.02-0.82-0.27-1.35
						c-0.77-0.32-2.24-0.87-2.79-2.32C16.22,77.02,16.39,77.37,16.74,77.66z M8.12,63.61c0.21,0.27,0.72,0.76,0.53,1.08
						C8.01,64.55,8.16,64.18,8.12,63.61z M6,38.41c0.09,0.28-0.08,0.62-0.36,1C5.67,39.09,5.78,38.75,6,38.41z M63.93,4.79
						c-0.02,0-0.03,0-0.04,0.01C63.2,4.35,63.44,4.52,63.93,4.79z M65.41,5.55c0.18-0.01,0.19-0.07,0.15-0.16
						c-0.15,0.07-0.5-0.05-0.89-0.22C64.74,5.33,64.91,5.49,65.41,5.55z M59.73,95.02l-0.34-0.04
						C60.06,94.67,59.89,94.84,59.73,95.02z"/>
					<path class="st1" d="M5.97,41.4c-0.09,0.08-0.19,0.09-0.28,0.09C5.75,41.63,5.85,41.65,5.97,41.4z"/>
					<path class="st1" d="M24.54,84.28l0.04,0.03c0.04-0.01,0.07-0.02,0.09-0.04L24.54,84.28z"/>
					<path class="st1" d="M41.07,7.16c-0.32-0.02-0.5-0.08-0.64-0.16C40.44,7.12,40.59,7.2,41.07,7.16z"/>
					<path class="st1" d="M73.64,8.73l-0.98-0.45c0.45,0.25,0.56,0.43,0.74,0.63C73.44,8.81,73.35,8.56,73.64,8.73z"/>
					<path class="st1" d="M79,16.54c0.15,0.06,0.24,0.2,0.38,0.26l0.12-0.19C79.03,16.19,78.58,16.03,79,16.54z"/>
					<path class="st1" d="M73.61,10.59c-0.16,0.4,0.5,0.56,1.11,0.96c-0.04-0.02-0.07-0.05-0.1-0.08
						C75.12,11.13,74.39,10.81,73.61,10.59z"/>
					<path class="st1" d="M74.86,11.64c0.19,0.12,0.38,0.25,0.54,0.39C75.61,11.9,75.21,11.83,74.86,11.64z"/>
					<path class="st1" d="M67.46,6.08c0.28,0.25,0.41-0.38,0.52-0.14C68.55,5.62,65.6,5.52,67.46,6.08z"/>
					<polygon class="st1" points="73.38,12.01 73.43,11.46 72.87,11.59 					"/>
					<path class="st1" d="M68.71,8.92l0.96,0.62c0.02-0.08,0.18-0.06,0.35-0.02C69.4,9.2,68.75,8.78,68.71,8.92z"/>
					<path class="st1" d="M70.02,9.52c0.32,0.17,0.61,0.36,0.83,0.39C70.68,9.82,70.31,9.6,70.02,9.52z"/>
					<polygon class="st1" points="71.98,11.34 71.75,11.08 71.09,10.63 					"/>
					<path class="st1" d="M57.21,4.89l-1.25-0.05c-0.15,0.15,0.16,0.3,0.63,0.31C56.9,5.08,57.37,5.08,57.21,4.89z"/>
					<path class="st1" d="M60.49,7.1c-0.29-0.18-0.28-0.29-0.42-0.5l-0.2,0.59L60.49,7.1z"/>
					<path class="st1" d="M57.05,6.4c-0.16,0.15-1.8,0.23-0.3,0.41C56.9,6.65,58.11,6.73,57.05,6.4z"/>
					<polygon class="st1" points="38.92,5.82 39.22,5.73 38.96,4.75 					"/>
					<path class="st1" d="M25.37,14.11c1.3-0.5-0.06-0.7,1.17-1.09c0.15-0.38-1,0.32-0.83-0.03C25.13,13.64,24.68,13.75,25.37,14.11
						z"/>
					<path class="st1" d="M25.71,12.99c0.09-0.1,0.19-0.22,0.29-0.35C25.82,12.82,25.75,12.92,25.71,12.99z"/>
					<polygon class="st1" points="95.82,52.22 96.08,51.24 95.7,51.86 					"/>
					<path class="st1" d="M95.15,50.31l0.66-0.22l-0.56-0.59C95.27,49.72,95.31,50.15,95.15,50.31z"/>
					<path class="st1" d="M8.62,60.9l-0.17-0.02c-0.13,0.18-0.09,0.38-0.02,0.78L8.62,60.9z"/>
					<polygon class="st1" points="12.98,71.81 12.88,71.63 12.58,72.27 					"/>
					<path class="st1" d="M19.72,79.01c-0.29-0.27-0.7-0.53-0.95-0.85C19.41,78.75,19.3,79.6,19.72,79.01z"/>
				</g>
			</g>
		</g>
	</g>
</g>
</svg>
