<svg enable-background="new 0 0 98.5 97.75" viewBox="0 0 98.5 97.75" xmlns="http://www.w3.org/2000/svg"><circle cx="48.5" cy="49.5" fill="#f7931e" r="45"/><g fill="#f8a13b"><path d="m95.92 49.15c-.02.44.4.28.47.35-.13-.74-.58-.33-.47-.35z"/><path d="m94.34 42.08.19.1-.58-.97z"/><path d="m92.87 35.6c-.51.81.72 2.3.77 3.51l-.11.22.69.4c-.45-1.39-1.27-3.1-1.35-4.13z"/><path d="m93.09 31.69c-.18.32-.49-.66.21.83 0-.09.01-.12.01-.17-.05-.14-.12-.33-.22-.66z"/><path d="m93.31 32.35c.27.68.06-.53 0 0z"/><path d="m91.87 29.34.64.76c.06-.25-.27-1.03-.03-.8-.55-.83-.61-.57-.61.04z"/><path d="m91.01 28.76.31.39c.02-.1-.02-.23-.31-.39z"/><path d="m91.96 30-.65-.84c-.04.17-.25.28.28.39-.23.01.05.11.37.45z"/><path d="m92.12 30.57c.1.54.23 1.21-.34.44.39.8.63 1.12.74 1.01.07-.1.04-.65-.4-1.45z"/><path d="m92.05 35.5c.01.23.03.47.01.71l.38.5c-.09-.13-.13-.46-.17-.75-.05-.28-.12-.51-.22-.46z"/><path d="m89.36 23.95c-.16.03-.18.49-.31.65l.51.51c-.1-.36-.37-1-.2-1.16z"/><path d="m89.05 24.6-.76-.75c.45.81.65.89.76.75z"/><path d="m90.22 28.96 1.23 1.29-1.37-1.58z"/><path d="m87.08 20.61.65.27-1.07-.53z"/><path d="m85.4 18.53c.52.14-.03-.77.42-.54-.53-.51-1.15-.81-1.69-1.08.49.36.9.86 1.27 1.62z"/><path d="m83.26 16.45c.25.17.55.31.87.47-.27-.19-.55-.36-.87-.47z"/><path d="m87.37 22.33c.03-.12.13-.38-.14-.91l-.1.58c.07.1.15.22.24.33z"/><path d="m87.12 22.02v-.02c-.26-.36-.43-.62-.51-.72.07.09.22.32.51.74z"/><path d="m87.43 22.42c-.02-.03-.04-.05-.06-.08-.02.05-.01.08.06.08z"/><path d="m89.32 26.4c-.52-.4-1.39-1.33-1.08-.12.48.22.3-.48 1.08.12z"/><path d="m87.29 23.13c.19.31.33.65.5.98.08-.08.12-.34.37-.15-.29-.28-.56-.57-.87-.83z"/><path d="m86.86 22.78.43.35-.21-.35z"/><path d="m84.24 18.13c-.46-.23-.82-.61-1.24-1.02.36.52.77 1.04 1.18 1.49.17-.03.53.02.06-.47z"/><path d="m85.67 20c-.03-.02-.06-.05-.08-.07.01.08.03.12.08.07z"/><path d="m78.81 13.1.02.12.06-.04z"/><path d="m84.2 18.73c.25.4.52.54.81.66-.27-.24-.54-.5-.82-.79-.08.01-.11.03.01.13z"/><path d="m81.98 15.4c.13.23.27.48.42.75-.05-.28-.27-.77-.42-.75z"/><path d="m85.58 19.73.06.05c-.02-.19-.04-.15-.06-.05z"/><path d="m85.58 19.73c-.2-.16-.39-.25-.58-.34.2.21.4.39.59.54-.01-.07-.01-.14-.01-.2z"/><path d="m75.74 14.2c.28-.25 1.53.11 1.99 1.16.94.45 1.32-.96 1.1-2.14-.14.12-.22.2-1.23-.25.21.36 1.48 1.93.58 1.6-.57-.4-.79-.59-.89-.77-.1-.19-.1-.36-.31-.65.15.73-1.86-.5-2.04.27l1.12.52c-.07.1-.52-.02-.32.26z"/><path d="m80.34 14.65.36.27c-.33-.39-.49-.76-.79-1.45-.69-.36-.89-.35-1.02-.28l1.6 1.53z"/><path d="m82.17 16.29c-.53.02-1.47-.53-1.3.23.94.87.88.4 1.55.83-1.49-1.48.58.28-.27-1.02.33.26.6.52.85.77-.22-.32-.42-.64-.6-.95.01.02.01.04.01.05l.01.01h-.01c.02.11.02.15-.03.05-.01 0-.03-.02-.04-.03-.04.05-.1.05-.17.06-.35-.52.02-.15.18-.04.02-.01.05-.01.06-.03v-.01c-.53-.48-1.15-.86-1.71-1.3.29.36.74.7 1.47 1.38z"/><path d="m86.89 25.82c0-.07.03-.09.05-.11-.12-.08-.17-.11-.05.11z"/><path d="m86.67 24.97c.13.09.34.11.55.55.11.43-.18.11-.29.2.25.19.79.71.5-.18l-.13-.09c-.3-.78-.41-2-.29-1.91-.19.41-.3.75-.34 1.43z"/><path d="m84.55 20.57c-.38-.43-.84-.8-1.28-1.18l.3.89.14-.18c.57.81.63.49.84.47z"/><path d="m78.8 12.8.47-.19c-.38-.08-.82-.1-1.22-.14z"/><path d="m76.91 11.45.31-.26-.63-.18z"/><path d="m11.86 71.19.34.34c-.15-.17-.25-.27-.34-.34z"/><path d="m10.27 68.2-.21.01c.17.09.26.12.21-.01z"/><path d="m23.53 9.15c-.84.08-1.9.05-1.57.38l.44.24c.41-.34.79-.52 1.13-.62z"/><path d="m4.48 40.67c.05-.06.11-.12.16-.18-.1-.2-.2-.39-.29-.56.04.22.06.47.13.74z"/><path d="m6.17 41.5-.41.85c.12-.18.26-.46.41-.85z"/><path d="m24.67 84.27c.23-.01.45-.02.69-.06-.7-.47-.51-.09-.69.06z"/><path d="m55.24 2.66c-.62-.27-1.14-.42-1.59-.5.76.36 1.33.82 1.59.5z"/><path d="m7.13 72.28c.23.23.38.31.46.25-.23-.24-.4-.36-.46-.25z"/><path d="m51.75 2.03c.11.05.22.08.34.12.48-.04.98-.11 1.56.01-.56-.28-1.23-.39-1.9-.13z"/><path d="m83.76 73.28c.04-.03.08-.08.12-.1-.04-.04-.08.01-.12.1z"/><path d="m94.94 55.74c0 .21-.06.56-.1.88.05-.15.09-.41.1-.88z"/><path d="m69.05 6.47c.46.19.09-.01 0 0z"/><path d="m70.39 9.03c-.11 0-.21.02-.27.1.08-.08.17-.11.27-.1z"/><path d="m46.96 4.64c-.01 0-.02 0-.04 0 .14.08.11.07.04 0z"/><path d="m69.63 6.97c-.14-.13-.31-.26-.51-.39.08.08.23.2.51.39z"/><path d="m69.63 6.75c.15.08.26.15.37.22.09-.04.06-.1-.37-.22z"/><path d="m68.42 6.2c.26.12.49.25.7.39-.07-.07-.1-.11-.07-.11-.13-.06-.32-.15-.63-.28z"/><path d="m54.23 92.77c.03.01.07.01.1.03.43-.26.23-.2-.1-.03z"/><path d="m17.03 20.29c.01-.02.01-.03.02-.05-.02.01-.04.03-.06.04z"/><path d="m16.2 21.68c.05-.85.36-1.1.79-1.4l-1.28-.45c.15.63.32 1.25.49 1.85z"/><path d="m16.74 77.66-.45-1.07c1.38.56 1.83 1.39 1.56.28-.54.38-1.34-.33-2-1.16s-1.32-1.65-1.92-1.32l-.2-.75c.11.17.2.16.31.33-.32-1.49-1.43-.29-2.24-1.98-.25-.61-.31-1.09.06-.8l-1.04-1.05c-.18-.37.07-.39.26-.03-.4-.61-.71-1.27-1.06-1.9h.04c-.32-.19-.93-.69-1.21-.95-.07-.59.25.19.35 0-.27-.32-.57-.64-.82-.97.08-.3.28-.25.5-.02.24.22.51.6.67.99.37-.79.19-.96-.13-1.28-.28-.32-.69-.79-.74-2.06l.55 1c.47-.95-.09-1.67-.06-2.99-.14.33-.27 2.76-1.04 1.66-.03-.38-.16-.84-.64-1.43.46-.15.18-.78-.06-1.6l.63-.11c-.41-.84-.7-.69-1.12-1.15-.2-1.02.23-1.33.61-1.65-.16-1.65-.62 1.26-1.03-.65.02-.7-.07-1.28-.25-1.88-.17-.6-.47-1.23-.67-2.05.17-.99.4.14.56-.22l-.55-.82c0-.21.16-.15.24-.12-.23-.72-.64-.02-.87-1.17-.35-.15-.16-.75.1-1.48.28-.73.56-1.58.2-2.31.2-.34.38.19.64.1-.43-1.97-.34-1.68-.78-3.37l.62-1.3c-.63.92-.99-.44-1.28-1.69-.28.32-.53.6-.66.79-.02-.64-.05-1.29.02-1.92.16-.2.33.04.51.39-.02-.13-.04-.26-.06-.37.4-.6.67-.17.9.36-.18.19-.37.38-.55.56.31.53.67 1.03 1.05 1-.06-.13-.08-.37-.08-.62.09.12.17.21.24.17.08-.05-.05-.26-.13-.58l.8-.25-.25-.16 1.01-2.15c-.07-.45-.17-.9-.25-1.36-.05-.45-.1-.92-.13-1.42-.03-.98-.03-2.13.38-3.46.18.83.72.47 1.28.75-.89.42-.46 2.05-1.07 3.29.31-.66.54-.41.57-.2l.29-2.52c.44.24.52-.35 1.01-.83-1.13.03.19-1.93.36-2.99.32.1.52.48-.08 1.54 1.27-.85-.34-2.15.96-2.98-.15.26-.28.38-.19.56.11-.75 1.21-2.11 1.24-1.6l-.15.26c.28-.41.62-.94.96-1.51.36-.56.78-1.12 1.12-1.68.69-1.11 1.14-2.16.93-2.53.1.06.61.85.68 1.06.02-1.49.15-3.01.29-4.6.32.74 2.37 1.06 1.57 2.56.41-.26.83-.65 1.38-1.5-.31.13-1.34-.2-1.06-.55 1.48-.24.94-.27 2.51-.76-.46.21-.83-1-.22-1.51.02.21.78.81.66 1.09.21-.71.45-1.43.75-2.09-.26.45.53.79 1.06.79-.29-.06 1.32-.96 1.65-1.35l-.79.27c1.79-1.16.85-2.53 2.76-3.65-.11.34.19 1.56 1.18 1.12.07-.36.18-1.3.53-2.22s.92-1.93 1.74-2.57l.48.13c.41-.34.82-.69 1.27-.96-.3.54-.85 1.58-1.42 2.57-.57 1.01-1.17 1.98-1.61 2.6.84-.13.38.24 1.44-.3.51.1-.37.7-.67.86l2.54-1c-.19-.28.21-.66.62-1.03.43-.33.89-.64.73-.88-.88.52-1.67 1.23-2.47 1.86-.2-.28-.02-.89.47-1.55.25-.32.55-.68.94-.94s.84-.48 1.33-.63c.57.07.06 1.25.19 1.44.15-.3 1.61-1.06 1.83-.97l-.67.63c.55-.07.9-.43 1.29-.76.4-.32.87-.54 1.59-.4.46-.07 1.52.5 1.5.1-.88-.56-1.65-2.82-1.27-3.51.09 0 .76.02 1.47.07.71.02 1.49.24 1.79.37.87.48-.89 1.59-.14 1.99-.01-.18.37-.47.53-.57.51.08-.1.59.92.35.07-.7 2.12-.27.41-.64 1-.32 1.1-.08 2.31-.18-.44-.42.97-1.55 2.05-1.8-.06.18.19.39.31.49.54-.01 1.02-.01 1.47.01.45.05.86.12 1.26.18.81.13 1.6.25 2.6.3.17.17 1.11.43.68.69.29-.08.58-.27 1.19-.19 1.1.76-1.36-.12-.55.72.12-.38 1.62-.3 2.54-.42-.16-.64-2-.42-2.89-.31.08-.84 1.72-1.49 3.96-1.54 1.75.11.62.69.94.62 1.54.47 2.3.29 2.99.14.69-.14 1.33-.27 2.51.52.84.88-.31 1.03-.21 1.47-.68-.14-1.15-.41-1.57-.66-.43-.22-.8-.45-1.26-.56l1.05.53c-.48.06-1.4-.04-1.85-.31.74.6 5.13 1.59 7.14 3.08.46.02 1.22.18.99-.17l-.73-.26c-.47-.71 1.58.1.77-.52.54.09 1.14.16 1.76.32.31.08.62.18.94.32.3.16.6.36.89.61l-.07.67c.06-.17-.65-.83-1.11-.88.68.09 1.53 1.9 2.53 1.56l-.68-.91c1.06.31 2.63.39 3.58 1.41-.15-.86-.28-.13-.67-1.29.23 1.17-2.97-1.85-2.31-.36-.21-.61-.53-.91-.9-1.21-.37-.31-.76-.63-1.2-1.21-.05.2.24.55-.75-.04-.07.03-.22.04-.31.05-.03-.02-.04-.03-.06-.05l.05.05c-.06.01-.07.01.02.02.21.2.36.39.39.53-.72.17-2.33-.62-2.97-.67-.56-.38.35-.09.1-.45-.32-.03-.64-.04-.97-.02.09-.44-1.41-1.31.19-1l-1.35-.52c-.71-.52-1.79-1.05-2.54-1.08-.64-.27-1.81.05-1.14-.14l-2.26-.29v-.11c-1.07-.35-2.25-.28-3.43-.38-1.19-.07-2.37-.32-3.62-.74-.76.07-1.54.17-2.79-.02l-.24-.4c-.96.07-2.93-.28-3.33.12-.28-.25-.71-.37-1.24-.42-.26-.02-.55-.03-.85-.02-.3.02-.61.09-.92.14-1.26.24-2.57.6-3.44.64l.03.51c-1.16.18-2.21.66-3.56 1.2l.21.41c-1.11.58-3.12.65-4.97 1.37.06-.21.55-.34.92-.36-.64-.03-1.24.1-1.81.32-.56.25-1.07.63-1.57.99-.99.75-1.96 1.41-3.05 1.65-.37.42-.73.57-1.1.66.04-.03.07-.06.1-.09-.05.03-.12.07-.19.11-.24.06-.49.1-.76.18.25-.02.48-.06.66-.12-.35.22-.85.59-1.31 1l-.49-.27c-.04.03-.07.05-.11.09-.61.17-.28.44.19.58-.22.21-.38.48-.49.7-.84-.35-1.11 1.15-2.13.89-.04.28-.6.8-1.12 1.35-.47.6-.89 1.24-.73 1.66-.09-.07-.25.01-.02-.21-.56.37-1.12.75-1.39 1.33l-.63-.25-.25.79-.2.82c-.86.39-1.27.52-1.02-.46-.9 2.08-.99 1.47-1.62 3.28l-.26-.34c-.38.53-.57 1.67-1.06 1.79-1.6.64-4.1 5.82-6.19 8.97.7-.09.37.24.01.67-.34.45-.75.99-.35 1.22-.33.1-.66.54-.67-.12-.39 1.9-1.48 2.58-1.03 4.09-.33.16-.29-.49-.5-.35.02.17.08.66-.13.81s-.15-.34-.19-.67c-.45 1.95.33 2.33 1.07 2.65-.3.43-.48.77-.53 1.1-.02.33.08.66.28 1.05-.31.29-.66.81-.57-.4-.13.66-1.03 4.06-.36 4.19-.17.2-.1.94-.03 1.12-.11 1.51-.18 1.64-.19 3.12l.12-.41c.71.59.17 1.22.32 2.41l-.08-.03c-.21 1.38-.13 1.67-.06 1.96.04.14.07.28.06.56-.02.28-.04.69-.09 1.38l.45-.2c1.06.11-.25 2.43.39 3.93l.18-.61c.45.76-.81 2.62-.73 3.53-.04.21-.21-.26-.35-.5-.01 2.41.68.13 1.25 1.74-.22.41-.94-.13-.65 1-.03.32.52 1.03 1.07 1.86.57.82 1.03 1.79 1.11 2.62.09-.42.18-.82.7-.19.62 1.02.5 3.42 1.79 3.97.02.17-.01.25-.07.29.67.69 1.86 2.39 2.52 2.61-.47.82.59 1.86 1.54 2.78.49.46.93.91 1.24 1.26.3.35.4.66.11.9l1.97 2.05-.16.05c.56.73 1.11 1.05 1.53 1.29.43.22.79.3 1.15.38.24.36-.08.26-.16.29 1.73 2.04 2.1 2.07 4.29 2.8l-.1.54c.32.07.96.81 1.93 1.55.47.38 1.01.79 1.59 1.16.57.37 1.19.7 1.85.83-.05.04-.14.1-.36.07.73.19 1.45.55 2.15.97.71.41 1.38.94 2.08 1.26 1.37.71 2.61 1.2 3.39.52.64.11 1.32.07 1.97.1-2.34-.75.57-.66-.32-1.2.94.13 2.25 1.14 1.08.94l-.16-.13c-.66.79 2.87 1.11 2.69 1.66 4.81.89 9.62 1.49 14.26 1.12-.2-.22-.4-.42-.6-.66.53-.03 1.06-.12 1.58-.18.44.11.64.48-.51.63.66.32 1.86-.64 1.86-.8 2.27-.05-.73.97-.05.89l.93-.2-.23-.05c.35-.21.53-.39.79-.54.26-.14.6-.28 1.27-.45.88-.07.54.33.88.27.01.05.13.05.52-.11l1.99-.45-.95-.35c.79-.49 1.83-.46.75-.84.79.3 2.59-.29 4.3-.91 1.67-.7 3.19-1.59 3.64-1.62.23-.23.48-.43.73-.62.25-.21.5-.41.77-.6.54-.38 1.13-.72 1.79-1.09-.39.1-.92-.34.23-.95.15.67.77.53 1.47.13s1.52-.95 2.24-.89c-.58.03.16-.56.81-1.14.65-.59 1.14-1.24.3-1.08.88-.65.37.34 1.2.01.4-.54.88-1.04 1.42-1.52.27-.23.55-.47.83-.72.27-.26.54-.52.82-.78 1.1-1.06 2.4-2.08 3.26-3.49-.11-.15-.65.12-.44-.59l1.74-.86c.3-.59-.43-1.02.67-1.69-.21.06-.52.15-.35-.25 2.06-2.44 3.47-5.44 4.54-8.5.51-1.55 1.12-3.06 1.55-4.63.25-.78.52-1.55.84-2.31s.53-1.56.88-2.33c-.47.82-.41.23-.33-.44-.15.42-.43-.08-.68-.03.34-.85.74-1.71 1.03-2.59-.63-.55.1-2.91-.51-3.21l.07.85c-.69-1.14-1.74 1.47-2.68 1.22.2.31.21.67.13 1.04-.1.38-.32.77-.52 1.19-.4.84-.76 1.74-.31 2.82-.26.39-.25-.42-.5-.24.36.57.26 1.17-.19 2.2l-.07-.15c-.36 1.51-.63 2.59-1.19 3.61-.26.52-.52 1.04-.82 1.64-.3.59-.59 1.26-1.05 1.99l.54-.04c-.38.65-.59.73-.84.99.28 1.08.95-1.87 1.33-.84-.66.26-1.23 1.44-1.8 2.58-.59 1.13-1.33 2.13-1.95 2.14-.59.97.64 0 .04.98l-.41.1.17.46c-.43.62-1.02.67-1.22.56.13-.13.25-.45.35-.61-.86.56-1.53 2.23-1.82 2.43l.8-.76c-.42.65-.85 1.35-1.39 2-.56.62-1.13 1.26-1.71 1.9-.28.32-.56.64-.84.96-.31.29-.6.59-.89.88-.58.59-1.11 1.2-1.57 1.82l.31.02c-.35.48-.65.76-.92.95-.26.19-.48.31-.7.42-.45.23-.94.44-1.9 1.28l.04-.1c-.26.51-.8.94-1.41 1.28.41-.55-1.3.19-.74-.49-1.91 1.66-.85.97-1.91 2.5l-.52-.16c-.36.55-.32.72-1.45 1.37.82-.75-.97-.16-.1-1.05-.69.11-1.22.31-1.67.55-.46.22-.85.44-1.2.65-.7.42-1.26.75-2.02.4-.83 1.4 2.36-.26 1.79.19.67.11-.7 1.07-1.54 1.27-.82.32-1.8-.84-3.84-.27.21-.05.2-.13.41-.17-.42-.03-.77.15-1.15.32-.19.08-.39.17-.61.22-.22.03-.46.02-.72-.05-.43.69-1.26.15-1.29.96l1.92-.48c-1.05.37-1.98 1.45-3.89 1.28.13-.18.65-.47 1.01-.65-.56-.17-1.01.34-1.59.13.08-.75 2.35-.52 3.43-1.28-.61-.25-2.12.9-1.66-.03-.34.6-.87.65-1.47.68-.6-.03-1.27-.1-1.97.35l.07-.48c-.22.09-.68.33-1.1.34l.73-.65c-1.14.58-2.22-.3-3.31-.12 1.15.06 1.28.2 1.24.38-.04.19-.24.43.25.58-2.92.55-1.63-1.3-4.8-1.24.43-.02 1.59.37.9.56-.61-.1-1.38-.4-1.71-.72-2.09-.22.26.53-.67.69-.63-.68-1.07.08-2.04.11l.08-.48c-.59-.15-.93-.2-1.14-.19-.22.02-.32.12-.41.22-.18.2-.33.41-1.37-.05l1.06-.42-1.15-.12.36-.47c-.65.04-1.06.02-1.45-.08-.39-.09-.76-.24-1.3-.54.16.42-.42.78-1.45.41-.6-.52.55-.29-.92-.75.44-.16.92-.39 1.39.26.12-.12.42-.17.53-.29-.62-.58-1.81-.74-2.33-.93.19.09.42.2.51.31-.38-.02-.77-.04-1.16-.07l-1.13-.18c-.24-.32.07-.33.38-.34-.42-.15-.8-.08-1.41-.33.33-.28.47-.66 1.37-.43l-2.06-.51c-.05-.2-.73-.89-.42-.89-.84-.8-2.81-.78-3.92-1.89-.11.01-.28-.02-.57-.17-.55-.47-1.01-.99-1.54-1.46-.26-.24-.55-.46-.87-.67-.3-.23-.64-.45-1.04-.64l-.24-1.17c-1.09-.78.38 1.54-1.46.23-1.33-.92-.02-.82-.27-1.35-.77-.32-2.24-.87-2.79-2.32.43.26.6.61.95.9zm-8.62-14.05c.21.27.72.76.53 1.08-.64-.14-.49-.51-.53-1.08zm-2.12-25.2c.09.28-.08.62-.36 1 .03-.32.14-.66.36-1zm57.93-33.62c-.02 0-.03 0-.04.01-.69-.45-.45-.28.04-.01zm1.48.76c.18-.01.19-.07.15-.16-.15.07-.5-.05-.89-.22.07.16.24.32.74.38zm-5.68 89.47-.34-.04c.67-.31.5-.14.34.04z"/><path d="m5.97 41.4c-.09.08-.19.09-.28.09.06.14.16.16.28-.09z"/><path d="m24.54 84.28.04.03c.04-.01.07-.02.09-.04z"/><path d="m41.07 7.16c-.32-.02-.5-.08-.64-.16.01.12.16.2.64.16z"/><path d="m73.64 8.73-.98-.45c.45.25.56.43.74.63.04-.1-.05-.35.24-.18z"/><path d="m79 16.54c.15.06.24.2.38.26l.12-.19c-.47-.42-.92-.58-.5-.07z"/><path d="m73.61 10.59c-.16.4.5.56 1.11.96-.04-.02-.07-.05-.1-.08.5-.34-.23-.66-1.01-.88z"/><path d="m74.86 11.64c.19.12.38.25.54.39.21-.13-.19-.2-.54-.39z"/><path d="m67.46 6.08c.28.25.41-.38.52-.14.57-.32-2.38-.42-.52.14z"/><path d="m73.38 12.01.05-.55-.56.13z"/><path d="m68.71 8.92.96.62c.02-.08.18-.06.35-.02-.62-.32-1.27-.74-1.31-.6z"/><path d="m70.02 9.52c.32.17.61.36.83.39-.17-.09-.54-.31-.83-.39z"/><path d="m71.98 11.34-.23-.26-.66-.45z"/><path d="m57.21 4.89-1.25-.05c-.15.15.16.3.63.31.31-.07.78-.07.62-.26z"/><path d="m60.49 7.1c-.29-.18-.28-.29-.42-.5l-.2.59z"/><path d="m57.05 6.4c-.16.15-1.8.23-.3.41.15-.16 1.36-.08.3-.41z"/><path d="m38.92 5.82.3-.09-.26-.98z"/><path d="m25.37 14.11c1.3-.5-.06-.7 1.17-1.09.15-.38-1 .32-.83-.03-.58.65-1.03.76-.34 1.12z"/><path d="m25.71 12.99c.09-.1.19-.22.29-.35-.18.18-.25.28-.29.35z"/><path d="m95.82 52.22.26-.98-.38.62z"/><path d="m95.15 50.31.66-.22-.56-.59c.02.22.06.65-.1.81z"/><path d="m8.62 60.9-.17-.02c-.13.18-.09.38-.02.78z"/><path d="m12.98 71.81-.1-.18-.3.64z"/><path d="m19.72 79.01c-.29-.27-.7-.53-.95-.85.64.59.53 1.44.95.85z"/></g></svg>